solid OpenSCAD_Model
  facet normal 1 -0 0
    outer loop
      vertex 2 8 2
      vertex 2 12 0
      vertex 2 12 2
    endloop
  endfacet
  facet normal 1 0 0
    outer loop
      vertex 2 12 0
      vertex 2 8 2
      vertex 2 8 0
    endloop
  endfacet
  facet normal -1 0 0
    outer loop
      vertex 7 8 0
      vertex 7 12 2
      vertex 7 12 0
    endloop
  endfacet
  facet normal -1 -0 0
    outer loop
      vertex 7 12 2
      vertex 7 8 0
      vertex 7 8 2
    endloop
  endfacet
  facet normal 0 -1 0
    outer loop
      vertex 2 12 0
      vertex 7 12 2
      vertex 2 12 2
    endloop
  endfacet
  facet normal 0 -1 -0
    outer loop
      vertex 7 12 2
      vertex 2 12 0
      vertex 7 12 0
    endloop
  endfacet
  facet normal 0 1 -0
    outer loop
      vertex 7 8 0
      vertex 2 8 2
      vertex 7 8 2
    endloop
  endfacet
  facet normal 0 1 0
    outer loop
      vertex 2 8 2
      vertex 7 8 0
      vertex 2 8 0
    endloop
  endfacet
  facet normal 1 -0 0
    outer loop
      vertex 9 8 2
      vertex 9 12 0
      vertex 9 12 2
    endloop
  endfacet
  facet normal 1 0 0
    outer loop
      vertex 9 12 0
      vertex 9 8 2
      vertex 9 8 0
    endloop
  endfacet
  facet normal -1 0 0
    outer loop
      vertex 14 8 0
      vertex 14 12 2
      vertex 14 12 0
    endloop
  endfacet
  facet normal -1 -0 0
    outer loop
      vertex 14 12 2
      vertex 14 8 0
      vertex 14 8 2
    endloop
  endfacet
  facet normal 0 1 -0
    outer loop
      vertex 14 8 0
      vertex 9 8 2
      vertex 14 8 2
    endloop
  endfacet
  facet normal 0 1 0
    outer loop
      vertex 9 8 2
      vertex 14 8 0
      vertex 9 8 0
    endloop
  endfacet
  facet normal 0 -1 0
    outer loop
      vertex 9 12 0
      vertex 14 12 2
      vertex 9 12 2
    endloop
  endfacet
  facet normal 0 -1 -0
    outer loop
      vertex 14 12 2
      vertex 9 12 0
      vertex 14 12 0
    endloop
  endfacet
  facet normal 1 -0 0
    outer loop
      vertex 16 8 2
      vertex 16 12 0
      vertex 16 12 2
    endloop
  endfacet
  facet normal 1 0 0
    outer loop
      vertex 16 12 0
      vertex 16 8 2
      vertex 16 8 0
    endloop
  endfacet
  facet normal -1 0 0
    outer loop
      vertex 21 8 0
      vertex 21 12 2
      vertex 21 12 0
    endloop
  endfacet
  facet normal -1 -0 0
    outer loop
      vertex 21 12 2
      vertex 21 8 0
      vertex 21 8 2
    endloop
  endfacet
  facet normal 0 1 -0
    outer loop
      vertex 21 8 0
      vertex 16 8 2
      vertex 21 8 2
    endloop
  endfacet
  facet normal 0 1 0
    outer loop
      vertex 16 8 2
      vertex 21 8 0
      vertex 16 8 0
    endloop
  endfacet
  facet normal 0 -1 0
    outer loop
      vertex 16 12 0
      vertex 21 12 2
      vertex 16 12 2
    endloop
  endfacet
  facet normal 0 -1 -0
    outer loop
      vertex 21 12 2
      vertex 16 12 0
      vertex 21 12 0
    endloop
  endfacet
  facet normal 1 -0 0
    outer loop
      vertex 23 8 2
      vertex 23 12 0
      vertex 23 12 2
    endloop
  endfacet
  facet normal 1 0 0
    outer loop
      vertex 23 12 0
      vertex 23 8 2
      vertex 23 8 0
    endloop
  endfacet
  facet normal -1 0 0
    outer loop
      vertex 28 8 0
      vertex 28 12 2
      vertex 28 12 0
    endloop
  endfacet
  facet normal -1 -0 0
    outer loop
      vertex 28 12 2
      vertex 28 8 0
      vertex 28 8 2
    endloop
  endfacet
  facet normal 0 -1 0
    outer loop
      vertex 23 12 0
      vertex 28 12 2
      vertex 23 12 2
    endloop
  endfacet
  facet normal 0 -1 -0
    outer loop
      vertex 28 12 2
      vertex 23 12 0
      vertex 28 12 0
    endloop
  endfacet
  facet normal 0 1 -0
    outer loop
      vertex 28 8 0
      vertex 23 8 2
      vertex 28 8 2
    endloop
  endfacet
  facet normal 0 1 0
    outer loop
      vertex 23 8 2
      vertex 28 8 0
      vertex 23 8 0
    endloop
  endfacet
  facet normal 1 -0 0
    outer loop
      vertex 30 8 2
      vertex 30 12 0
      vertex 30 12 2
    endloop
  endfacet
  facet normal 1 0 0
    outer loop
      vertex 30 12 0
      vertex 30 8 2
      vertex 30 8 0
    endloop
  endfacet
  facet normal -1 0 0
    outer loop
      vertex 35 8 0
      vertex 35 12 2
      vertex 35 12 0
    endloop
  endfacet
  facet normal -1 -0 0
    outer loop
      vertex 35 12 2
      vertex 35 8 0
      vertex 35 8 2
    endloop
  endfacet
  facet normal 0 -1 0
    outer loop
      vertex 30 12 0
      vertex 35 12 2
      vertex 30 12 2
    endloop
  endfacet
  facet normal 0 -1 -0
    outer loop
      vertex 35 12 2
      vertex 30 12 0
      vertex 35 12 0
    endloop
  endfacet
  facet normal 0 1 -0
    outer loop
      vertex 35 8 0
      vertex 30 8 2
      vertex 35 8 2
    endloop
  endfacet
  facet normal 0 1 0
    outer loop
      vertex 30 8 2
      vertex 35 8 0
      vertex 30 8 0
    endloop
  endfacet
  facet normal 1 -0 0
    outer loop
      vertex 37 8 2
      vertex 37 12 0
      vertex 37 12 2
    endloop
  endfacet
  facet normal 1 0 0
    outer loop
      vertex 37 12 0
      vertex 37 8 2
      vertex 37 8 0
    endloop
  endfacet
  facet normal -1 0 0
    outer loop
      vertex 42 8 0
      vertex 42 12 2
      vertex 42 12 0
    endloop
  endfacet
  facet normal -1 -0 0
    outer loop
      vertex 42 12 2
      vertex 42 8 0
      vertex 42 8 2
    endloop
  endfacet
  facet normal 0 -1 0
    outer loop
      vertex 37 12 0
      vertex 42 12 2
      vertex 37 12 2
    endloop
  endfacet
  facet normal 0 -1 -0
    outer loop
      vertex 42 12 2
      vertex 37 12 0
      vertex 42 12 0
    endloop
  endfacet
  facet normal 0 1 -0
    outer loop
      vertex 42 8 0
      vertex 37 8 2
      vertex 42 8 2
    endloop
  endfacet
  facet normal 0 1 0
    outer loop
      vertex 37 8 2
      vertex 42 8 0
      vertex 37 8 0
    endloop
  endfacet
  facet normal 1 -0 0
    outer loop
      vertex 44 8 2
      vertex 44 12 0
      vertex 44 12 2
    endloop
  endfacet
  facet normal 1 0 0
    outer loop
      vertex 44 12 0
      vertex 44 8 2
      vertex 44 8 0
    endloop
  endfacet
  facet normal -1 0 0
    outer loop
      vertex 49 8 0
      vertex 49 12 2
      vertex 49 12 0
    endloop
  endfacet
  facet normal -1 -0 0
    outer loop
      vertex 49 12 2
      vertex 49 8 0
      vertex 49 8 2
    endloop
  endfacet
  facet normal 0 -1 0
    outer loop
      vertex 44 12 0
      vertex 49 12 2
      vertex 44 12 2
    endloop
  endfacet
  facet normal 0 -1 -0
    outer loop
      vertex 49 12 2
      vertex 44 12 0
      vertex 49 12 0
    endloop
  endfacet
  facet normal 0 1 -0
    outer loop
      vertex 49 8 0
      vertex 44 8 2
      vertex 49 8 2
    endloop
  endfacet
  facet normal 0 1 0
    outer loop
      vertex 44 8 2
      vertex 49 8 0
      vertex 44 8 0
    endloop
  endfacet
  facet normal 1 -0 0
    outer loop
      vertex 51 8 2
      vertex 51 12 0
      vertex 51 12 2
    endloop
  endfacet
  facet normal 1 0 0
    outer loop
      vertex 51 12 0
      vertex 51 8 2
      vertex 51 8 0
    endloop
  endfacet
  facet normal -1 0 0
    outer loop
      vertex 56 8 0
      vertex 56 12 2
      vertex 56 12 0
    endloop
  endfacet
  facet normal -1 -0 0
    outer loop
      vertex 56 12 2
      vertex 56 8 0
      vertex 56 8 2
    endloop
  endfacet
  facet normal 0 -1 0
    outer loop
      vertex 51 12 0
      vertex 56 12 2
      vertex 51 12 2
    endloop
  endfacet
  facet normal 0 -1 -0
    outer loop
      vertex 56 12 2
      vertex 51 12 0
      vertex 56 12 0
    endloop
  endfacet
  facet normal 0 1 -0
    outer loop
      vertex 56 8 0
      vertex 51 8 2
      vertex 56 8 2
    endloop
  endfacet
  facet normal 0 1 0
    outer loop
      vertex 51 8 2
      vertex 56 8 0
      vertex 51 8 0
    endloop
  endfacet
  facet normal 1 -0 0
    outer loop
      vertex 58 8 2
      vertex 58 12 0
      vertex 58 12 2
    endloop
  endfacet
  facet normal 1 0 0
    outer loop
      vertex 58 12 0
      vertex 58 8 2
      vertex 58 8 0
    endloop
  endfacet
  facet normal -1 0 0
    outer loop
      vertex 63 8 0
      vertex 63 12 2
      vertex 63 12 0
    endloop
  endfacet
  facet normal -1 -0 0
    outer loop
      vertex 63 12 2
      vertex 63 8 0
      vertex 63 8 2
    endloop
  endfacet
  facet normal 0 1 -0
    outer loop
      vertex 63 8 0
      vertex 58 8 2
      vertex 63 8 2
    endloop
  endfacet
  facet normal 0 1 0
    outer loop
      vertex 58 8 2
      vertex 63 8 0
      vertex 58 8 0
    endloop
  endfacet
  facet normal 0 -1 0
    outer loop
      vertex 58 12 0
      vertex 63 12 2
      vertex 58 12 2
    endloop
  endfacet
  facet normal 0 -1 -0
    outer loop
      vertex 63 12 2
      vertex 58 12 0
      vertex 63 12 0
    endloop
  endfacet
  facet normal -1 0 0
    outer loop
      vertex 0 0 0
      vertex 0 20 2
      vertex 0 20 0
    endloop
  endfacet
  facet normal -1 -0 0
    outer loop
      vertex 0 20 2
      vertex 0 0 0
      vertex 0 0 2
    endloop
  endfacet
  facet normal 0 0 1
    outer loop
      vertex 65 20 2
      vertex 63 12 2
      vertex 65 0 2
    endloop
  endfacet
  facet normal 0 0 1
    outer loop
      vertex 65 20 2
      vertex 58 12 2
      vertex 63 12 2
    endloop
  endfacet
  facet normal 0 0 1
    outer loop
      vertex 58 12 2
      vertex 56 12 2
      vertex 58 8 2
    endloop
  endfacet
  facet normal 0 0 1
    outer loop
      vertex 65 20 2
      vertex 56 12 2
      vertex 58 12 2
    endloop
  endfacet
  facet normal 0 0 1
    outer loop
      vertex 65 20 2
      vertex 51 12 2
      vertex 56 12 2
    endloop
  endfacet
  facet normal 0 0 1
    outer loop
      vertex 51 12 2
      vertex 49 12 2
      vertex 51 8 2
    endloop
  endfacet
  facet normal 0 0 1
    outer loop
      vertex 65 20 2
      vertex 49 12 2
      vertex 51 12 2
    endloop
  endfacet
  facet normal 0 0 1
    outer loop
      vertex 65 20 2
      vertex 44 12 2
      vertex 49 12 2
    endloop
  endfacet
  facet normal 0 0 1
    outer loop
      vertex 44 12 2
      vertex 42 12 2
      vertex 44 8 2
    endloop
  endfacet
  facet normal 0 0 1
    outer loop
      vertex 65 20 2
      vertex 42 12 2
      vertex 44 12 2
    endloop
  endfacet
  facet normal 0 0 1
    outer loop
      vertex 65 20 2
      vertex 37 12 2
      vertex 42 12 2
    endloop
  endfacet
  facet normal 0 0 1
    outer loop
      vertex 37 12 2
      vertex 35 12 2
      vertex 37 8 2
    endloop
  endfacet
  facet normal 0 0 1
    outer loop
      vertex 65 20 2
      vertex 35 12 2
      vertex 37 12 2
    endloop
  endfacet
  facet normal 0 0 1
    outer loop
      vertex 65 20 2
      vertex 30 12 2
      vertex 35 12 2
    endloop
  endfacet
  facet normal 0 0 1
    outer loop
      vertex 30 12 2
      vertex 28 12 2
      vertex 30 8 2
    endloop
  endfacet
  facet normal -0 0 1
    outer loop
      vertex 0 20 2
      vertex 30 12 2
      vertex 65 20 2
    endloop
  endfacet
  facet normal 0 0 1
    outer loop
      vertex 30 12 2
      vertex 0 20 2
      vertex 28 12 2
    endloop
  endfacet
  facet normal 0 0 1
    outer loop
      vertex 23 12 2
      vertex 21 12 2
      vertex 23 8 2
    endloop
  endfacet
  facet normal 0 0 1
    outer loop
      vertex 28 12 2
      vertex 0 20 2
      vertex 23 12 2
    endloop
  endfacet
  facet normal 0 0 1
    outer loop
      vertex 23 12 2
      vertex 0 20 2
      vertex 21 12 2
    endloop
  endfacet
  facet normal 0 0 1
    outer loop
      vertex 16 12 2
      vertex 14 12 2
      vertex 16 8 2
    endloop
  endfacet
  facet normal 0 0 1
    outer loop
      vertex 21 12 2
      vertex 0 20 2
      vertex 16 12 2
    endloop
  endfacet
  facet normal 0 0 1
    outer loop
      vertex 16 12 2
      vertex 0 20 2
      vertex 14 12 2
    endloop
  endfacet
  facet normal 0 0 1
    outer loop
      vertex 9 12 2
      vertex 7 12 2
      vertex 9 8 2
    endloop
  endfacet
  facet normal 0 0 1
    outer loop
      vertex 14 12 2
      vertex 0 20 2
      vertex 9 12 2
    endloop
  endfacet
  facet normal 0 0 1
    outer loop
      vertex 9 12 2
      vertex 0 20 2
      vertex 7 12 2
    endloop
  endfacet
  facet normal 0 0 1
    outer loop
      vertex 2 12 2
      vertex 0 20 2
      vertex 2 8 2
    endloop
  endfacet
  facet normal 0 0 1
    outer loop
      vertex 7 12 2
      vertex 0 20 2
      vertex 2 12 2
    endloop
  endfacet
  facet normal -0 0 1
    outer loop
      vertex 63 8 2
      vertex 65 0 2
      vertex 63 12 2
    endloop
  endfacet
  facet normal -0 0 1
    outer loop
      vertex 58 8 2
      vertex 65 0 2
      vertex 63 8 2
    endloop
  endfacet
  facet normal 0 0 1
    outer loop
      vertex 56 8 2
      vertex 58 8 2
      vertex 56 12 2
    endloop
  endfacet
  facet normal -0 0 1
    outer loop
      vertex 56 8 2
      vertex 65 0 2
      vertex 58 8 2
    endloop
  endfacet
  facet normal -0 0 1
    outer loop
      vertex 51 8 2
      vertex 65 0 2
      vertex 56 8 2
    endloop
  endfacet
  facet normal 0 0 1
    outer loop
      vertex 49 8 2
      vertex 51 8 2
      vertex 49 12 2
    endloop
  endfacet
  facet normal -0 0 1
    outer loop
      vertex 49 8 2
      vertex 65 0 2
      vertex 51 8 2
    endloop
  endfacet
  facet normal -0 0 1
    outer loop
      vertex 44 8 2
      vertex 65 0 2
      vertex 49 8 2
    endloop
  endfacet
  facet normal 0 0 1
    outer loop
      vertex 42 8 2
      vertex 44 8 2
      vertex 42 12 2
    endloop
  endfacet
  facet normal -0 0 1
    outer loop
      vertex 42 8 2
      vertex 65 0 2
      vertex 44 8 2
    endloop
  endfacet
  facet normal -0 0 1
    outer loop
      vertex 37 8 2
      vertex 65 0 2
      vertex 42 8 2
    endloop
  endfacet
  facet normal 0 0 1
    outer loop
      vertex 35 8 2
      vertex 37 8 2
      vertex 35 12 2
    endloop
  endfacet
  facet normal -0 0 1
    outer loop
      vertex 35 8 2
      vertex 65 0 2
      vertex 37 8 2
    endloop
  endfacet
  facet normal -0 0 1
    outer loop
      vertex 30 8 2
      vertex 65 0 2
      vertex 35 8 2
    endloop
  endfacet
  facet normal 0 0 1
    outer loop
      vertex 28 8 2
      vertex 30 8 2
      vertex 28 12 2
    endloop
  endfacet
  facet normal 0 0 1
    outer loop
      vertex 0 0 2
      vertex 30 8 2
      vertex 28 8 2
    endloop
  endfacet
  facet normal 0 0 1
    outer loop
      vertex 0 0 2
      vertex 28 8 2
      vertex 23 8 2
    endloop
  endfacet
  facet normal 0 0 1
    outer loop
      vertex 21 8 2
      vertex 23 8 2
      vertex 21 12 2
    endloop
  endfacet
  facet normal 0 0 1
    outer loop
      vertex 0 0 2
      vertex 23 8 2
      vertex 21 8 2
    endloop
  endfacet
  facet normal 0 0 1
    outer loop
      vertex 0 0 2
      vertex 21 8 2
      vertex 16 8 2
    endloop
  endfacet
  facet normal 0 0 1
    outer loop
      vertex 14 8 2
      vertex 16 8 2
      vertex 14 12 2
    endloop
  endfacet
  facet normal 0 0 1
    outer loop
      vertex 0 0 2
      vertex 16 8 2
      vertex 14 8 2
    endloop
  endfacet
  facet normal 0 0 1
    outer loop
      vertex 0 0 2
      vertex 14 8 2
      vertex 9 8 2
    endloop
  endfacet
  facet normal 0 0 1
    outer loop
      vertex 7 8 2
      vertex 9 8 2
      vertex 7 12 2
    endloop
  endfacet
  facet normal 0 0 1
    outer loop
      vertex 0 0 2
      vertex 9 8 2
      vertex 7 8 2
    endloop
  endfacet
  facet normal 0 0 1
    outer loop
      vertex 0 0 2
      vertex 7 8 2
      vertex 2 8 2
    endloop
  endfacet
  facet normal 0 0 1
    outer loop
      vertex 30 8 2
      vertex 0 0 2
      vertex 65 0 2
    endloop
  endfacet
  facet normal 0 0 1
    outer loop
      vertex 0 0 2
      vertex 2 8 2
      vertex 0 20 2
    endloop
  endfacet
  facet normal 1 -0 0
    outer loop
      vertex 65 0 2
      vertex 65 20 0
      vertex 65 20 2
    endloop
  endfacet
  facet normal 1 0 0
    outer loop
      vertex 65 20 0
      vertex 65 0 2
      vertex 65 0 0
    endloop
  endfacet
  facet normal 0 1 -0
    outer loop
      vertex 65 20 0
      vertex 0 20 2
      vertex 65 20 2
    endloop
  endfacet
  facet normal 0 1 0
    outer loop
      vertex 0 20 2
      vertex 65 20 0
      vertex 0 20 0
    endloop
  endfacet
  facet normal 0 0 -1
    outer loop
      vertex 65 0 0
      vertex 63 8 0
      vertex 65 20 0
    endloop
  endfacet
  facet normal 0 0 -1
    outer loop
      vertex 65 0 0
      vertex 58 8 0
      vertex 63 8 0
    endloop
  endfacet
  facet normal 0 0 -1
    outer loop
      vertex 58 8 0
      vertex 56 8 0
      vertex 58 12 0
    endloop
  endfacet
  facet normal 0 0 -1
    outer loop
      vertex 65 0 0
      vertex 56 8 0
      vertex 58 8 0
    endloop
  endfacet
  facet normal 0 0 -1
    outer loop
      vertex 65 0 0
      vertex 51 8 0
      vertex 56 8 0
    endloop
  endfacet
  facet normal 0 0 -1
    outer loop
      vertex 51 8 0
      vertex 49 8 0
      vertex 51 12 0
    endloop
  endfacet
  facet normal 0 0 -1
    outer loop
      vertex 65 0 0
      vertex 49 8 0
      vertex 51 8 0
    endloop
  endfacet
  facet normal 0 0 -1
    outer loop
      vertex 65 0 0
      vertex 44 8 0
      vertex 49 8 0
    endloop
  endfacet
  facet normal 0 0 -1
    outer loop
      vertex 44 8 0
      vertex 42 8 0
      vertex 44 12 0
    endloop
  endfacet
  facet normal 0 0 -1
    outer loop
      vertex 65 0 0
      vertex 42 8 0
      vertex 44 8 0
    endloop
  endfacet
  facet normal 0 0 -1
    outer loop
      vertex 65 0 0
      vertex 37 8 0
      vertex 42 8 0
    endloop
  endfacet
  facet normal 0 0 -1
    outer loop
      vertex 37 8 0
      vertex 35 8 0
      vertex 37 12 0
    endloop
  endfacet
  facet normal 0 0 -1
    outer loop
      vertex 65 0 0
      vertex 35 8 0
      vertex 37 8 0
    endloop
  endfacet
  facet normal 0 0 -1
    outer loop
      vertex 65 0 0
      vertex 30 8 0
      vertex 35 8 0
    endloop
  endfacet
  facet normal 0 0 -1
    outer loop
      vertex 30 8 0
      vertex 28 8 0
      vertex 30 12 0
    endloop
  endfacet
  facet normal 0 0 -1
    outer loop
      vertex 0 0 0
      vertex 30 8 0
      vertex 65 0 0
    endloop
  endfacet
  facet normal -0 0 -1
    outer loop
      vertex 30 8 0
      vertex 0 0 0
      vertex 28 8 0
    endloop
  endfacet
  facet normal 0 0 -1
    outer loop
      vertex 23 8 0
      vertex 21 8 0
      vertex 23 12 0
    endloop
  endfacet
  facet normal -0 0 -1
    outer loop
      vertex 28 8 0
      vertex 0 0 0
      vertex 23 8 0
    endloop
  endfacet
  facet normal -0 0 -1
    outer loop
      vertex 23 8 0
      vertex 0 0 0
      vertex 21 8 0
    endloop
  endfacet
  facet normal 0 0 -1
    outer loop
      vertex 16 8 0
      vertex 14 8 0
      vertex 16 12 0
    endloop
  endfacet
  facet normal -0 0 -1
    outer loop
      vertex 21 8 0
      vertex 0 0 0
      vertex 16 8 0
    endloop
  endfacet
  facet normal -0 0 -1
    outer loop
      vertex 16 8 0
      vertex 0 0 0
      vertex 14 8 0
    endloop
  endfacet
  facet normal 0 0 -1
    outer loop
      vertex 9 8 0
      vertex 7 8 0
      vertex 9 12 0
    endloop
  endfacet
  facet normal -0 0 -1
    outer loop
      vertex 14 8 0
      vertex 0 0 0
      vertex 9 8 0
    endloop
  endfacet
  facet normal -0 0 -1
    outer loop
      vertex 9 8 0
      vertex 0 0 0
      vertex 7 8 0
    endloop
  endfacet
  facet normal -0 0 -1
    outer loop
      vertex 2 8 0
      vertex 0 0 0
      vertex 2 12 0
    endloop
  endfacet
  facet normal -0 0 -1
    outer loop
      vertex 7 8 0
      vertex 0 0 0
      vertex 2 8 0
    endloop
  endfacet
  facet normal 0 0 -1
    outer loop
      vertex 63 12 0
      vertex 65 20 0
      vertex 63 8 0
    endloop
  endfacet
  facet normal 0 0 -1
    outer loop
      vertex 58 12 0
      vertex 65 20 0
      vertex 63 12 0
    endloop
  endfacet
  facet normal 0 0 -1
    outer loop
      vertex 56 12 0
      vertex 58 12 0
      vertex 56 8 0
    endloop
  endfacet
  facet normal 0 0 -1
    outer loop
      vertex 56 12 0
      vertex 65 20 0
      vertex 58 12 0
    endloop
  endfacet
  facet normal 0 0 -1
    outer loop
      vertex 51 12 0
      vertex 65 20 0
      vertex 56 12 0
    endloop
  endfacet
  facet normal 0 0 -1
    outer loop
      vertex 49 12 0
      vertex 51 12 0
      vertex 49 8 0
    endloop
  endfacet
  facet normal 0 0 -1
    outer loop
      vertex 49 12 0
      vertex 65 20 0
      vertex 51 12 0
    endloop
  endfacet
  facet normal 0 0 -1
    outer loop
      vertex 44 12 0
      vertex 65 20 0
      vertex 49 12 0
    endloop
  endfacet
  facet normal 0 0 -1
    outer loop
      vertex 42 12 0
      vertex 44 12 0
      vertex 42 8 0
    endloop
  endfacet
  facet normal 0 0 -1
    outer loop
      vertex 42 12 0
      vertex 65 20 0
      vertex 44 12 0
    endloop
  endfacet
  facet normal 0 0 -1
    outer loop
      vertex 37 12 0
      vertex 65 20 0
      vertex 42 12 0
    endloop
  endfacet
  facet normal 0 0 -1
    outer loop
      vertex 35 12 0
      vertex 37 12 0
      vertex 35 8 0
    endloop
  endfacet
  facet normal 0 0 -1
    outer loop
      vertex 35 12 0
      vertex 65 20 0
      vertex 37 12 0
    endloop
  endfacet
  facet normal 0 0 -1
    outer loop
      vertex 30 12 0
      vertex 65 20 0
      vertex 35 12 0
    endloop
  endfacet
  facet normal 0 0 -1
    outer loop
      vertex 28 12 0
      vertex 30 12 0
      vertex 28 8 0
    endloop
  endfacet
  facet normal 0 0 -1
    outer loop
      vertex 0 20 0
      vertex 30 12 0
      vertex 28 12 0
    endloop
  endfacet
  facet normal 0 0 -1
    outer loop
      vertex 0 20 0
      vertex 28 12 0
      vertex 23 12 0
    endloop
  endfacet
  facet normal 0 0 -1
    outer loop
      vertex 21 12 0
      vertex 23 12 0
      vertex 21 8 0
    endloop
  endfacet
  facet normal 0 0 -1
    outer loop
      vertex 0 20 0
      vertex 23 12 0
      vertex 21 12 0
    endloop
  endfacet
  facet normal 0 0 -1
    outer loop
      vertex 0 20 0
      vertex 21 12 0
      vertex 16 12 0
    endloop
  endfacet
  facet normal 0 0 -1
    outer loop
      vertex 14 12 0
      vertex 16 12 0
      vertex 14 8 0
    endloop
  endfacet
  facet normal 0 0 -1
    outer loop
      vertex 0 20 0
      vertex 16 12 0
      vertex 14 12 0
    endloop
  endfacet
  facet normal 0 0 -1
    outer loop
      vertex 0 20 0
      vertex 14 12 0
      vertex 9 12 0
    endloop
  endfacet
  facet normal 0 0 -1
    outer loop
      vertex 7 12 0
      vertex 9 12 0
      vertex 7 8 0
    endloop
  endfacet
  facet normal 0 0 -1
    outer loop
      vertex 0 20 0
      vertex 9 12 0
      vertex 7 12 0
    endloop
  endfacet
  facet normal 0 0 -1
    outer loop
      vertex 0 20 0
      vertex 7 12 0
      vertex 2 12 0
    endloop
  endfacet
  facet normal 0 0 -1
    outer loop
      vertex 30 12 0
      vertex 0 20 0
      vertex 65 20 0
    endloop
  endfacet
  facet normal 0 0 -1
    outer loop
      vertex 0 20 0
      vertex 2 12 0
      vertex 0 0 0
    endloop
  endfacet
  facet normal 0 -1 0
    outer loop
      vertex 0 0 0
      vertex 65 0 2
      vertex 0 0 2
    endloop
  endfacet
  facet normal 0 -1 -0
    outer loop
      vertex 65 0 2
      vertex 0 0 0
      vertex 65 0 0
    endloop
  endfacet
endsolid OpenSCAD_Model
