solid OpenSCAD_Model
  facet normal 0 0 -1
    outer loop
      vertex 220 0 -0.2
      vertex 219.5 0.5 -0.2
      vertex 220 60 -0.2
    endloop
  endfacet
  facet normal 0 0 -1
    outer loop
      vertex 220 0 -0.2
      vertex 0.5 0.5 -0.2
      vertex 219.5 0.5 -0.2
    endloop
  endfacet
  facet normal -0 0 -1
    outer loop
      vertex 0.5 0.5 -0.2
      vertex 0 0 -0.2
      vertex 0.5 59.5 -0.2
    endloop
  endfacet
  facet normal 0 0 -1
    outer loop
      vertex 0 0 -0.2
      vertex 0.5 0.5 -0.2
      vertex 220 0 -0.2
    endloop
  endfacet
  facet normal 0 0 -1
    outer loop
      vertex 219.5 59.5 -0.2
      vertex 220 60 -0.2
      vertex 219.5 0.5 -0.2
    endloop
  endfacet
  facet normal 0 0 -1
    outer loop
      vertex 0.5 59.5 -0.2
      vertex 220 60 -0.2
      vertex 219.5 59.5 -0.2
    endloop
  endfacet
  facet normal 0 0 -1
    outer loop
      vertex 0.5 59.5 -0.2
      vertex 0 60 -0.2
      vertex 220 60 -0.2
    endloop
  endfacet
  facet normal 0 0 -1
    outer loop
      vertex 0 60 -0.2
      vertex 0.5 59.5 -0.2
      vertex 0 0 -0.2
    endloop
  endfacet
  facet normal 1 -0 0
    outer loop
      vertex 220 0 0.2
      vertex 220 60 -0.2
      vertex 220 60 0.2
    endloop
  endfacet
  facet normal 1 0 0
    outer loop
      vertex 220 60 -0.2
      vertex 220 0 0.2
      vertex 220 0 -0.2
    endloop
  endfacet
  facet normal -1 0 0
    outer loop
      vertex 0 0 -0.2
      vertex 0 60 0.2
      vertex 0 60 -0.2
    endloop
  endfacet
  facet normal -1 -0 0
    outer loop
      vertex 0 60 0.2
      vertex 0 0 -0.2
      vertex 0 0 0.2
    endloop
  endfacet
  facet normal 0 -1 0
    outer loop
      vertex 0 0 -0.2
      vertex 220 0 0.2
      vertex 0 0 0.2
    endloop
  endfacet
  facet normal 0 -1 -0
    outer loop
      vertex 220 0 0.2
      vertex 0 0 -0.2
      vertex 220 0 -0.2
    endloop
  endfacet
  facet normal 0 1 -0
    outer loop
      vertex 220 60 -0.2
      vertex 0 60 0.2
      vertex 220 60 0.2
    endloop
  endfacet
  facet normal 0 1 0
    outer loop
      vertex 0 60 0.2
      vertex 220 60 -0.2
      vertex 0 60 -0.2
    endloop
  endfacet
  facet normal 0 0 1
    outer loop
      vertex 220 60 0.2
      vertex 219.5 59.5 0.2
      vertex 220 0 0.2
    endloop
  endfacet
  facet normal 0 0 1
    outer loop
      vertex 220 60 0.2
      vertex 0.5 59.5 0.2
      vertex 219.5 59.5 0.2
    endloop
  endfacet
  facet normal 0 0 1
    outer loop
      vertex 0.5 59.5 0.2
      vertex 0 60 0.2
      vertex 0.5 0.5 0.2
    endloop
  endfacet
  facet normal -0 0 1
    outer loop
      vertex 0 60 0.2
      vertex 0.5 59.5 0.2
      vertex 220 60 0.2
    endloop
  endfacet
  facet normal -0 0 1
    outer loop
      vertex 219.5 0.5 0.2
      vertex 220 0 0.2
      vertex 219.5 59.5 0.2
    endloop
  endfacet
  facet normal -0 0 1
    outer loop
      vertex 0.5 0.5 0.2
      vertex 220 0 0.2
      vertex 219.5 0.5 0.2
    endloop
  endfacet
  facet normal 0 0 1
    outer loop
      vertex 0.5 0.5 0.2
      vertex 0 0 0.2
      vertex 220 0 0.2
    endloop
  endfacet
  facet normal 0 0 1
    outer loop
      vertex 0 0 0.2
      vertex 0.5 0.5 0.2
      vertex 0 60 0.2
    endloop
  endfacet
  facet normal -1 0 0
    outer loop
      vertex 219.5 0.5 -0.2
      vertex 219.5 59.5 0.2
      vertex 219.5 59.5 -0.2
    endloop
  endfacet
  facet normal -1 -0 0
    outer loop
      vertex 219.5 59.5 0.2
      vertex 219.5 0.5 -0.2
      vertex 219.5 0.5 0.2
    endloop
  endfacet
  facet normal 1 -0 0
    outer loop
      vertex 0.5 0.5 0.2
      vertex 0.5 59.5 -0.2
      vertex 0.5 59.5 0.2
    endloop
  endfacet
  facet normal 1 0 0
    outer loop
      vertex 0.5 59.5 -0.2
      vertex 0.5 0.5 0.2
      vertex 0.5 0.5 -0.2
    endloop
  endfacet
  facet normal 0 1 -0
    outer loop
      vertex 219.5 0.5 -0.2
      vertex 0.5 0.5 0.2
      vertex 219.5 0.5 0.2
    endloop
  endfacet
  facet normal 0 1 0
    outer loop
      vertex 0.5 0.5 0.2
      vertex 219.5 0.5 -0.2
      vertex 0.5 0.5 -0.2
    endloop
  endfacet
  facet normal 0 -1 0
    outer loop
      vertex 0.5 59.5 -0.2
      vertex 219.5 59.5 0.2
      vertex 0.5 59.5 0.2
    endloop
  endfacet
  facet normal 0 -1 -0
    outer loop
      vertex 219.5 59.5 0.2
      vertex 0.5 59.5 -0.2
      vertex 219.5 59.5 -0.2
    endloop
  endfacet
endsolid OpenSCAD_Model
