solid OpenSCAD_Model
  facet normal 0 1 0
    outer loop
      vertex -6.66134e-16 6 15.99
      vertex -6.66134e-16 6 17.99
      vertex 0.0142129 6 15.99
    endloop
  endfacet
  facet normal 0 1 0
    outer loop
      vertex -6.66134e-16 6 17.99
      vertex -6.66134e-16 6 15.99
      vertex -1 6 16
    endloop
  endfacet
  facet normal 0 1 0
    outer loop
      vertex -1 6 16
      vertex -6.66134e-16 6 15.99
      vertex -1 6 15.99
    endloop
  endfacet
  facet normal 0 1 0
    outer loop
      vertex 1.01421 6 16.99
      vertex -6.66134e-16 6 17.99
      vertex 0.0142129 6 17.99
    endloop
  endfacet
  facet normal 0 1 -0
    outer loop
      vertex 0.0142129 6 15.99
      vertex -6.66134e-16 6 17.99
      vertex 1.01421 6 16.99
    endloop
  endfacet
  facet normal 0 1 0
    outer loop
      vertex -6.66134e-16 6 17.99
      vertex -1 6 16
      vertex -2 6 17.99
    endloop
  endfacet
  facet normal 0 1 -0
    outer loop
      vertex -1.99 6 16
      vertex -2 6 17.99
      vertex -1 6 16
    endloop
  endfacet
  facet normal 0 1 0
    outer loop
      vertex -2 6 15.99
      vertex -1.99 6 16
      vertex -1.99 6 15.99
    endloop
  endfacet
  facet normal 0 1 0
    outer loop
      vertex -1.99 6 16
      vertex -2 6 15.99
      vertex -2 6 17.99
    endloop
  endfacet
  facet normal 2.22045e-16 -1 -3.71637e-32
    outer loop
      vertex -1 0 16
      vertex 6.66134e-16 2.22045e-16 17.99
      vertex -2 -2.22045e-16 17.99
    endloop
  endfacet
  facet normal 2.22045e-16 -1 -7.43581e-32
    outer loop
      vertex 0.00999928 2.24265e-16 16
      vertex 6.66134e-16 2.22045e-16 17.99
      vertex -1 0 16
    endloop
  endfacet
  facet normal 2.22044e-16 -1 -3.21682e-24
    outer loop
      vertex 6.66134e-16 2.22045e-16 17.99
      vertex 0.00999928 2.24265e-16 16
      vertex 0.0142129 2.252e-16 17.99
    endloop
  endfacet
  facet normal 2.22045e-16 -1 0
    outer loop
      vertex -2 -2.22045e-16 15.99
      vertex -1 0 16
      vertex -2 -2.22045e-16 17.99
    endloop
  endfacet
  facet normal 2.22045e-16 -1 0
    outer loop
      vertex -1 0 16
      vertex -2 -2.22045e-16 15.99
      vertex -1 0 15.99
    endloop
  endfacet
  facet normal 2.22045e-16 -1 -4.58192e-24
    outer loop
      vertex 0.0142129 2.252e-16 17.99
      vertex 0.00999928 2.24265e-16 16
      vertex 1.01421 4.47245e-16 16.99
    endloop
  endfacet
  facet normal 2.22042e-16 -1 0
    outer loop
      vertex 0.0142129 2.252e-16 15.99
      vertex 0.00999928 2.24265e-16 16
      vertex 0.00999928 2.24265e-16 15.99
    endloop
  endfacet
  facet normal 2.22044e-16 -1 6.42847e-22
    outer loop
      vertex 0.00999928 2.24265e-16 16
      vertex 0.0142129 2.252e-16 15.99
      vertex 1.01421 4.47245e-16 16.99
    endloop
  endfacet
  facet normal 0.707107 0 0.707107
    outer loop
      vertex 0.0142129 6 17.99
      vertex 1.01421 4.47245e-16 16.99
      vertex 1.01421 6 16.99
    endloop
  endfacet
  facet normal 0.707107 0 0.707107
    outer loop
      vertex 1.01421 4.47245e-16 16.99
      vertex 0.0142129 6 17.99
      vertex 0.0142129 2.252e-16 17.99
    endloop
  endfacet
  facet normal 0.707107 0 -0.707107
    outer loop
      vertex 0.0142129 2.252e-16 15.99
      vertex 1.01421 6 16.99
      vertex 1.01421 4.47245e-16 16.99
    endloop
  endfacet
  facet normal 0.707107 0 -0.707107
    outer loop
      vertex 1.01421 6 16.99
      vertex 0.0142129 2.252e-16 15.99
      vertex 0.0142129 6 15.99
    endloop
  endfacet
  facet normal -0 0 1
    outer loop
      vertex -2 6 17.99
      vertex 6.66134e-16 2.22045e-16 17.99
      vertex -6.66134e-16 6 17.99
    endloop
  endfacet
  facet normal 0 0 1
    outer loop
      vertex 6.66134e-16 2.22045e-16 17.99
      vertex -2 6 17.99
      vertex -2 -2.22045e-16 17.99
    endloop
  endfacet
  facet normal 0 0 1
    outer loop
      vertex 0.0142129 6 17.99
      vertex 6.66134e-16 2.22045e-16 17.99
      vertex 0.0142129 2.252e-16 17.99
    endloop
  endfacet
  facet normal 0 -0 1
    outer loop
      vertex 6.66134e-16 2.22045e-16 17.99
      vertex 0.0142129 6 17.99
      vertex -6.66134e-16 6 17.99
    endloop
  endfacet
  facet normal 0 0 -1
    outer loop
      vertex -2 -2.22045e-16 15.99
      vertex -1.99 0 15.99
      vertex -1 0 15.99
    endloop
  endfacet
  facet normal 0 0 -1
    outer loop
      vertex -2 -2.22045e-16 15.99
      vertex -1.99 6 15.99
      vertex -1.99 0 15.99
    endloop
  endfacet
  facet normal -0 0 -1
    outer loop
      vertex -1.99 6 15.99
      vertex -2 -2.22045e-16 15.99
      vertex -2 6 15.99
    endloop
  endfacet
  facet normal 0 0 -1
    outer loop
      vertex 0.00999928 2.24265e-16 15.99
      vertex 0.0142129 6 15.99
      vertex 0.0142129 2.252e-16 15.99
    endloop
  endfacet
  facet normal -0 0 -1
    outer loop
      vertex 0.0142129 6 15.99
      vertex 0.00999928 2.24265e-16 15.99
      vertex 0.00999928 6 15.99
    endloop
  endfacet
  facet normal 0 0 0
    outer loop
      vertex 0.0142129 6 15.99
      vertex 0.00999928 6 15.99
      vertex -6.66134e-16 6 15.99
    endloop
  endfacet
  facet normal -1 0 0
    outer loop
      vertex -2 -2.22045e-16 15.99
      vertex -2 6 17.99
      vertex -2 6 15.99
    endloop
  endfacet
  facet normal -1 -0 0
    outer loop
      vertex -2 6 17.99
      vertex -2 -2.22045e-16 15.99
      vertex -2 -2.22045e-16 17.99
    endloop
  endfacet
  facet normal -1 0 0
    outer loop
      vertex 22.5 34.8 1
      vertex 22.5 36.79 0
      vertex 22.5 34.8 0
    endloop
  endfacet
  facet normal -1 0 0
    outer loop
      vertex 22.5 36.79 15.99
      vertex 22.5 36.8 17.99
      vertex 22.5 36.8 15.99
    endloop
  endfacet
  facet normal -1 0 0
    outer loop
      vertex 22.5 36.79 0
      vertex 22.5 34.8 1
      vertex 22.5 36.79 15.99
    endloop
  endfacet
  facet normal -1 0 0
    outer loop
      vertex 22.5 34.79 15.99
      vertex 22.5 36.79 15.99
      vertex 22.5 34.8 1
    endloop
  endfacet
  facet normal -1 0 0
    outer loop
      vertex 22.5 36.79 15.99
      vertex 22.5 34.79 15.99
      vertex 22.5 36.8 17.99
    endloop
  endfacet
  facet normal -1 0 0
    outer loop
      vertex 22.5 34.79 15.99
      vertex 22.5 34.8 1
      vertex 22.5 34.79 1
    endloop
  endfacet
  facet normal -1 -0 0
    outer loop
      vertex 22.5 36.8 17.99
      vertex 22.5 34.79 15.99
      vertex 22.5 34.8 17.99
    endloop
  endfacet
  facet normal -1 0 0
    outer loop
      vertex 22.5 34.7858 15.99
      vertex 22.5 34.8 17.99
      vertex 22.5 34.79 15.99
    endloop
  endfacet
  facet normal -1 0 0
    outer loop
      vertex 22.5 34.7858 15.99
      vertex 22.5 34.7858 17.99
      vertex 22.5 34.8 17.99
    endloop
  endfacet
  facet normal -1 0 -0
    outer loop
      vertex 22.5 34.7858 17.99
      vertex 22.5 34.7858 15.99
      vertex 22.5 33.7858 16.99
    endloop
  endfacet
  facet normal 1 0 0
    outer loop
      vertex 28.5 36.79 15.99
      vertex 28.5 34.79 15.99
      vertex 28.5 34.8 1
    endloop
  endfacet
  facet normal 1 -0 0
    outer loop
      vertex 28.5 34.7858 17.99
      vertex 28.5 34.79 15.99
      vertex 28.5 34.8 17.99
    endloop
  endfacet
  facet normal 1 0 0
    outer loop
      vertex 28.5 34.7858 17.99
      vertex 28.5 34.7858 15.99
      vertex 28.5 34.79 15.99
    endloop
  endfacet
  facet normal 1 0 -0
    outer loop
      vertex 28.5 34.7858 15.99
      vertex 28.5 34.7858 17.99
      vertex 28.5 33.7858 16.99
    endloop
  endfacet
  facet normal 1 0 0
    outer loop
      vertex 28.5 36.8 17.99
      vertex 28.5 36.79 15.99
      vertex 28.5 36.8 15.99
    endloop
  endfacet
  facet normal 1 -0 0
    outer loop
      vertex 28.5 34.8 17.99
      vertex 28.5 36.79 15.99
      vertex 28.5 36.8 17.99
    endloop
  endfacet
  facet normal 1 0 0
    outer loop
      vertex 28.5 34.79 15.99
      vertex 28.5 36.79 15.99
      vertex 28.5 34.8 17.99
    endloop
  endfacet
  facet normal 1 0 0
    outer loop
      vertex 28.5 36.79 15.99
      vertex 28.5 34.8 1
      vertex 28.5 36.79 0
    endloop
  endfacet
  facet normal 1 0 0
    outer loop
      vertex 28.5 36.79 0
      vertex 28.5 34.8 1
      vertex 28.5 34.8 0
    endloop
  endfacet
  facet normal 1 0 0
    outer loop
      vertex 28.5 34.8 1
      vertex 28.5 34.79 15.99
      vertex 28.5 34.79 1
    endloop
  endfacet
  facet normal 0 -0.707107 -0.707107
    outer loop
      vertex 22.5 34.7858 15.99
      vertex 28.5 33.7858 16.99
      vertex 22.5 33.7858 16.99
    endloop
  endfacet
  facet normal 0 -0.707107 -0.707107
    outer loop
      vertex 28.5 33.7858 16.99
      vertex 22.5 34.7858 15.99
      vertex 28.5 34.7858 15.99
    endloop
  endfacet
  facet normal 0 -0.707107 0.707107
    outer loop
      vertex 22.5 33.7858 16.99
      vertex 28.5 34.7858 17.99
      vertex 22.5 34.7858 17.99
    endloop
  endfacet
  facet normal 0 -0.707107 0.707107
    outer loop
      vertex 28.5 34.7858 17.99
      vertex 22.5 33.7858 16.99
      vertex 28.5 33.7858 16.99
    endloop
  endfacet
  facet normal 0 0 -1
    outer loop
      vertex 22.5 36.79 15.99
      vertex 28.5 36.8 15.99
      vertex 28.5 36.79 15.99
    endloop
  endfacet
  facet normal -0 0 -1
    outer loop
      vertex 28.5 36.8 15.99
      vertex 22.5 36.79 15.99
      vertex 22.5 36.8 15.99
    endloop
  endfacet
  facet normal 0 0 -1
    outer loop
      vertex 22.5 34.7858 15.99
      vertex 28.5 34.79 15.99
      vertex 28.5 34.7858 15.99
    endloop
  endfacet
  facet normal -0 0 -1
    outer loop
      vertex 28.5 34.79 15.99
      vertex 22.5 34.7858 15.99
      vertex 22.5 34.79 15.99
    endloop
  endfacet
  facet normal -0 0 1
    outer loop
      vertex 22.5 36.8 17.99
      vertex 28.5 34.8 17.99
      vertex 28.5 36.8 17.99
    endloop
  endfacet
  facet normal 0 0 1
    outer loop
      vertex 28.5 34.8 17.99
      vertex 22.5 36.8 17.99
      vertex 22.5 34.8 17.99
    endloop
  endfacet
  facet normal -0 0 1
    outer loop
      vertex 22.5 34.8 17.99
      vertex 28.5 34.7858 17.99
      vertex 28.5 34.8 17.99
    endloop
  endfacet
  facet normal 0 0 1
    outer loop
      vertex 28.5 34.7858 17.99
      vertex 22.5 34.8 17.99
      vertex 22.5 34.7858 17.99
    endloop
  endfacet
  facet normal 0 1 -0
    outer loop
      vertex 28.5 36.8 15.99
      vertex 22.5 36.8 17.99
      vertex 28.5 36.8 17.99
    endloop
  endfacet
  facet normal 0 1 0
    outer loop
      vertex 22.5 36.8 17.99
      vertex 28.5 36.8 15.99
      vertex 22.5 36.8 15.99
    endloop
  endfacet
  facet normal 0 -1 0
    outer loop
      vertex 50.9858 28.8 15.99
      vertex 50.99 28.8 16
      vertex 49.9858 28.8 16.99
    endloop
  endfacet
  facet normal 0 -1 -0
    outer loop
      vertex 50.99 28.8 16
      vertex 50.9858 28.8 15.99
      vertex 50.99 28.8 15.99
    endloop
  endfacet
  facet normal 0 -1 0
    outer loop
      vertex 50.99 28.8 16
      vertex 51 28.8 17.99
      vertex 50.9858 28.8 17.99
    endloop
  endfacet
  facet normal 0 -1 0
    outer loop
      vertex 50.99 28.8 16
      vertex 50.9858 28.8 17.99
      vertex 49.9858 28.8 16.99
    endloop
  endfacet
  facet normal 0 -1 0
    outer loop
      vertex 52.99 28.8 16
      vertex 51 28.8 17.99
      vertex 50.99 28.8 16
    endloop
  endfacet
  facet normal 0 -1 0
    outer loop
      vertex 51 28.8 17.99
      vertex 52.99 28.8 16
      vertex 53 28.8 17.99
    endloop
  endfacet
  facet normal 0 -1 0
    outer loop
      vertex 53 28.8 15.99
      vertex 52.99 28.8 16
      vertex 52.99 28.8 15.99
    endloop
  endfacet
  facet normal 0 -1 0
    outer loop
      vertex 52.99 28.8 16
      vertex 53 28.8 15.99
      vertex 53 28.8 17.99
    endloop
  endfacet
  facet normal 0 1 0
    outer loop
      vertex 51 34.8 15.99
      vertex 51 34.8 17.99
      vertex 53 34.8 17.99
    endloop
  endfacet
  facet normal 0 1 0
    outer loop
      vertex 51 34.8 17.99
      vertex 51 34.8 15.99
      vertex 50.9858 34.8 17.99
    endloop
  endfacet
  facet normal 0 1 0
    outer loop
      vertex 51 34.8 15.99
      vertex 53 34.8 17.99
      vertex 53 34.8 15.99
    endloop
  endfacet
  facet normal 0 1 0
    outer loop
      vertex 50.9858 34.8 17.99
      vertex 51 34.8 15.99
      vertex 49.9858 34.8 16.99
    endloop
  endfacet
  facet normal 0 1 0
    outer loop
      vertex 49.9858 34.8 16.99
      vertex 51 34.8 15.99
      vertex 50.9858 34.8 15.99
    endloop
  endfacet
  facet normal -0.707107 0 0.707107
    outer loop
      vertex 49.9858 28.8 16.99
      vertex 50.9858 34.8 17.99
      vertex 49.9858 34.8 16.99
    endloop
  endfacet
  facet normal -0.707107 0 0.707107
    outer loop
      vertex 50.9858 34.8 17.99
      vertex 49.9858 28.8 16.99
      vertex 50.9858 28.8 17.99
    endloop
  endfacet
  facet normal -0.707107 0 -0.707107
    outer loop
      vertex 50.9858 28.8 15.99
      vertex 49.9858 34.8 16.99
      vertex 50.9858 34.8 15.99
    endloop
  endfacet
  facet normal -0.707107 -0 -0.707107
    outer loop
      vertex 49.9858 34.8 16.99
      vertex 50.9858 28.8 15.99
      vertex 49.9858 28.8 16.99
    endloop
  endfacet
  facet normal -0 0 1
    outer loop
      vertex 51 34.8 17.99
      vertex 53 28.8 17.99
      vertex 53 34.8 17.99
    endloop
  endfacet
  facet normal 0 0 1
    outer loop
      vertex 53 28.8 17.99
      vertex 51 34.8 17.99
      vertex 51 28.8 17.99
    endloop
  endfacet
  facet normal -0 0 1
    outer loop
      vertex 50.9858 34.8 17.99
      vertex 51 28.8 17.99
      vertex 51 34.8 17.99
    endloop
  endfacet
  facet normal 0 0 1
    outer loop
      vertex 51 28.8 17.99
      vertex 50.9858 34.8 17.99
      vertex 50.9858 28.8 17.99
    endloop
  endfacet
  facet normal 0 0 -1
    outer loop
      vertex 52.99 28.8 15.99
      vertex 53 34.8 15.99
      vertex 53 28.8 15.99
    endloop
  endfacet
  facet normal -0 0 -1
    outer loop
      vertex 53 34.8 15.99
      vertex 52.99 28.8 15.99
      vertex 52.99 34.8 15.99
    endloop
  endfacet
  facet normal 0 0 0
    outer loop
      vertex 52.99 34.8 15.99
      vertex 51 34.8 15.99
      vertex 53 34.8 15.99
    endloop
  endfacet
  facet normal 0 0 -1
    outer loop
      vertex 50.9858 28.8 15.99
      vertex 50.99 34.8 15.99
      vertex 50.99 28.8 15.99
    endloop
  endfacet
  facet normal -0 0 -1
    outer loop
      vertex 50.99 34.8 15.99
      vertex 50.9858 28.8 15.99
      vertex 50.9858 34.8 15.99
    endloop
  endfacet
  facet normal 0 0 0
    outer loop
      vertex 50.99 34.8 15.99
      vertex 50.9858 34.8 15.99
      vertex 51 34.8 15.99
    endloop
  endfacet
  facet normal 1 -0 0
    outer loop
      vertex 53 28.8 17.99
      vertex 53 34.8 15.99
      vertex 53 34.8 17.99
    endloop
  endfacet
  facet normal 1 0 0
    outer loop
      vertex 53 34.8 15.99
      vertex 53 28.8 17.99
      vertex 53 28.8 15.99
    endloop
  endfacet
  facet normal -1 0 0
    outer loop
      vertex 22.5 0.00999928 1
      vertex 22.5 0 1
      vertex 22.5 0.00999928 15.99
    endloop
  endfacet
  facet normal -1 0 0
    outer loop
      vertex 22.5 0.0142129 15.99
      vertex 22.5 0.0142129 17.99
      vertex 22.5 1.01421 16.99
    endloop
  endfacet
  facet normal -1 0 0
    outer loop
      vertex 22.5 0.00999928 15.99
      vertex 22.5 0.0142129 17.99
      vertex 22.5 0.0142129 15.99
    endloop
  endfacet
  facet normal -1 0 0
    outer loop
      vertex 22.5 0.00999928 15.99
      vertex 22.5 0 17.99
      vertex 22.5 0.0142129 17.99
    endloop
  endfacet
  facet normal -1 0 0
    outer loop
      vertex 22.5 -1.99 15.99
      vertex 22.5 0.00999928 15.99
      vertex 22.5 0 1
    endloop
  endfacet
  facet normal -1 0 0
    outer loop
      vertex 22.5 -1.99 0
      vertex 22.5 0 1
      vertex 22.5 0 0
    endloop
  endfacet
  facet normal -1 -0 0
    outer loop
      vertex 22.5 0 1
      vertex 22.5 -1.99 0
      vertex 22.5 -1.99 15.99
    endloop
  endfacet
  facet normal -1 0 0
    outer loop
      vertex 22.5 0.00999928 15.99
      vertex 22.5 -1.99 15.99
      vertex 22.5 0 17.99
    endloop
  endfacet
  facet normal -1 0 0
    outer loop
      vertex 22.5 -2 17.99
      vertex 22.5 -1.99 15.99
      vertex 22.5 -2 15.99
    endloop
  endfacet
  facet normal -1 0 0
    outer loop
      vertex 22.5 -1.99 15.99
      vertex 22.5 -2 17.99
      vertex 22.5 0 17.99
    endloop
  endfacet
  facet normal 1 0 0
    outer loop
      vertex 28.5 0.0142129 17.99
      vertex 28.5 0.0142129 15.99
      vertex 28.5 1.01421 16.99
    endloop
  endfacet
  facet normal 1 0 0
    outer loop
      vertex 28.5 0.0142129 17.99
      vertex 28.5 0.00999928 15.99
      vertex 28.5 0.0142129 15.99
    endloop
  endfacet
  facet normal 1 -0 0
    outer loop
      vertex 28.5 0 17.99
      vertex 28.5 0.00999928 15.99
      vertex 28.5 0.0142129 17.99
    endloop
  endfacet
  facet normal 1 0 0
    outer loop
      vertex 28.5 -1.99 15.99
      vertex 28.5 0.00999928 15.99
      vertex 28.5 0 17.99
    endloop
  endfacet
  facet normal 1 0 -0
    outer loop
      vertex 28.5 0 1
      vertex 28.5 0.00999928 15.99
      vertex 28.5 -1.99 15.99
    endloop
  endfacet
  facet normal 1 0 0
    outer loop
      vertex 28.5 0.00999928 15.99
      vertex 28.5 0 1
      vertex 28.5 0.00999928 1
    endloop
  endfacet
  facet normal 1 0 0
    outer loop
      vertex 28.5 -1.99 0
      vertex 28.5 0 1
      vertex 28.5 -1.99 15.99
    endloop
  endfacet
  facet normal 1 -0 0
    outer loop
      vertex 28.5 -2 17.99
      vertex 28.5 -1.99 15.99
      vertex 28.5 0 17.99
    endloop
  endfacet
  facet normal 1 0 0
    outer loop
      vertex 28.5 -1.99 15.99
      vertex 28.5 -2 17.99
      vertex 28.5 -2 15.99
    endloop
  endfacet
  facet normal 1 0 0
    outer loop
      vertex 28.5 0 1
      vertex 28.5 -1.99 0
      vertex 28.5 0 0
    endloop
  endfacet
  facet normal -0 0.707107 0.707107
    outer loop
      vertex 22.5 1.01421 16.99
      vertex 28.5 0.0142129 17.99
      vertex 28.5 1.01421 16.99
    endloop
  endfacet
  facet normal 0 0.707107 0.707107
    outer loop
      vertex 28.5 0.0142129 17.99
      vertex 22.5 1.01421 16.99
      vertex 22.5 0.0142129 17.99
    endloop
  endfacet
  facet normal 0 0.707107 -0.707107
    outer loop
      vertex 22.5 0.0142129 15.99
      vertex 28.5 1.01421 16.99
      vertex 28.5 0.0142129 15.99
    endloop
  endfacet
  facet normal 0 0.707107 -0.707107
    outer loop
      vertex 28.5 1.01421 16.99
      vertex 22.5 0.0142129 15.99
      vertex 22.5 1.01421 16.99
    endloop
  endfacet
  facet normal -0 0 1
    outer loop
      vertex 22.5 0 17.99
      vertex 28.5 -2 17.99
      vertex 28.5 0 17.99
    endloop
  endfacet
  facet normal 0 0 1
    outer loop
      vertex 28.5 -2 17.99
      vertex 22.5 0 17.99
      vertex 22.5 -2 17.99
    endloop
  endfacet
  facet normal -0 0 1
    outer loop
      vertex 22.5 0.0142129 17.99
      vertex 28.5 0 17.99
      vertex 28.5 0.0142129 17.99
    endloop
  endfacet
  facet normal 0 0 1
    outer loop
      vertex 28.5 0 17.99
      vertex 22.5 0.0142129 17.99
      vertex 22.5 0 17.99
    endloop
  endfacet
  facet normal 0 0 -1
    outer loop
      vertex 22.5 -2 15.99
      vertex 28.5 -1.99 15.99
      vertex 28.5 -2 15.99
    endloop
  endfacet
  facet normal -0 0 -1
    outer loop
      vertex 28.5 -1.99 15.99
      vertex 22.5 -2 15.99
      vertex 22.5 -1.99 15.99
    endloop
  endfacet
  facet normal 0 0 -1
    outer loop
      vertex 22.5 0.00999928 15.99
      vertex 28.5 0.0142129 15.99
      vertex 28.5 0.00999928 15.99
    endloop
  endfacet
  facet normal -0 0 -1
    outer loop
      vertex 28.5 0.0142129 15.99
      vertex 22.5 0.00999928 15.99
      vertex 22.5 0.0142129 15.99
    endloop
  endfacet
  facet normal 0 -1 0
    outer loop
      vertex 22.5 -2 15.99
      vertex 28.5 -2 17.99
      vertex 22.5 -2 17.99
    endloop
  endfacet
  facet normal 0 -1 -0
    outer loop
      vertex 28.5 -2 17.99
      vertex 22.5 -2 15.99
      vertex 28.5 -2 15.99
    endloop
  endfacet
  facet normal 0 1 -0
    outer loop
      vertex 28.5 36.79 0
      vertex 22.5 36.79 15.99
      vertex 28.5 36.79 15.99
    endloop
  endfacet
  facet normal 0 1 0
    outer loop
      vertex 22.5 36.79 15.99
      vertex 28.5 36.79 0
      vertex 22.5 36.79 0
    endloop
  endfacet
  facet normal 0 0 -1
    outer loop
      vertex 51 0 0
      vertex 28.5 0 0
      vertex 51 28.8 0
    endloop
  endfacet
  facet normal 0 0 -1
    outer loop
      vertex 51 28.8 0
      vertex 52.99 34.8 0
      vertex 52.99 28.8 0
    endloop
  endfacet
  facet normal 0 0 -1
    outer loop
      vertex 28.5 34.8 0
      vertex 51 28.8 0
      vertex 28.5 0 0
    endloop
  endfacet
  facet normal 0 0 -1
    outer loop
      vertex 51 28.8 0
      vertex 28.5 34.8 0
      vertex 52.99 34.8 0
    endloop
  endfacet
  facet normal 0 0 -1
    outer loop
      vertex 22.5 0 0
      vertex 0 6 0
      vertex 22.5 34.8 0
    endloop
  endfacet
  facet normal 0 0 -1
    outer loop
      vertex -1.99 0 0
      vertex 0 6 0
      vertex 22.5 0 0
    endloop
  endfacet
  facet normal -0 0 -1
    outer loop
      vertex 0 6 0
      vertex -1.99 0 0
      vertex -1.99 6 0
    endloop
  endfacet
  facet normal 0 0 -1
    outer loop
      vertex 22.5 0 0
      vertex 28.5 0 0
      vertex 28.5 -1.99 0
    endloop
  endfacet
  facet normal 0 0 -1
    outer loop
      vertex 28.5 0 0
      vertex 22.5 0 0
      vertex 28.5 34.8 0
    endloop
  endfacet
  facet normal 0 0 -1
    outer loop
      vertex 22.5 0 0
      vertex 28.5 -1.99 0
      vertex 22.5 -1.99 0
    endloop
  endfacet
  facet normal 0 0 -1
    outer loop
      vertex 22.5 34.8 0
      vertex 28.5 34.8 0
      vertex 22.5 0 0
    endloop
  endfacet
  facet normal 0 0 -1
    outer loop
      vertex 28.5 34.8 0
      vertex 22.5 34.8 0
      vertex 28.5 36.79 0
    endloop
  endfacet
  facet normal -0 0 -1
    outer loop
      vertex 28.5 36.79 0
      vertex 22.5 34.8 0
      vertex 22.5 36.79 0
    endloop
  endfacet
  facet normal -0 0 -1
    outer loop
      vertex 22.5 34.8 0
      vertex 0 6 0
      vertex 0 34.8 0
    endloop
  endfacet
  facet normal 0 -1 0
    outer loop
      vertex 22.5 34.79 1
      vertex 28.5 34.79 15.99
      vertex 22.5 34.79 15.99
    endloop
  endfacet
  facet normal 0 -1 -0
    outer loop
      vertex 28.5 34.79 15.99
      vertex 22.5 34.79 1
      vertex 28.5 34.79 1
    endloop
  endfacet
  facet normal -1 0 0
    outer loop
      vertex 50.99 28.8 1
      vertex 50.99 34.8 15.99
      vertex 50.99 34.8 1
    endloop
  endfacet
  facet normal -1 -0 0
    outer loop
      vertex 50.99 34.8 15.99
      vertex 50.99 28.8 1
      vertex 50.99 28.8 15.99
    endloop
  endfacet
  facet normal 0 0 0
    outer loop
      vertex 50.99 28.8 15.99
      vertex 50.99 28.8 1
      vertex 50.99 28.8 16
    endloop
  endfacet
  facet normal 1 -0 0
    outer loop
      vertex 52.99 28.8 15.99
      vertex 52.99 34.8 0
      vertex 52.99 34.8 15.99
    endloop
  endfacet
  facet normal 1 0 0
    outer loop
      vertex 52.99 34.8 0
      vertex 52.99 28.8 15.99
      vertex 52.99 28.8 0
    endloop
  endfacet
  facet normal 0 0 0
    outer loop
      vertex 52.99 28.8 15.99
      vertex 52.99 28.8 16
      vertex 52.99 28.8 0
    endloop
  endfacet
  facet normal 0 -1 0
    outer loop
      vertex 51 28.8 1
      vertex 50.99 28.8 16
      vertex 50.99 28.8 1
    endloop
  endfacet
  facet normal 0 -1 0
    outer loop
      vertex 50.99 28.8 16
      vertex 51 28.8 1
      vertex 52.99 28.8 16
    endloop
  endfacet
  facet normal 0 -1 0
    outer loop
      vertex 52.99 28.8 0
      vertex 51 28.8 1
      vertex 51 28.8 0
    endloop
  endfacet
  facet normal 0 -1 0
    outer loop
      vertex 51 28.8 1
      vertex 52.99 28.8 0
      vertex 52.99 28.8 16
    endloop
  endfacet
  facet normal 0 1 0
    outer loop
      vertex 50.99 34.8 1
      vertex 51 34.8 15.99
      vertex 52.99 34.8 15.99
    endloop
  endfacet
  facet normal 0 1 0
    outer loop
      vertex 51 34.8 15.99
      vertex 50.99 34.8 1
      vertex 50.99 34.8 15.99
    endloop
  endfacet
  facet normal 0 1 -0
    outer loop
      vertex 52.99 34.8 0
      vertex 50.99 34.8 1
      vertex 52.99 34.8 15.99
    endloop
  endfacet
  facet normal 0 1 0
    outer loop
      vertex 28.5 34.8 0
      vertex 50.99 34.8 1
      vertex 52.99 34.8 0
    endloop
  endfacet
  facet normal 0 1 0
    outer loop
      vertex 50.99 34.8 1
      vertex 28.5 34.8 0
      vertex 28.5 34.8 1
    endloop
  endfacet
  facet normal 0 1 -0
    outer loop
      vertex 22.5 34.8 0
      vertex 0 34.8 1
      vertex 22.5 34.8 1
    endloop
  endfacet
  facet normal 0 1 0
    outer loop
      vertex 0 34.8 1
      vertex 22.5 34.8 0
      vertex 0 34.8 0
    endloop
  endfacet
  facet normal 0 -1 0
    outer loop
      vertex 22.5 -1.99 0
      vertex 28.5 -1.99 15.99
      vertex 22.5 -1.99 15.99
    endloop
  endfacet
  facet normal 0 -1 -0
    outer loop
      vertex 28.5 -1.99 15.99
      vertex 22.5 -1.99 0
      vertex 28.5 -1.99 0
    endloop
  endfacet
  facet normal 0 1 -0
    outer loop
      vertex 28.5 0.00999928 1
      vertex 22.5 0.00999928 15.99
      vertex 28.5 0.00999928 15.99
    endloop
  endfacet
  facet normal 0 1 0
    outer loop
      vertex 22.5 0.00999928 15.99
      vertex 28.5 0.00999928 1
      vertex 22.5 0.00999928 1
    endloop
  endfacet
  facet normal -1 0 0
    outer loop
      vertex -1.99 0 0
      vertex -1.99 6 15.99
      vertex -1.99 6 0
    endloop
  endfacet
  facet normal -1 -0 0
    outer loop
      vertex -1.99 6 15.99
      vertex -1.99 0 0
      vertex -1.99 0 15.99
    endloop
  endfacet
  facet normal 0 0 0
    outer loop
      vertex -1.99 6 0
      vertex -1.99 6 15.99
      vertex -1.99 6 16
    endloop
  endfacet
  facet normal 0 0 1
    outer loop
      vertex 0.00999928 2.24265e-16 16
      vertex -1 0 16
      vertex 0.00999928 0 16
    endloop
  endfacet
  facet normal 1 0 0
    outer loop
      vertex 0.00999928 2.24265e-16 16
      vertex 0.00999928 0 16
      vertex 0.00999928 2.24265e-16 15.99
    endloop
  endfacet
  facet normal 1 -0 0
    outer loop
      vertex 0.00999928 2.24265e-16 15.99
      vertex 0.00999928 6 1
      vertex 0.00999928 6 15.99
    endloop
  endfacet
  facet normal 1 0 0
    outer loop
      vertex 0.00999928 2.24265e-16 15.99
      vertex 0.00999928 0 1
      vertex 0.00999928 6 1
    endloop
  endfacet
  facet normal 1 0 0
    outer loop
      vertex 0.00999928 0 1
      vertex 0.00999928 2.24265e-16 15.99
      vertex 0.00999928 0 16
    endloop
  endfacet
  facet normal 0 -1 0
    outer loop
      vertex -1.99 0 15.99
      vertex 0.00999928 0 1
      vertex -1 0 15.99
    endloop
  endfacet
  facet normal 0 -1 0
    outer loop
      vertex -1.99 0 0
      vertex 0.00999928 0 1
      vertex -1.99 0 15.99
    endloop
  endfacet
  facet normal 0 -1 0
    outer loop
      vertex 22.5 0 0
      vertex 0.00999928 0 1
      vertex -1.99 0 0
    endloop
  endfacet
  facet normal 0 -1 0
    outer loop
      vertex 0.00999928 0 1
      vertex 22.5 0 0
      vertex 22.5 0 1
    endloop
  endfacet
  facet normal 0 -1 0
    outer loop
      vertex -1 0 15.99
      vertex 0.00999928 0 16
      vertex -1 0 16
    endloop
  endfacet
  facet normal 0 -1 -0
    outer loop
      vertex 0.00999928 0 16
      vertex -1 0 15.99
      vertex 0.00999928 0 1
    endloop
  endfacet
  facet normal 0 -1 0
    outer loop
      vertex 28.5 0 0
      vertex 51 0 1
      vertex 28.5 0 1
    endloop
  endfacet
  facet normal 0 -1 -0
    outer loop
      vertex 51 0 1
      vertex 28.5 0 0
      vertex 51 0 0
    endloop
  endfacet
  facet normal 0 1 -0
    outer loop
      vertex 0 6 1
      vertex -6.66134e-16 6 15.99
      vertex 0.00999928 6 15.99
    endloop
  endfacet
  facet normal 0 1 0
    outer loop
      vertex 0 6 1
      vertex 0.00999928 6 15.99
      vertex 0.00999928 6 1
    endloop
  endfacet
  facet normal 0 1 -0
    outer loop
      vertex -1 6 15.99
      vertex -1.99 6 16
      vertex -1 6 16
    endloop
  endfacet
  facet normal 0 1 0
    outer loop
      vertex -6.66134e-16 6 15.99
      vertex 0 6 1
      vertex -1 6 15.99
    endloop
  endfacet
  facet normal 0 1 0
    outer loop
      vertex -1 6 15.99
      vertex 0 6 1
      vertex -1.99 6 16
    endloop
  endfacet
  facet normal 0 1 0
    outer loop
      vertex -1.99 6 0
      vertex 0 6 1
      vertex 0 6 0
    endloop
  endfacet
  facet normal 0 1 0
    outer loop
      vertex 0 6 1
      vertex -1.99 6 0
      vertex -1.99 6 16
    endloop
  endfacet
  facet normal -1 0 0
    outer loop
      vertex 0 6 0
      vertex 0 34.8 1
      vertex 0 34.8 0
    endloop
  endfacet
  facet normal -1 -0 0
    outer loop
      vertex 0 34.8 1
      vertex 0 6 0
      vertex 0 6 1
    endloop
  endfacet
  facet normal 0 0 1
    outer loop
      vertex 28.5 34.79 1
      vertex 50.99 34.8 1
      vertex 28.5 34.8 1
    endloop
  endfacet
  facet normal -0 0 1
    outer loop
      vertex 50.99 28.8 1
      vertex 51 0 1
      vertex 51 28.8 1
    endloop
  endfacet
  facet normal 0 0 1
    outer loop
      vertex 50.99 34.8 1
      vertex 28.5 34.79 1
      vertex 50.99 28.8 1
    endloop
  endfacet
  facet normal 0 0 1
    outer loop
      vertex 28.5 0.00999928 1
      vertex 50.99 28.8 1
      vertex 28.5 34.79 1
    endloop
  endfacet
  facet normal 0 0 1
    outer loop
      vertex 50.99 28.8 1
      vertex 28.5 0.00999928 1
      vertex 51 0 1
    endloop
  endfacet
  facet normal 0 0 1
    outer loop
      vertex 51 0 1
      vertex 28.5 0.00999928 1
      vertex 28.5 0 1
    endloop
  endfacet
  facet normal -0 0 1
    outer loop
      vertex 0 34.8 1
      vertex 22.5 34.79 1
      vertex 22.5 34.8 1
    endloop
  endfacet
  facet normal 0 0 1
    outer loop
      vertex 22.5 34.79 1
      vertex 0.00999928 6 1
      vertex 22.5 0.00999928 1
    endloop
  endfacet
  facet normal 0 0 1
    outer loop
      vertex 0.00999928 0 1
      vertex 22.5 0.00999928 1
      vertex 0.00999928 6 1
    endloop
  endfacet
  facet normal 0 0 1
    outer loop
      vertex 22.5 34.79 1
      vertex 0 34.8 1
      vertex 0.00999928 6 1
    endloop
  endfacet
  facet normal 0 0 1
    outer loop
      vertex 0.00999928 6 1
      vertex 0 34.8 1
      vertex 0 6 1
    endloop
  endfacet
  facet normal -0 0 1
    outer loop
      vertex 22.5 34.79 1
      vertex 28.5 0.00999928 1
      vertex 28.5 34.79 1
    endloop
  endfacet
  facet normal 0 0 1
    outer loop
      vertex 28.5 0.00999928 1
      vertex 22.5 34.79 1
      vertex 22.5 0.00999928 1
    endloop
  endfacet
  facet normal 0 0 1
    outer loop
      vertex 22.5 0.00999928 1
      vertex 0.00999928 0 1
      vertex 22.5 0 1
    endloop
  endfacet
  facet normal 1 -0 0
    outer loop
      vertex 51 0 1
      vertex 51 28.8 0
      vertex 51 28.8 1
    endloop
  endfacet
  facet normal 1 0 0
    outer loop
      vertex 51 28.8 0
      vertex 51 0 1
      vertex 51 0 0
    endloop
  endfacet
endsolid OpenSCAD_Model
