solid OpenSCAD_Model
  facet normal -0.368127 0.929775 0
    outer loop
      vertex 5.68125 3.30228 0
      vertex 5.49443 3.22831 2
      vertex 5.68125 3.30228 2
    endloop
  endfacet
  facet normal -0.368127 0.929775 0
    outer loop
      vertex 5.49443 3.22831 2
      vertex 5.68125 3.30228 0
      vertex 5.49443 3.22831 0
    endloop
  endfacet
  facet normal 0.998027 0.0627887 0
    outer loop
      vertex 3.41262 4.54947 2
      vertex 3.4 4.75 0
      vertex 3.4 4.75 2
    endloop
  endfacet
  facet normal 0.998027 0.0627887 0
    outer loop
      vertex 3.4 4.75 0
      vertex 3.41262 4.54947 2
      vertex 3.41262 4.54947 0
    endloop
  endfacet
  facet normal -0.587789 -0.809015 0
    outer loop
      vertex 5.85732 7.10092 0
      vertex 6.01988 6.98282 2
      vertex 5.85732 7.10092 2
    endloop
  endfacet
  facet normal -0.587789 -0.809015 -0
    outer loop
      vertex 6.01988 6.98282 2
      vertex 5.85732 7.10092 0
      vertex 6.01988 6.98282 0
    endloop
  endfacet
  facet normal -0.998027 -0.062789 0
    outer loop
      vertex 6.6 5.75 0
      vertex 6.58738 5.95053 2
      vertex 6.58738 5.95053 0
    endloop
  endfacet
  facet normal -0.998027 -0.062789 0
    outer loop
      vertex 6.58738 5.95053 2
      vertex 6.6 5.75 0
      vertex 6.6 5.75 2
    endloop
  endfacet
  facet normal 0.368127 -0.929775 0
    outer loop
      vertex 4.31875 7.19772 0
      vertex 4.50557 7.27169 2
      vertex 4.31875 7.19772 2
    endloop
  endfacet
  facet normal 0.368127 -0.929775 0
    outer loop
      vertex 4.50557 7.27169 2
      vertex 4.31875 7.19772 0
      vertex 4.50557 7.27169 0
    endloop
  endfacet
  facet normal -1 0 0
    outer loop
      vertex 6.6 4.75 0
      vertex 6.6 5.75 2
      vertex 6.6 5.75 0
    endloop
  endfacet
  facet normal -1 -0 0
    outer loop
      vertex 6.6 5.75 2
      vertex 6.6 4.75 0
      vertex 6.6 4.75 2
    endloop
  endfacet
  facet normal 0.481751 0.876308 -0
    outer loop
      vertex 4.31875 3.30228 0
      vertex 4.14268 3.39908 2
      vertex 4.31875 3.30228 2
    endloop
  endfacet
  facet normal 0.481751 0.876308 0
    outer loop
      vertex 4.14268 3.39908 2
      vertex 4.31875 3.30228 0
      vertex 4.14268 3.39908 0
    endloop
  endfacet
  facet normal 0.904826 -0.425781 0
    outer loop
      vertex 3.51236 6.339 2
      vertex 3.59791 6.52081 0
      vertex 3.59791 6.52081 2
    endloop
  endfacet
  facet normal 0.904826 -0.425781 0
    outer loop
      vertex 3.59791 6.52081 0
      vertex 3.51236 6.339 2
      vertex 3.51236 6.339 0
    endloop
  endfacet
  facet normal 0.684545 -0.728971 0
    outer loop
      vertex 3.83365 6.84527 0
      vertex 3.98012 6.98282 2
      vertex 3.83365 6.84527 2
    endloop
  endfacet
  facet normal 0.684545 -0.728971 0
    outer loop
      vertex 3.98012 6.98282 2
      vertex 3.83365 6.84527 0
      vertex 3.98012 6.98282 0
    endloop
  endfacet
  facet normal -0.684545 0.728971 0
    outer loop
      vertex 6.16635 3.65473 0
      vertex 6.01988 3.51718 2
      vertex 6.16635 3.65473 2
    endloop
  endfacet
  facet normal -0.684545 0.728971 0
    outer loop
      vertex 6.01988 3.51718 2
      vertex 6.16635 3.65473 0
      vertex 6.01988 3.51718 0
    endloop
  endfacet
  facet normal -0.904826 -0.425781 0
    outer loop
      vertex 6.48764 6.339 0
      vertex 6.40209 6.52081 2
      vertex 6.40209 6.52081 0
    endloop
  endfacet
  facet normal -0.904826 -0.425781 0
    outer loop
      vertex 6.40209 6.52081 2
      vertex 6.48764 6.339 0
      vertex 6.48764 6.339 2
    endloop
  endfacet
  facet normal -0.125331 0.992115 0
    outer loop
      vertex 5.29981 3.17834 0
      vertex 5.10046 3.15316 2
      vertex 5.29981 3.17834 2
    endloop
  endfacet
  facet normal -0.125331 0.992115 0
    outer loop
      vertex 5.10046 3.15316 2
      vertex 5.29981 3.17834 0
      vertex 5.10046 3.15316 0
    endloop
  endfacet
  facet normal 1 -0 0
    outer loop
      vertex 3.4 4.75 2
      vertex 3.4 5.75 0
      vertex 3.4 5.75 2
    endloop
  endfacet
  facet normal 1 0 0
    outer loop
      vertex 3.4 5.75 0
      vertex 3.4 4.75 2
      vertex 3.4 4.75 0
    endloop
  endfacet
  facet normal 0.982287 -0.187384 0
    outer loop
      vertex 3.41262 5.95053 2
      vertex 3.45027 6.1479 0
      vertex 3.45027 6.1479 2
    endloop
  endfacet
  facet normal 0.982287 -0.187384 0
    outer loop
      vertex 3.45027 6.1479 0
      vertex 3.41262 5.95053 2
      vertex 3.41262 5.95053 0
    endloop
  endfacet
  facet normal 0.770512 -0.637425 0
    outer loop
      vertex 3.70557 6.69046 2
      vertex 3.83365 6.84527 0
      vertex 3.83365 6.84527 2
    endloop
  endfacet
  facet normal 0.770512 -0.637425 0
    outer loop
      vertex 3.83365 6.84527 0
      vertex 3.70557 6.69046 2
      vertex 3.70557 6.69046 0
    endloop
  endfacet
  facet normal 0.481751 -0.876308 0
    outer loop
      vertex 4.14268 7.10092 0
      vertex 4.31875 7.19772 2
      vertex 4.14268 7.10092 2
    endloop
  endfacet
  facet normal 0.481751 -0.876308 0
    outer loop
      vertex 4.31875 7.19772 2
      vertex 4.14268 7.10092 0
      vertex 4.31875 7.19772 0
    endloop
  endfacet
  facet normal -0.998027 0.062789 0
    outer loop
      vertex 6.58738 4.54947 0
      vertex 6.6 4.75 2
      vertex 6.6 4.75 0
    endloop
  endfacet
  facet normal -0.998027 0.062789 0
    outer loop
      vertex 6.6 4.75 2
      vertex 6.58738 4.54947 0
      vertex 6.58738 4.54947 2
    endloop
  endfacet
  facet normal -0.982287 0.187384 0
    outer loop
      vertex 6.54973 4.3521 0
      vertex 6.58738 4.54947 2
      vertex 6.58738 4.54947 0
    endloop
  endfacet
  facet normal -0.982287 0.187384 0
    outer loop
      vertex 6.58738 4.54947 2
      vertex 6.54973 4.3521 0
      vertex 6.54973 4.3521 2
    endloop
  endfacet
  facet normal -0.844329 -0.535824 0
    outer loop
      vertex 6.40209 6.52081 0
      vertex 6.29443 6.69046 2
      vertex 6.29443 6.69046 0
    endloop
  endfacet
  facet normal -0.844329 -0.535824 0
    outer loop
      vertex 6.29443 6.69046 2
      vertex 6.40209 6.52081 0
      vertex 6.40209 6.52081 2
    endloop
  endfacet
  facet normal -0.951058 -0.309014 0
    outer loop
      vertex 6.54973 6.1479 0
      vertex 6.48764 6.339 2
      vertex 6.48764 6.339 0
    endloop
  endfacet
  facet normal -0.951058 -0.309014 0
    outer loop
      vertex 6.48764 6.339 2
      vertex 6.54973 6.1479 0
      vertex 6.54973 6.1479 2
    endloop
  endfacet
  facet normal -0.982287 -0.187384 0
    outer loop
      vertex 6.58738 5.95053 0
      vertex 6.54973 6.1479 2
      vertex 6.54973 6.1479 0
    endloop
  endfacet
  facet normal -0.982287 -0.187384 0
    outer loop
      vertex 6.54973 6.1479 2
      vertex 6.58738 5.95053 0
      vertex 6.58738 5.95053 2
    endloop
  endfacet
  facet normal 0.248688 0.968584 -0
    outer loop
      vertex 4.70019 3.17834 0
      vertex 4.50557 3.22831 2
      vertex 4.70019 3.17834 2
    endloop
  endfacet
  facet normal 0.248688 0.968584 0
    outer loop
      vertex 4.50557 3.22831 2
      vertex 4.70019 3.17834 0
      vertex 4.50557 3.22831 0
    endloop
  endfacet
  facet normal -0.248688 0.968584 0
    outer loop
      vertex 5.49443 3.22831 0
      vertex 5.29981 3.17834 2
      vertex 5.49443 3.22831 2
    endloop
  endfacet
  facet normal -0.248688 0.968584 0
    outer loop
      vertex 5.29981 3.17834 2
      vertex 5.49443 3.22831 0
      vertex 5.29981 3.17834 0
    endloop
  endfacet
  facet normal -0.770512 -0.637425 0
    outer loop
      vertex 6.29443 6.69046 0
      vertex 6.16635 6.84527 2
      vertex 6.16635 6.84527 0
    endloop
  endfacet
  facet normal -0.770512 -0.637425 0
    outer loop
      vertex 6.16635 6.84527 2
      vertex 6.29443 6.69046 0
      vertex 6.29443 6.69046 2
    endloop
  endfacet
  facet normal -0.248688 -0.968584 0
    outer loop
      vertex 5.29981 7.32166 0
      vertex 5.49443 7.27169 2
      vertex 5.29981 7.32166 2
    endloop
  endfacet
  facet normal -0.248688 -0.968584 -0
    outer loop
      vertex 5.49443 7.27169 2
      vertex 5.29981 7.32166 0
      vertex 5.49443 7.27169 0
    endloop
  endfacet
  facet normal 0.998027 -0.062789 0
    outer loop
      vertex 3.4 5.75 2
      vertex 3.41262 5.95053 0
      vertex 3.41262 5.95053 2
    endloop
  endfacet
  facet normal 0.998027 -0.062789 0
    outer loop
      vertex 3.41262 5.95053 0
      vertex 3.4 5.75 2
      vertex 3.4 5.75 0
    endloop
  endfacet
  facet normal 0.951058 -0.309014 0
    outer loop
      vertex 3.45027 6.1479 2
      vertex 3.51236 6.339 0
      vertex 3.51236 6.339 2
    endloop
  endfacet
  facet normal 0.951058 -0.309014 0
    outer loop
      vertex 3.51236 6.339 0
      vertex 3.45027 6.1479 2
      vertex 3.45027 6.1479 0
    endloop
  endfacet
  facet normal 0.844329 -0.535824 0
    outer loop
      vertex 3.59791 6.52081 2
      vertex 3.70557 6.69046 0
      vertex 3.70557 6.69046 2
    endloop
  endfacet
  facet normal 0.844329 -0.535824 0
    outer loop
      vertex 3.70557 6.69046 0
      vertex 3.59791 6.52081 2
      vertex 3.59791 6.52081 0
    endloop
  endfacet
  facet normal 0.587789 -0.809015 0
    outer loop
      vertex 3.98012 6.98282 0
      vertex 4.14268 7.10092 2
      vertex 3.98012 6.98282 2
    endloop
  endfacet
  facet normal 0.587789 -0.809015 0
    outer loop
      vertex 4.14268 7.10092 2
      vertex 3.98012 6.98282 0
      vertex 4.14268 7.10092 0
    endloop
  endfacet
  facet normal -0.481751 0.876308 0
    outer loop
      vertex 5.85732 3.39908 0
      vertex 5.68125 3.30228 2
      vertex 5.85732 3.39908 2
    endloop
  endfacet
  facet normal -0.481751 0.876308 0
    outer loop
      vertex 5.68125 3.30228 2
      vertex 5.85732 3.39908 0
      vertex 5.68125 3.30228 0
    endloop
  endfacet
  facet normal -0.770512 0.637425 0
    outer loop
      vertex 6.16635 3.65473 0
      vertex 6.29443 3.80954 2
      vertex 6.29443 3.80954 0
    endloop
  endfacet
  facet normal -0.770512 0.637425 0
    outer loop
      vertex 6.29443 3.80954 2
      vertex 6.16635 3.65473 0
      vertex 6.16635 3.65473 2
    endloop
  endfacet
  facet normal -0.951058 0.309014 0
    outer loop
      vertex 6.48764 4.161 0
      vertex 6.54973 4.3521 2
      vertex 6.54973 4.3521 0
    endloop
  endfacet
  facet normal -0.951058 0.309014 0
    outer loop
      vertex 6.54973 4.3521 2
      vertex 6.48764 4.161 0
      vertex 6.48764 4.161 2
    endloop
  endfacet
  facet normal 0.368127 0.929775 -0
    outer loop
      vertex 4.50557 3.22831 0
      vertex 4.31875 3.30228 2
      vertex 4.50557 3.22831 2
    endloop
  endfacet
  facet normal 0.368127 0.929775 0
    outer loop
      vertex 4.31875 3.30228 2
      vertex 4.50557 3.22831 0
      vertex 4.31875 3.30228 0
    endloop
  endfacet
  facet normal 0 1 -0
    outer loop
      vertex 5.10046 3.15316 0
      vertex 4.89954 3.15316 2
      vertex 5.10046 3.15316 2
    endloop
  endfacet
  facet normal 0 1 0
    outer loop
      vertex 4.89954 3.15316 2
      vertex 5.10046 3.15316 0
      vertex 4.89954 3.15316 0
    endloop
  endfacet
  facet normal 0.125331 0.992115 -0
    outer loop
      vertex 4.89954 3.15316 0
      vertex 4.70019 3.17834 2
      vertex 4.89954 3.15316 2
    endloop
  endfacet
  facet normal 0.125331 0.992115 0
    outer loop
      vertex 4.70019 3.17834 2
      vertex 4.89954 3.15316 0
      vertex 4.70019 3.17834 0
    endloop
  endfacet
  facet normal 0.684545 0.728971 -0
    outer loop
      vertex 3.98012 3.51718 0
      vertex 3.83365 3.65473 2
      vertex 3.98012 3.51718 2
    endloop
  endfacet
  facet normal 0.684545 0.728971 0
    outer loop
      vertex 3.83365 3.65473 2
      vertex 3.98012 3.51718 0
      vertex 3.83365 3.65473 0
    endloop
  endfacet
  facet normal 0.587789 0.809015 -0
    outer loop
      vertex 4.14268 3.39908 0
      vertex 3.98012 3.51718 2
      vertex 4.14268 3.39908 2
    endloop
  endfacet
  facet normal 0.587789 0.809015 0
    outer loop
      vertex 3.98012 3.51718 2
      vertex 4.14268 3.39908 0
      vertex 3.98012 3.51718 0
    endloop
  endfacet
  facet normal 0.844329 0.535824 0
    outer loop
      vertex 3.70557 3.80954 2
      vertex 3.59791 3.97919 0
      vertex 3.59791 3.97919 2
    endloop
  endfacet
  facet normal 0.844329 0.535824 0
    outer loop
      vertex 3.59791 3.97919 0
      vertex 3.70557 3.80954 2
      vertex 3.70557 3.80954 0
    endloop
  endfacet
  facet normal 0.904826 0.425781 0
    outer loop
      vertex 3.59791 3.97919 2
      vertex 3.51236 4.161 0
      vertex 3.51236 4.161 2
    endloop
  endfacet
  facet normal 0.904826 0.425781 0
    outer loop
      vertex 3.51236 4.161 0
      vertex 3.59791 3.97919 2
      vertex 3.59791 3.97919 0
    endloop
  endfacet
  facet normal 0.951058 0.309014 0
    outer loop
      vertex 3.51236 4.161 2
      vertex 3.45027 4.3521 0
      vertex 3.45027 4.3521 2
    endloop
  endfacet
  facet normal 0.951058 0.309014 0
    outer loop
      vertex 3.45027 4.3521 0
      vertex 3.51236 4.161 2
      vertex 3.51236 4.161 0
    endloop
  endfacet
  facet normal 0.982287 0.187384 0
    outer loop
      vertex 3.45027 4.3521 2
      vertex 3.41262 4.54947 0
      vertex 3.41262 4.54947 2
    endloop
  endfacet
  facet normal 0.982287 0.187384 0
    outer loop
      vertex 3.41262 4.54947 0
      vertex 3.45027 4.3521 2
      vertex 3.45027 4.3521 0
    endloop
  endfacet
  facet normal -0.684545 -0.728971 0
    outer loop
      vertex 6.01988 6.98282 0
      vertex 6.16635 6.84527 2
      vertex 6.01988 6.98282 2
    endloop
  endfacet
  facet normal -0.684545 -0.728971 -0
    outer loop
      vertex 6.16635 6.84527 2
      vertex 6.01988 6.98282 0
      vertex 6.16635 6.84527 0
    endloop
  endfacet
  facet normal -0.587789 0.809015 0
    outer loop
      vertex 6.01988 3.51718 0
      vertex 5.85732 3.39908 2
      vertex 6.01988 3.51718 2
    endloop
  endfacet
  facet normal -0.587789 0.809015 0
    outer loop
      vertex 5.85732 3.39908 2
      vertex 6.01988 3.51718 0
      vertex 5.85732 3.39908 0
    endloop
  endfacet
  facet normal -0.904826 0.425781 0
    outer loop
      vertex 6.40209 3.97919 0
      vertex 6.48764 4.161 2
      vertex 6.48764 4.161 0
    endloop
  endfacet
  facet normal -0.904826 0.425781 0
    outer loop
      vertex 6.48764 4.161 2
      vertex 6.40209 3.97919 0
      vertex 6.40209 3.97919 2
    endloop
  endfacet
  facet normal -0.844329 0.535824 0
    outer loop
      vertex 6.29443 3.80954 0
      vertex 6.40209 3.97919 2
      vertex 6.40209 3.97919 0
    endloop
  endfacet
  facet normal -0.844329 0.535824 0
    outer loop
      vertex 6.40209 3.97919 2
      vertex 6.29443 3.80954 0
      vertex 6.29443 3.80954 2
    endloop
  endfacet
  facet normal 0.770512 0.637425 0
    outer loop
      vertex 3.83365 3.65473 2
      vertex 3.70557 3.80954 0
      vertex 3.70557 3.80954 2
    endloop
  endfacet
  facet normal 0.770512 0.637425 0
    outer loop
      vertex 3.70557 3.80954 0
      vertex 3.83365 3.65473 2
      vertex 3.83365 3.65473 0
    endloop
  endfacet
  facet normal -0.368127 -0.929775 0
    outer loop
      vertex 5.49443 7.27169 0
      vertex 5.68125 7.19772 2
      vertex 5.49443 7.27169 2
    endloop
  endfacet
  facet normal -0.368127 -0.929775 -0
    outer loop
      vertex 5.68125 7.19772 2
      vertex 5.49443 7.27169 0
      vertex 5.68125 7.19772 0
    endloop
  endfacet
  facet normal -0.481751 -0.876308 0
    outer loop
      vertex 5.68125 7.19772 0
      vertex 5.85732 7.10092 2
      vertex 5.68125 7.19772 2
    endloop
  endfacet
  facet normal -0.481751 -0.876308 -0
    outer loop
      vertex 5.85732 7.10092 2
      vertex 5.68125 7.19772 0
      vertex 5.85732 7.10092 0
    endloop
  endfacet
  facet normal 0.125331 -0.992115 0
    outer loop
      vertex 4.70019 7.32166 0
      vertex 4.89954 7.34684 2
      vertex 4.70019 7.32166 2
    endloop
  endfacet
  facet normal 0.125331 -0.992115 0
    outer loop
      vertex 4.89954 7.34684 2
      vertex 4.70019 7.32166 0
      vertex 4.89954 7.34684 0
    endloop
  endfacet
  facet normal 0 -1 0
    outer loop
      vertex 4.89954 7.34684 0
      vertex 5.10046 7.34684 2
      vertex 4.89954 7.34684 2
    endloop
  endfacet
  facet normal 0 -1 -0
    outer loop
      vertex 5.10046 7.34684 2
      vertex 4.89954 7.34684 0
      vertex 5.10046 7.34684 0
    endloop
  endfacet
  facet normal 0.248688 -0.968584 0
    outer loop
      vertex 4.50557 7.27169 0
      vertex 4.70019 7.32166 2
      vertex 4.50557 7.27169 2
    endloop
  endfacet
  facet normal 0.248688 -0.968584 0
    outer loop
      vertex 4.70019 7.32166 2
      vertex 4.50557 7.27169 0
      vertex 4.70019 7.32166 0
    endloop
  endfacet
  facet normal -0.125331 -0.992115 0
    outer loop
      vertex 5.10046 7.34684 0
      vertex 5.29981 7.32166 2
      vertex 5.10046 7.34684 2
    endloop
  endfacet
  facet normal -0.125331 -0.992115 -0
    outer loop
      vertex 5.29981 7.32166 2
      vertex 5.10046 7.34684 0
      vertex 5.29981 7.32166 0
    endloop
  endfacet
  facet normal -0.770514 -0.637423 0
    outer loop
      vertex 6.29443 48.1905 0
      vertex 6.16635 48.3453 2
      vertex 6.16635 48.3453 0
    endloop
  endfacet
  facet normal -0.770514 -0.637423 0
    outer loop
      vertex 6.16635 48.3453 2
      vertex 6.29443 48.1905 0
      vertex 6.29443 48.1905 2
    endloop
  endfacet
  facet normal -0.125322 -0.992116 0
    outer loop
      vertex 5.10046 48.8468 0
      vertex 5.29981 48.8217 2
      vertex 5.10046 48.8468 2
    endloop
  endfacet
  facet normal -0.125322 -0.992116 -0
    outer loop
      vertex 5.29981 48.8217 2
      vertex 5.10046 48.8468 0
      vertex 5.29981 48.8217 0
    endloop
  endfacet
  facet normal -0.248688 -0.968584 0
    outer loop
      vertex 5.29981 48.8217 0
      vertex 5.49443 48.7717 2
      vertex 5.29981 48.8217 2
    endloop
  endfacet
  facet normal -0.248688 -0.968584 -0
    outer loop
      vertex 5.49443 48.7717 2
      vertex 5.29981 48.8217 0
      vertex 5.49443 48.7717 0
    endloop
  endfacet
  facet normal 0.481751 -0.876308 0
    outer loop
      vertex 4.14268 48.6009 0
      vertex 4.31875 48.6977 2
      vertex 4.14268 48.6009 2
    endloop
  endfacet
  facet normal 0.481751 -0.876308 0
    outer loop
      vertex 4.31875 48.6977 2
      vertex 4.14268 48.6009 0
      vertex 4.31875 48.6977 0
    endloop
  endfacet
  facet normal 0.951057 -0.309017 0
    outer loop
      vertex 3.45027 47.6479 2
      vertex 3.51236 47.839 0
      vertex 3.51236 47.839 2
    endloop
  endfacet
  facet normal 0.951057 -0.309017 0
    outer loop
      vertex 3.51236 47.839 0
      vertex 3.45027 47.6479 2
      vertex 3.45027 47.6479 0
    endloop
  endfacet
  facet normal -0.982286 0.187386 0
    outer loop
      vertex 6.54973 46.8521 0
      vertex 6.58738 47.0495 2
      vertex 6.58738 47.0495 0
    endloop
  endfacet
  facet normal -0.982286 0.187386 0
    outer loop
      vertex 6.58738 47.0495 2
      vertex 6.54973 46.8521 0
      vertex 6.54973 46.8521 2
    endloop
  endfacet
  facet normal -0.368123 -0.929777 0
    outer loop
      vertex 5.49443 48.7717 0
      vertex 5.68125 48.6977 2
      vertex 5.49443 48.7717 2
    endloop
  endfacet
  facet normal -0.368123 -0.929777 -0
    outer loop
      vertex 5.68125 48.6977 2
      vertex 5.49443 48.7717 0
      vertex 5.68125 48.6977 0
    endloop
  endfacet
  facet normal 0.844329 -0.535824 0
    outer loop
      vertex 3.59791 48.0208 2
      vertex 3.70557 48.1905 0
      vertex 3.70557 48.1905 2
    endloop
  endfacet
  facet normal 0.844329 -0.535824 0
    outer loop
      vertex 3.70557 48.1905 0
      vertex 3.59791 48.0208 2
      vertex 3.59791 48.0208 0
    endloop
  endfacet
  facet normal 0.248688 -0.968584 0
    outer loop
      vertex 4.50557 48.7717 0
      vertex 4.70019 48.8217 2
      vertex 4.50557 48.7717 2
    endloop
  endfacet
  facet normal 0.248688 -0.968584 0
    outer loop
      vertex 4.70019 48.8217 2
      vertex 4.50557 48.7717 0
      vertex 4.70019 48.8217 0
    endloop
  endfacet
  facet normal 0.770514 -0.637423 0
    outer loop
      vertex 3.70557 48.1905 2
      vertex 3.83365 48.3453 0
      vertex 3.83365 48.3453 2
    endloop
  endfacet
  facet normal 0.770514 -0.637423 0
    outer loop
      vertex 3.83365 48.3453 0
      vertex 3.70557 48.1905 2
      vertex 3.70557 48.1905 0
    endloop
  endfacet
  facet normal -0.998027 0.0627884 0
    outer loop
      vertex 6.58738 47.0495 0
      vertex 6.6 47.25 2
      vertex 6.6 47.25 0
    endloop
  endfacet
  facet normal -0.998027 0.0627884 0
    outer loop
      vertex 6.6 47.25 2
      vertex 6.58738 47.0495 0
      vertex 6.58738 47.0495 2
    endloop
  endfacet
  facet normal -0.951058 0.309011 0
    outer loop
      vertex 6.48764 46.661 0
      vertex 6.54973 46.8521 2
      vertex 6.54973 46.8521 0
    endloop
  endfacet
  facet normal -0.951058 0.309011 0
    outer loop
      vertex 6.54973 46.8521 2
      vertex 6.48764 46.661 0
      vertex 6.48764 46.661 2
    endloop
  endfacet
  facet normal -0.587786 0.809017 0
    outer loop
      vertex 6.01988 46.0172 0
      vertex 5.85732 45.8991 2
      vertex 6.01988 46.0172 2
    endloop
  endfacet
  facet normal -0.587786 0.809017 0
    outer loop
      vertex 5.85732 45.8991 2
      vertex 6.01988 46.0172 0
      vertex 5.85732 45.8991 0
    endloop
  endfacet
  facet normal -0.982287 -0.187383 0
    outer loop
      vertex 6.58738 47.4505 0
      vertex 6.54973 47.6479 2
      vertex 6.54973 47.6479 0
    endloop
  endfacet
  facet normal -0.982287 -0.187383 0
    outer loop
      vertex 6.54973 47.6479 2
      vertex 6.58738 47.4505 0
      vertex 6.58738 47.4505 2
    endloop
  endfacet
  facet normal -0.587798 -0.809008 0
    outer loop
      vertex 5.85732 48.6009 0
      vertex 6.01988 48.4828 2
      vertex 5.85732 48.6009 2
    endloop
  endfacet
  facet normal -0.587798 -0.809008 -0
    outer loop
      vertex 6.01988 48.4828 2
      vertex 5.85732 48.6009 0
      vertex 6.01988 48.4828 0
    endloop
  endfacet
  facet normal -0.684538 -0.728978 0
    outer loop
      vertex 6.01988 48.4828 0
      vertex 6.16635 48.3453 2
      vertex 6.01988 48.4828 2
    endloop
  endfacet
  facet normal -0.684538 -0.728978 -0
    outer loop
      vertex 6.16635 48.3453 2
      vertex 6.01988 48.4828 0
      vertex 6.16635 48.3453 0
    endloop
  endfacet
  facet normal 0.125322 -0.992116 0
    outer loop
      vertex 4.70019 48.8217 0
      vertex 4.89954 48.8468 2
      vertex 4.70019 48.8217 2
    endloop
  endfacet
  facet normal 0.125322 -0.992116 0
    outer loop
      vertex 4.89954 48.8468 2
      vertex 4.70019 48.8217 0
      vertex 4.89954 48.8468 0
    endloop
  endfacet
  facet normal -0.481751 -0.876308 0
    outer loop
      vertex 5.68125 48.6977 0
      vertex 5.85732 48.6009 2
      vertex 5.68125 48.6977 2
    endloop
  endfacet
  facet normal -0.481751 -0.876308 -0
    outer loop
      vertex 5.85732 48.6009 2
      vertex 5.68125 48.6977 0
      vertex 5.85732 48.6009 0
    endloop
  endfacet
  facet normal 0.998027 0.0627884 0
    outer loop
      vertex 3.41262 47.0495 2
      vertex 3.4 47.25 0
      vertex 3.4 47.25 2
    endloop
  endfacet
  facet normal 0.998027 0.0627884 0
    outer loop
      vertex 3.4 47.25 0
      vertex 3.41262 47.0495 2
      vertex 3.41262 47.0495 0
    endloop
  endfacet
  facet normal 0.982287 -0.187383 0
    outer loop
      vertex 3.41262 47.4505 2
      vertex 3.45027 47.6479 0
      vertex 3.45027 47.6479 2
    endloop
  endfacet
  facet normal 0.982287 -0.187383 0
    outer loop
      vertex 3.45027 47.6479 0
      vertex 3.41262 47.4505 2
      vertex 3.41262 47.4505 0
    endloop
  endfacet
  facet normal 0.904828 -0.425778 0
    outer loop
      vertex 3.51236 47.839 2
      vertex 3.59791 48.0208 0
      vertex 3.59791 48.0208 2
    endloop
  endfacet
  facet normal 0.904828 -0.425778 0
    outer loop
      vertex 3.59791 48.0208 0
      vertex 3.51236 47.839 2
      vertex 3.51236 47.839 0
    endloop
  endfacet
  facet normal 0.368123 -0.929777 0
    outer loop
      vertex 4.31875 48.6977 0
      vertex 4.50557 48.7717 2
      vertex 4.31875 48.6977 2
    endloop
  endfacet
  facet normal 0.368123 -0.929777 0
    outer loop
      vertex 4.50557 48.7717 2
      vertex 4.31875 48.6977 0
      vertex 4.50557 48.7717 0
    endloop
  endfacet
  facet normal 0.684538 -0.728978 0
    outer loop
      vertex 3.83365 48.3453 0
      vertex 3.98012 48.4828 2
      vertex 3.83365 48.3453 2
    endloop
  endfacet
  facet normal 0.684538 -0.728978 0
    outer loop
      vertex 3.98012 48.4828 2
      vertex 3.83365 48.3453 0
      vertex 3.98012 48.4828 0
    endloop
  endfacet
  facet normal 0.587798 -0.809008 0
    outer loop
      vertex 3.98012 48.4828 0
      vertex 4.14268 48.6009 2
      vertex 3.98012 48.4828 2
    endloop
  endfacet
  facet normal 0.587798 -0.809008 0
    outer loop
      vertex 4.14268 48.6009 2
      vertex 3.98012 48.4828 0
      vertex 4.14268 48.6009 0
    endloop
  endfacet
  facet normal -0.998027 -0.0627896 0
    outer loop
      vertex 6.6 47.25 0
      vertex 6.58738 47.4505 2
      vertex 6.58738 47.4505 0
    endloop
  endfacet
  facet normal -0.998027 -0.0627896 0
    outer loop
      vertex 6.58738 47.4505 2
      vertex 6.6 47.25 0
      vertex 6.6 47.25 2
    endloop
  endfacet
  facet normal -0.844329 0.535824 0
    outer loop
      vertex 6.29443 46.3095 0
      vertex 6.40209 46.4792 2
      vertex 6.40209 46.4792 0
    endloop
  endfacet
  facet normal -0.844329 0.535824 0
    outer loop
      vertex 6.40209 46.4792 2
      vertex 6.29443 46.3095 0
      vertex 6.29443 46.3095 2
    endloop
  endfacet
  facet normal -0.248688 0.968584 0
    outer loop
      vertex 5.49443 45.7283 0
      vertex 5.29981 45.6783 2
      vertex 5.49443 45.7283 2
    endloop
  endfacet
  facet normal -0.248688 0.968584 0
    outer loop
      vertex 5.29981 45.6783 2
      vertex 5.49443 45.7283 0
      vertex 5.29981 45.6783 0
    endloop
  endfacet
  facet normal -0.844329 -0.535824 0
    outer loop
      vertex 6.40209 48.0208 0
      vertex 6.29443 48.1905 2
      vertex 6.29443 48.1905 0
    endloop
  endfacet
  facet normal -0.844329 -0.535824 0
    outer loop
      vertex 6.29443 48.1905 2
      vertex 6.40209 48.0208 0
      vertex 6.40209 48.0208 2
    endloop
  endfacet
  facet normal -0.904828 -0.425778 0
    outer loop
      vertex 6.48764 47.839 0
      vertex 6.40209 48.0208 2
      vertex 6.40209 48.0208 0
    endloop
  endfacet
  facet normal -0.904828 -0.425778 0
    outer loop
      vertex 6.40209 48.0208 2
      vertex 6.48764 47.839 0
      vertex 6.48764 47.839 2
    endloop
  endfacet
  facet normal -0.951057 -0.309017 0
    outer loop
      vertex 6.54973 47.6479 0
      vertex 6.48764 47.839 2
      vertex 6.48764 47.839 0
    endloop
  endfacet
  facet normal -0.951057 -0.309017 0
    outer loop
      vertex 6.48764 47.839 2
      vertex 6.54973 47.6479 0
      vertex 6.54973 47.6479 2
    endloop
  endfacet
  facet normal 0 -1 0
    outer loop
      vertex 4.89954 48.8468 0
      vertex 5.10046 48.8468 2
      vertex 4.89954 48.8468 2
    endloop
  endfacet
  facet normal 0 -1 -0
    outer loop
      vertex 5.10046 48.8468 2
      vertex 4.89954 48.8468 0
      vertex 5.10046 48.8468 0
    endloop
  endfacet
  facet normal 0.998027 -0.0627896 0
    outer loop
      vertex 3.4 47.25 2
      vertex 3.41262 47.4505 0
      vertex 3.41262 47.4505 2
    endloop
  endfacet
  facet normal 0.998027 -0.0627896 0
    outer loop
      vertex 3.41262 47.4505 0
      vertex 3.4 47.25 2
      vertex 3.4 47.25 0
    endloop
  endfacet
  facet normal -0.904824 0.425785 0
    outer loop
      vertex 6.40209 46.4792 0
      vertex 6.48764 46.661 2
      vertex 6.48764 46.661 0
    endloop
  endfacet
  facet normal -0.904824 0.425785 0
    outer loop
      vertex 6.48764 46.661 2
      vertex 6.40209 46.4792 0
      vertex 6.40209 46.4792 2
    endloop
  endfacet
  facet normal 0.125341 0.992114 -0
    outer loop
      vertex 4.89954 45.6532 0
      vertex 4.70019 45.6783 2
      vertex 4.89954 45.6532 2
    endloop
  endfacet
  facet normal 0.125341 0.992114 0
    outer loop
      vertex 4.70019 45.6783 2
      vertex 4.89954 45.6532 0
      vertex 4.70019 45.6783 0
    endloop
  endfacet
  facet normal 0 1 -0
    outer loop
      vertex 5.10046 45.6532 0
      vertex 4.89954 45.6532 2
      vertex 5.10046 45.6532 2
    endloop
  endfacet
  facet normal 0 1 0
    outer loop
      vertex 4.89954 45.6532 2
      vertex 5.10046 45.6532 0
      vertex 4.89954 45.6532 0
    endloop
  endfacet
  facet normal 0.982286 0.187386 0
    outer loop
      vertex 3.45027 46.8521 2
      vertex 3.41262 47.0495 0
      vertex 3.41262 47.0495 2
    endloop
  endfacet
  facet normal 0.982286 0.187386 0
    outer loop
      vertex 3.41262 47.0495 0
      vertex 3.45027 46.8521 2
      vertex 3.45027 46.8521 0
    endloop
  endfacet
  facet normal 0.951058 0.309011 0
    outer loop
      vertex 3.51236 46.661 2
      vertex 3.45027 46.8521 0
      vertex 3.45027 46.8521 2
    endloop
  endfacet
  facet normal 0.951058 0.309011 0
    outer loop
      vertex 3.45027 46.8521 0
      vertex 3.51236 46.661 2
      vertex 3.51236 46.661 0
    endloop
  endfacet
  facet normal 0.770514 0.637423 0
    outer loop
      vertex 3.83365 46.1547 2
      vertex 3.70557 46.3095 0
      vertex 3.70557 46.3095 2
    endloop
  endfacet
  facet normal 0.770514 0.637423 0
    outer loop
      vertex 3.70557 46.3095 0
      vertex 3.83365 46.1547 2
      vertex 3.83365 46.1547 0
    endloop
  endfacet
  facet normal 0.844329 0.535824 0
    outer loop
      vertex 3.70557 46.3095 2
      vertex 3.59791 46.4792 0
      vertex 3.59791 46.4792 2
    endloop
  endfacet
  facet normal 0.844329 0.535824 0
    outer loop
      vertex 3.59791 46.4792 0
      vertex 3.70557 46.3095 2
      vertex 3.70557 46.3095 0
    endloop
  endfacet
  facet normal -0.481751 0.876308 0
    outer loop
      vertex 5.85732 45.8991 0
      vertex 5.68125 45.8023 2
      vertex 5.85732 45.8991 2
    endloop
  endfacet
  facet normal -0.481751 0.876308 0
    outer loop
      vertex 5.68125 45.8023 2
      vertex 5.85732 45.8991 0
      vertex 5.68125 45.8023 0
    endloop
  endfacet
  facet normal -0.368123 0.929777 0
    outer loop
      vertex 5.68125 45.8023 0
      vertex 5.49443 45.7283 2
      vertex 5.68125 45.8023 2
    endloop
  endfacet
  facet normal -0.368123 0.929777 0
    outer loop
      vertex 5.49443 45.7283 2
      vertex 5.68125 45.8023 0
      vertex 5.49443 45.7283 0
    endloop
  endfacet
  facet normal -0.770514 0.637423 0
    outer loop
      vertex 6.16635 46.1547 0
      vertex 6.29443 46.3095 2
      vertex 6.29443 46.3095 0
    endloop
  endfacet
  facet normal -0.770514 0.637423 0
    outer loop
      vertex 6.29443 46.3095 2
      vertex 6.16635 46.1547 0
      vertex 6.16635 46.1547 2
    endloop
  endfacet
  facet normal 0.248688 0.968584 -0
    outer loop
      vertex 4.70019 45.6783 0
      vertex 4.50557 45.7283 2
      vertex 4.70019 45.6783 2
    endloop
  endfacet
  facet normal 0.248688 0.968584 0
    outer loop
      vertex 4.50557 45.7283 2
      vertex 4.70019 45.6783 0
      vertex 4.50557 45.7283 0
    endloop
  endfacet
  facet normal -0.125341 0.992114 0
    outer loop
      vertex 5.29981 45.6783 0
      vertex 5.10046 45.6532 2
      vertex 5.29981 45.6783 2
    endloop
  endfacet
  facet normal -0.125341 0.992114 0
    outer loop
      vertex 5.10046 45.6532 2
      vertex 5.29981 45.6783 0
      vertex 5.10046 45.6532 0
    endloop
  endfacet
  facet normal 0.684548 0.728968 -0
    outer loop
      vertex 3.98012 46.0172 0
      vertex 3.83365 46.1547 2
      vertex 3.98012 46.0172 2
    endloop
  endfacet
  facet normal 0.684548 0.728968 0
    outer loop
      vertex 3.83365 46.1547 2
      vertex 3.98012 46.0172 0
      vertex 3.83365 46.1547 0
    endloop
  endfacet
  facet normal 0.587786 0.809017 -0
    outer loop
      vertex 4.14268 45.8991 0
      vertex 3.98012 46.0172 2
      vertex 4.14268 45.8991 2
    endloop
  endfacet
  facet normal 0.587786 0.809017 0
    outer loop
      vertex 3.98012 46.0172 2
      vertex 4.14268 45.8991 0
      vertex 3.98012 46.0172 0
    endloop
  endfacet
  facet normal -0.684548 0.728968 0
    outer loop
      vertex 6.16635 46.1547 0
      vertex 6.01988 46.0172 2
      vertex 6.16635 46.1547 2
    endloop
  endfacet
  facet normal -0.684548 0.728968 0
    outer loop
      vertex 6.01988 46.0172 2
      vertex 6.16635 46.1547 0
      vertex 6.01988 46.0172 0
    endloop
  endfacet
  facet normal 0.904824 0.425785 0
    outer loop
      vertex 3.59791 46.4792 2
      vertex 3.51236 46.661 0
      vertex 3.51236 46.661 2
    endloop
  endfacet
  facet normal 0.904824 0.425785 0
    outer loop
      vertex 3.51236 46.661 0
      vertex 3.59791 46.4792 2
      vertex 3.59791 46.4792 0
    endloop
  endfacet
  facet normal 0.368123 0.929777 -0
    outer loop
      vertex 4.50557 45.7283 0
      vertex 4.31875 45.8023 2
      vertex 4.50557 45.7283 2
    endloop
  endfacet
  facet normal 0.368123 0.929777 0
    outer loop
      vertex 4.31875 45.8023 2
      vertex 4.50557 45.7283 0
      vertex 4.31875 45.8023 0
    endloop
  endfacet
  facet normal 0.481751 0.876308 -0
    outer loop
      vertex 4.31875 45.8023 0
      vertex 4.14268 45.8991 2
      vertex 4.31875 45.8023 2
    endloop
  endfacet
  facet normal 0.481751 0.876308 0
    outer loop
      vertex 4.14268 45.8991 2
      vertex 4.31875 45.8023 0
      vertex 4.14268 45.8991 0
    endloop
  endfacet
  facet normal -1 0 0
    outer loop
      vertex 0 0 0
      vertex 0 52.5 2
      vertex 0 52.5 0
    endloop
  endfacet
  facet normal -1 -0 0
    outer loop
      vertex 0 52.5 2
      vertex 0 0 0
      vertex 0 0 2
    endloop
  endfacet
  facet normal 0 0 1
    outer loop
      vertex 6.54973 46.8521 2
      vertex 10 52.5 2
      vertex 6.58738 47.0495 2
    endloop
  endfacet
  facet normal 0 0 1
    outer loop
      vertex 10 52.5 2
      vertex 6.58738 5.95053 2
      vertex 6.6 5.75 2
    endloop
  endfacet
  facet normal 0 0 1
    outer loop
      vertex 6.48764 46.661 2
      vertex 10 52.5 2
      vertex 6.54973 46.8521 2
    endloop
  endfacet
  facet normal 0 0 1
    outer loop
      vertex 10 52.5 2
      vertex 6.54973 6.1479 2
      vertex 6.58738 5.95053 2
    endloop
  endfacet
  facet normal 0 0 1
    outer loop
      vertex 6.40209 46.4792 2
      vertex 10 52.5 2
      vertex 6.48764 46.661 2
    endloop
  endfacet
  facet normal 0 0 1
    outer loop
      vertex 10 52.5 2
      vertex 6.48764 6.339 2
      vertex 6.54973 6.1479 2
    endloop
  endfacet
  facet normal 0 0 1
    outer loop
      vertex 6.40209 6.52081 2
      vertex 10 52.5 2
      vertex 6.40209 46.4792 2
    endloop
  endfacet
  facet normal 0 0 1
    outer loop
      vertex 10 52.5 2
      vertex 6.40209 6.52081 2
      vertex 6.48764 6.339 2
    endloop
  endfacet
  facet normal -0 0 1
    outer loop
      vertex 6.29443 46.3095 2
      vertex 6.40209 6.52081 2
      vertex 6.40209 46.4792 2
    endloop
  endfacet
  facet normal 0 0 1
    outer loop
      vertex 6.29443 46.3095 2
      vertex 6.29443 6.69046 2
      vertex 6.40209 6.52081 2
    endloop
  endfacet
  facet normal -0 0 1
    outer loop
      vertex 6.16635 46.1547 2
      vertex 6.29443 6.69046 2
      vertex 6.29443 46.3095 2
    endloop
  endfacet
  facet normal 0 0 1
    outer loop
      vertex 6.16635 46.1547 2
      vertex 6.16635 6.84527 2
      vertex 6.29443 6.69046 2
    endloop
  endfacet
  facet normal -0 0 1
    outer loop
      vertex 6.01988 46.0172 2
      vertex 6.16635 6.84527 2
      vertex 6.16635 46.1547 2
    endloop
  endfacet
  facet normal 0 0 1
    outer loop
      vertex 6.01988 46.0172 2
      vertex 6.01988 6.98282 2
      vertex 6.16635 6.84527 2
    endloop
  endfacet
  facet normal -0 0 1
    outer loop
      vertex 5.85732 45.8991 2
      vertex 6.01988 6.98282 2
      vertex 6.01988 46.0172 2
    endloop
  endfacet
  facet normal 0 0 1
    outer loop
      vertex 5.85732 45.8991 2
      vertex 5.85732 7.10092 2
      vertex 6.01988 6.98282 2
    endloop
  endfacet
  facet normal -0 0 1
    outer loop
      vertex 5.68125 45.8023 2
      vertex 5.85732 7.10092 2
      vertex 5.85732 45.8991 2
    endloop
  endfacet
  facet normal 0 0 1
    outer loop
      vertex 5.68125 45.8023 2
      vertex 5.68125 7.19772 2
      vertex 5.85732 7.10092 2
    endloop
  endfacet
  facet normal -0 0 1
    outer loop
      vertex 5.49443 45.7283 2
      vertex 5.68125 7.19772 2
      vertex 5.68125 45.8023 2
    endloop
  endfacet
  facet normal 0 0 1
    outer loop
      vertex 5.49443 45.7283 2
      vertex 5.49443 7.27169 2
      vertex 5.68125 7.19772 2
    endloop
  endfacet
  facet normal -0 0 1
    outer loop
      vertex 5.29981 45.6783 2
      vertex 5.49443 7.27169 2
      vertex 5.49443 45.7283 2
    endloop
  endfacet
  facet normal 0 0 1
    outer loop
      vertex 5.29981 45.6783 2
      vertex 5.29981 7.32166 2
      vertex 5.49443 7.27169 2
    endloop
  endfacet
  facet normal -0 0 1
    outer loop
      vertex 5.10046 45.6532 2
      vertex 5.29981 7.32166 2
      vertex 5.29981 45.6783 2
    endloop
  endfacet
  facet normal 0 0 1
    outer loop
      vertex 5.10046 45.6532 2
      vertex 5.10046 7.34684 2
      vertex 5.29981 7.32166 2
    endloop
  endfacet
  facet normal -0 0 1
    outer loop
      vertex 4.89954 45.6532 2
      vertex 5.10046 7.34684 2
      vertex 5.10046 45.6532 2
    endloop
  endfacet
  facet normal 0 0 1
    outer loop
      vertex 4.89954 45.6532 2
      vertex 4.89954 7.34684 2
      vertex 5.10046 7.34684 2
    endloop
  endfacet
  facet normal 0 0 1
    outer loop
      vertex 4.70019 45.6783 2
      vertex 4.89954 7.34684 2
      vertex 4.89954 45.6532 2
    endloop
  endfacet
  facet normal 0 0 1
    outer loop
      vertex 4.70019 45.6783 2
      vertex 4.70019 7.32166 2
      vertex 4.89954 7.34684 2
    endloop
  endfacet
  facet normal 0 0 1
    outer loop
      vertex 4.50557 45.7283 2
      vertex 4.70019 7.32166 2
      vertex 4.70019 45.6783 2
    endloop
  endfacet
  facet normal 0 0 1
    outer loop
      vertex 4.50557 45.7283 2
      vertex 4.50557 7.27169 2
      vertex 4.70019 7.32166 2
    endloop
  endfacet
  facet normal 0 0 1
    outer loop
      vertex 4.31875 45.8023 2
      vertex 4.50557 7.27169 2
      vertex 4.50557 45.7283 2
    endloop
  endfacet
  facet normal 0 0 1
    outer loop
      vertex 4.31875 45.8023 2
      vertex 4.31875 7.19772 2
      vertex 4.50557 7.27169 2
    endloop
  endfacet
  facet normal 0 0 1
    outer loop
      vertex 4.14268 45.8991 2
      vertex 4.31875 7.19772 2
      vertex 4.31875 45.8023 2
    endloop
  endfacet
  facet normal 0 0 1
    outer loop
      vertex 4.14268 45.8991 2
      vertex 4.14268 7.10092 2
      vertex 4.31875 7.19772 2
    endloop
  endfacet
  facet normal 0 0 1
    outer loop
      vertex 3.98012 46.0172 2
      vertex 4.14268 7.10092 2
      vertex 4.14268 45.8991 2
    endloop
  endfacet
  facet normal 0 0 1
    outer loop
      vertex 3.98012 46.0172 2
      vertex 3.98012 6.98282 2
      vertex 4.14268 7.10092 2
    endloop
  endfacet
  facet normal 0 0 1
    outer loop
      vertex 3.83365 46.1547 2
      vertex 3.98012 6.98282 2
      vertex 3.98012 46.0172 2
    endloop
  endfacet
  facet normal 0 0 1
    outer loop
      vertex 3.83365 46.1547 2
      vertex 3.83365 6.84527 2
      vertex 3.98012 6.98282 2
    endloop
  endfacet
  facet normal 0 0 1
    outer loop
      vertex 3.70557 46.3095 2
      vertex 3.83365 6.84527 2
      vertex 3.83365 46.1547 2
    endloop
  endfacet
  facet normal 0 0 1
    outer loop
      vertex 3.70557 46.3095 2
      vertex 3.70557 6.69046 2
      vertex 3.83365 6.84527 2
    endloop
  endfacet
  facet normal 0 0 1
    outer loop
      vertex 3.59791 46.4792 2
      vertex 3.70557 6.69046 2
      vertex 3.70557 46.3095 2
    endloop
  endfacet
  facet normal 0 0 1
    outer loop
      vertex 3.59791 46.4792 2
      vertex 3.59791 6.52081 2
      vertex 3.70557 6.69046 2
    endloop
  endfacet
  facet normal 0 0 1
    outer loop
      vertex 0 52.5 2
      vertex 3.59791 46.4792 2
      vertex 3.51236 46.661 2
    endloop
  endfacet
  facet normal 0 0 1
    outer loop
      vertex 3.59791 46.4792 2
      vertex 0 52.5 2
      vertex 3.59791 6.52081 2
    endloop
  endfacet
  facet normal 0 0 1
    outer loop
      vertex 0 52.5 2
      vertex 3.51236 46.661 2
      vertex 3.45027 46.8521 2
    endloop
  endfacet
  facet normal 0 0 1
    outer loop
      vertex 3.59791 6.52081 2
      vertex 0 52.5 2
      vertex 3.51236 6.339 2
    endloop
  endfacet
  facet normal 0 0 1
    outer loop
      vertex 0 52.5 2
      vertex 3.45027 46.8521 2
      vertex 3.41262 47.0495 2
    endloop
  endfacet
  facet normal 0 0 1
    outer loop
      vertex 0 0 2
      vertex 3.51236 6.339 2
      vertex 0 52.5 2
    endloop
  endfacet
  facet normal 0 0 1
    outer loop
      vertex 0 52.5 2
      vertex 3.41262 47.0495 2
      vertex 3.4 47.25 2
    endloop
  endfacet
  facet normal 0 0 1
    outer loop
      vertex 3.51236 6.339 2
      vertex 0 0 2
      vertex 3.45027 6.1479 2
    endloop
  endfacet
  facet normal 0 0 1
    outer loop
      vertex 6.58738 47.0495 2
      vertex 10 52.5 2
      vertex 6.6 47.25 2
    endloop
  endfacet
  facet normal 0 0 1
    outer loop
      vertex 10 52.5 2
      vertex 6.58738 47.4505 2
      vertex 6.6 47.25 2
    endloop
  endfacet
  facet normal 0 0 1
    outer loop
      vertex 10 52.5 2
      vertex 6.54973 47.6479 2
      vertex 6.58738 47.4505 2
    endloop
  endfacet
  facet normal 0 0 1
    outer loop
      vertex 10 52.5 2
      vertex 6.48764 47.839 2
      vertex 6.54973 47.6479 2
    endloop
  endfacet
  facet normal 0 0 1
    outer loop
      vertex 10 52.5 2
      vertex 6.40209 48.0208 2
      vertex 6.48764 47.839 2
    endloop
  endfacet
  facet normal 0 0 1
    outer loop
      vertex 10 52.5 2
      vertex 6.29443 48.1905 2
      vertex 6.40209 48.0208 2
    endloop
  endfacet
  facet normal 0 0 1
    outer loop
      vertex 10 52.5 2
      vertex 6.16635 48.3453 2
      vertex 6.29443 48.1905 2
    endloop
  endfacet
  facet normal 0 0 1
    outer loop
      vertex 10 52.5 2
      vertex 6.01988 48.4828 2
      vertex 6.16635 48.3453 2
    endloop
  endfacet
  facet normal 0 0 1
    outer loop
      vertex 10 52.5 2
      vertex 5.85732 48.6009 2
      vertex 6.01988 48.4828 2
    endloop
  endfacet
  facet normal 0 0 1
    outer loop
      vertex 10 52.5 2
      vertex 5.68125 48.6977 2
      vertex 5.85732 48.6009 2
    endloop
  endfacet
  facet normal 0 0 1
    outer loop
      vertex 10 52.5 2
      vertex 5.49443 48.7717 2
      vertex 5.68125 48.6977 2
    endloop
  endfacet
  facet normal 0 0 1
    outer loop
      vertex 10 52.5 2
      vertex 5.29981 48.8217 2
      vertex 5.49443 48.7717 2
    endloop
  endfacet
  facet normal 0 0 1
    outer loop
      vertex 10 52.5 2
      vertex 5.10046 48.8468 2
      vertex 5.29981 48.8217 2
    endloop
  endfacet
  facet normal 0 0 1
    outer loop
      vertex 10 52.5 2
      vertex 4.89954 48.8468 2
      vertex 5.10046 48.8468 2
    endloop
  endfacet
  facet normal -0 0 1
    outer loop
      vertex 0 52.5 2
      vertex 4.89954 48.8468 2
      vertex 10 52.5 2
    endloop
  endfacet
  facet normal 0 0 1
    outer loop
      vertex 4.89954 48.8468 2
      vertex 0 52.5 2
      vertex 4.70019 48.8217 2
    endloop
  endfacet
  facet normal 0 0 1
    outer loop
      vertex 4.70019 48.8217 2
      vertex 0 52.5 2
      vertex 4.50557 48.7717 2
    endloop
  endfacet
  facet normal 0 0 1
    outer loop
      vertex 4.50557 48.7717 2
      vertex 0 52.5 2
      vertex 4.31875 48.6977 2
    endloop
  endfacet
  facet normal 0 0 1
    outer loop
      vertex 3.45027 6.1479 2
      vertex 0 0 2
      vertex 3.41262 5.95053 2
    endloop
  endfacet
  facet normal 0 0 1
    outer loop
      vertex 3.41262 5.95053 2
      vertex 0 0 2
      vertex 3.4 5.75 2
    endloop
  endfacet
  facet normal 0 0 1
    outer loop
      vertex 3.41262 47.4505 2
      vertex 0 52.5 2
      vertex 3.4 47.25 2
    endloop
  endfacet
  facet normal 0 0 1
    outer loop
      vertex 3.45027 47.6479 2
      vertex 0 52.5 2
      vertex 3.41262 47.4505 2
    endloop
  endfacet
  facet normal 0 0 1
    outer loop
      vertex 3.51236 47.839 2
      vertex 0 52.5 2
      vertex 3.45027 47.6479 2
    endloop
  endfacet
  facet normal 0 0 1
    outer loop
      vertex 3.59791 48.0208 2
      vertex 0 52.5 2
      vertex 3.51236 47.839 2
    endloop
  endfacet
  facet normal 0 0 1
    outer loop
      vertex 3.70557 48.1905 2
      vertex 0 52.5 2
      vertex 3.59791 48.0208 2
    endloop
  endfacet
  facet normal 0 0 1
    outer loop
      vertex 3.83365 48.3453 2
      vertex 0 52.5 2
      vertex 3.70557 48.1905 2
    endloop
  endfacet
  facet normal 0 0 1
    outer loop
      vertex 3.98012 48.4828 2
      vertex 0 52.5 2
      vertex 3.83365 48.3453 2
    endloop
  endfacet
  facet normal 0 0 1
    outer loop
      vertex 4.14268 48.6009 2
      vertex 0 52.5 2
      vertex 3.98012 48.4828 2
    endloop
  endfacet
  facet normal 0 0 1
    outer loop
      vertex 4.31875 48.6977 2
      vertex 0 52.5 2
      vertex 4.14268 48.6009 2
    endloop
  endfacet
  facet normal 0 0 1
    outer loop
      vertex 10 52.5 2
      vertex 6.6 5.75 2
      vertex 10 0 2
    endloop
  endfacet
  facet normal -0 0 1
    outer loop
      vertex 6.6 4.75 2
      vertex 10 0 2
      vertex 6.6 5.75 2
    endloop
  endfacet
  facet normal -0 0 1
    outer loop
      vertex 6.58738 4.54947 2
      vertex 10 0 2
      vertex 6.6 4.75 2
    endloop
  endfacet
  facet normal -0 0 1
    outer loop
      vertex 6.54973 4.3521 2
      vertex 10 0 2
      vertex 6.58738 4.54947 2
    endloop
  endfacet
  facet normal -0 0 1
    outer loop
      vertex 6.48764 4.161 2
      vertex 10 0 2
      vertex 6.54973 4.3521 2
    endloop
  endfacet
  facet normal -0 0 1
    outer loop
      vertex 6.40209 3.97919 2
      vertex 10 0 2
      vertex 6.48764 4.161 2
    endloop
  endfacet
  facet normal -0 0 1
    outer loop
      vertex 6.29443 3.80954 2
      vertex 10 0 2
      vertex 6.40209 3.97919 2
    endloop
  endfacet
  facet normal -0 0 1
    outer loop
      vertex 6.16635 3.65473 2
      vertex 10 0 2
      vertex 6.29443 3.80954 2
    endloop
  endfacet
  facet normal -0 0 1
    outer loop
      vertex 6.01988 3.51718 2
      vertex 10 0 2
      vertex 6.16635 3.65473 2
    endloop
  endfacet
  facet normal -0 0 1
    outer loop
      vertex 5.85732 3.39908 2
      vertex 10 0 2
      vertex 6.01988 3.51718 2
    endloop
  endfacet
  facet normal -0 0 1
    outer loop
      vertex 5.68125 3.30228 2
      vertex 10 0 2
      vertex 5.85732 3.39908 2
    endloop
  endfacet
  facet normal -0 0 1
    outer loop
      vertex 5.49443 3.22831 2
      vertex 10 0 2
      vertex 5.68125 3.30228 2
    endloop
  endfacet
  facet normal -0 0 1
    outer loop
      vertex 5.29981 3.17834 2
      vertex 10 0 2
      vertex 5.49443 3.22831 2
    endloop
  endfacet
  facet normal -0 0 1
    outer loop
      vertex 5.10046 3.15316 2
      vertex 10 0 2
      vertex 5.29981 3.17834 2
    endloop
  endfacet
  facet normal -0 0 1
    outer loop
      vertex 4.89954 3.15316 2
      vertex 10 0 2
      vertex 5.10046 3.15316 2
    endloop
  endfacet
  facet normal 0 0 1
    outer loop
      vertex 0 0 2
      vertex 4.89954 3.15316 2
      vertex 4.70019 3.17834 2
    endloop
  endfacet
  facet normal 0 0 1
    outer loop
      vertex 0 0 2
      vertex 4.70019 3.17834 2
      vertex 4.50557 3.22831 2
    endloop
  endfacet
  facet normal 0 0 1
    outer loop
      vertex 0 0 2
      vertex 4.50557 3.22831 2
      vertex 4.31875 3.30228 2
    endloop
  endfacet
  facet normal 0 0 1
    outer loop
      vertex 0 0 2
      vertex 4.31875 3.30228 2
      vertex 4.14268 3.39908 2
    endloop
  endfacet
  facet normal 0 0 1
    outer loop
      vertex 3.4 5.75 2
      vertex 0 0 2
      vertex 3.4 4.75 2
    endloop
  endfacet
  facet normal 0 0 1
    outer loop
      vertex 4.89954 3.15316 2
      vertex 0 0 2
      vertex 10 0 2
    endloop
  endfacet
  facet normal 0 0 1
    outer loop
      vertex 3.98012 3.51718 2
      vertex 0 0 2
      vertex 4.14268 3.39908 2
    endloop
  endfacet
  facet normal 0 0 1
    outer loop
      vertex 3.83365 3.65473 2
      vertex 0 0 2
      vertex 3.98012 3.51718 2
    endloop
  endfacet
  facet normal 0 0 1
    outer loop
      vertex 3.70557 3.80954 2
      vertex 0 0 2
      vertex 3.83365 3.65473 2
    endloop
  endfacet
  facet normal 0 0 1
    outer loop
      vertex 3.59791 3.97919 2
      vertex 0 0 2
      vertex 3.70557 3.80954 2
    endloop
  endfacet
  facet normal 0 0 1
    outer loop
      vertex 3.51236 4.161 2
      vertex 0 0 2
      vertex 3.59791 3.97919 2
    endloop
  endfacet
  facet normal 0 0 1
    outer loop
      vertex 3.45027 4.3521 2
      vertex 0 0 2
      vertex 3.51236 4.161 2
    endloop
  endfacet
  facet normal 0 0 1
    outer loop
      vertex 3.41262 4.54947 2
      vertex 0 0 2
      vertex 3.45027 4.3521 2
    endloop
  endfacet
  facet normal 0 0 1
    outer loop
      vertex 3.4 4.75 2
      vertex 0 0 2
      vertex 3.41262 4.54947 2
    endloop
  endfacet
  facet normal 1 -0 0
    outer loop
      vertex 10 0 2
      vertex 10 52.5 0
      vertex 10 52.5 2
    endloop
  endfacet
  facet normal 1 0 0
    outer loop
      vertex 10 52.5 0
      vertex 10 0 2
      vertex 10 0 0
    endloop
  endfacet
  facet normal 0 0 -1
    outer loop
      vertex 6.48764 6.339 0
      vertex 10 0 0
      vertex 6.54973 6.1479 0
    endloop
  endfacet
  facet normal 0 0 -1
    outer loop
      vertex 10 52.5 0
      vertex 6.58738 47.0495 0
      vertex 6.6 47.25 0
    endloop
  endfacet
  facet normal 0 0 -1
    outer loop
      vertex 10 0 0
      vertex 6.48764 6.339 0
      vertex 10 52.5 0
    endloop
  endfacet
  facet normal 0 0 -1
    outer loop
      vertex 10 52.5 0
      vertex 6.54973 46.8521 0
      vertex 6.58738 47.0495 0
    endloop
  endfacet
  facet normal 0 0 -1
    outer loop
      vertex 6.40209 6.52081 0
      vertex 10 52.5 0
      vertex 6.48764 6.339 0
    endloop
  endfacet
  facet normal 0 0 -1
    outer loop
      vertex 10 52.5 0
      vertex 6.48764 46.661 0
      vertex 6.54973 46.8521 0
    endloop
  endfacet
  facet normal 0 0 -1
    outer loop
      vertex 6.40209 46.4792 0
      vertex 10 52.5 0
      vertex 6.40209 6.52081 0
    endloop
  endfacet
  facet normal 0 0 -1
    outer loop
      vertex 10 52.5 0
      vertex 6.40209 46.4792 0
      vertex 6.48764 46.661 0
    endloop
  endfacet
  facet normal 0 0 -1
    outer loop
      vertex 6.29443 6.69046 0
      vertex 6.40209 46.4792 0
      vertex 6.40209 6.52081 0
    endloop
  endfacet
  facet normal 0 0 -1
    outer loop
      vertex 6.29443 6.69046 0
      vertex 6.29443 46.3095 0
      vertex 6.40209 46.4792 0
    endloop
  endfacet
  facet normal 0 0 -1
    outer loop
      vertex 6.16635 6.84527 0
      vertex 6.29443 46.3095 0
      vertex 6.29443 6.69046 0
    endloop
  endfacet
  facet normal 0 0 -1
    outer loop
      vertex 6.16635 6.84527 0
      vertex 6.16635 46.1547 0
      vertex 6.29443 46.3095 0
    endloop
  endfacet
  facet normal 0 0 -1
    outer loop
      vertex 6.01988 6.98282 0
      vertex 6.16635 46.1547 0
      vertex 6.16635 6.84527 0
    endloop
  endfacet
  facet normal 0 0 -1
    outer loop
      vertex 6.01988 6.98282 0
      vertex 6.01988 46.0172 0
      vertex 6.16635 46.1547 0
    endloop
  endfacet
  facet normal 0 0 -1
    outer loop
      vertex 5.85732 7.10092 0
      vertex 6.01988 46.0172 0
      vertex 6.01988 6.98282 0
    endloop
  endfacet
  facet normal 0 0 -1
    outer loop
      vertex 5.85732 7.10092 0
      vertex 5.85732 45.8991 0
      vertex 6.01988 46.0172 0
    endloop
  endfacet
  facet normal 0 0 -1
    outer loop
      vertex 5.68125 7.19772 0
      vertex 5.85732 45.8991 0
      vertex 5.85732 7.10092 0
    endloop
  endfacet
  facet normal 0 0 -1
    outer loop
      vertex 5.68125 7.19772 0
      vertex 5.68125 45.8023 0
      vertex 5.85732 45.8991 0
    endloop
  endfacet
  facet normal 0 0 -1
    outer loop
      vertex 5.49443 7.27169 0
      vertex 5.68125 45.8023 0
      vertex 5.68125 7.19772 0
    endloop
  endfacet
  facet normal 0 0 -1
    outer loop
      vertex 5.49443 7.27169 0
      vertex 5.49443 45.7283 0
      vertex 5.68125 45.8023 0
    endloop
  endfacet
  facet normal 0 0 -1
    outer loop
      vertex 5.29981 7.32166 0
      vertex 5.49443 45.7283 0
      vertex 5.49443 7.27169 0
    endloop
  endfacet
  facet normal 0 0 -1
    outer loop
      vertex 5.29981 7.32166 0
      vertex 5.29981 45.6783 0
      vertex 5.49443 45.7283 0
    endloop
  endfacet
  facet normal 0 0 -1
    outer loop
      vertex 5.10046 7.34684 0
      vertex 5.29981 45.6783 0
      vertex 5.29981 7.32166 0
    endloop
  endfacet
  facet normal 0 0 -1
    outer loop
      vertex 5.10046 7.34684 0
      vertex 5.10046 45.6532 0
      vertex 5.29981 45.6783 0
    endloop
  endfacet
  facet normal 0 0 -1
    outer loop
      vertex 4.89954 7.34684 0
      vertex 5.10046 45.6532 0
      vertex 5.10046 7.34684 0
    endloop
  endfacet
  facet normal 0 0 -1
    outer loop
      vertex 4.89954 7.34684 0
      vertex 4.89954 45.6532 0
      vertex 5.10046 45.6532 0
    endloop
  endfacet
  facet normal 0 0 -1
    outer loop
      vertex 4.70019 7.32166 0
      vertex 4.89954 45.6532 0
      vertex 4.89954 7.34684 0
    endloop
  endfacet
  facet normal 0 0 -1
    outer loop
      vertex 4.70019 7.32166 0
      vertex 4.70019 45.6783 0
      vertex 4.89954 45.6532 0
    endloop
  endfacet
  facet normal 0 0 -1
    outer loop
      vertex 4.50557 7.27169 0
      vertex 4.70019 45.6783 0
      vertex 4.70019 7.32166 0
    endloop
  endfacet
  facet normal 0 0 -1
    outer loop
      vertex 4.50557 7.27169 0
      vertex 4.50557 45.7283 0
      vertex 4.70019 45.6783 0
    endloop
  endfacet
  facet normal 0 0 -1
    outer loop
      vertex 4.31875 7.19772 0
      vertex 4.50557 45.7283 0
      vertex 4.50557 7.27169 0
    endloop
  endfacet
  facet normal 0 0 -1
    outer loop
      vertex 4.31875 7.19772 0
      vertex 4.31875 45.8023 0
      vertex 4.50557 45.7283 0
    endloop
  endfacet
  facet normal 0 0 -1
    outer loop
      vertex 4.14268 7.10092 0
      vertex 4.31875 45.8023 0
      vertex 4.31875 7.19772 0
    endloop
  endfacet
  facet normal 0 0 -1
    outer loop
      vertex 4.14268 7.10092 0
      vertex 4.14268 45.8991 0
      vertex 4.31875 45.8023 0
    endloop
  endfacet
  facet normal 0 0 -1
    outer loop
      vertex 3.98012 6.98282 0
      vertex 4.14268 45.8991 0
      vertex 4.14268 7.10092 0
    endloop
  endfacet
  facet normal 0 0 -1
    outer loop
      vertex 3.98012 6.98282 0
      vertex 3.98012 46.0172 0
      vertex 4.14268 45.8991 0
    endloop
  endfacet
  facet normal 0 0 -1
    outer loop
      vertex 3.83365 6.84527 0
      vertex 3.98012 46.0172 0
      vertex 3.98012 6.98282 0
    endloop
  endfacet
  facet normal 0 0 -1
    outer loop
      vertex 3.83365 6.84527 0
      vertex 3.83365 46.1547 0
      vertex 3.98012 46.0172 0
    endloop
  endfacet
  facet normal 0 0 -1
    outer loop
      vertex 3.70557 6.69046 0
      vertex 3.83365 46.1547 0
      vertex 3.83365 6.84527 0
    endloop
  endfacet
  facet normal 0 0 -1
    outer loop
      vertex 3.70557 6.69046 0
      vertex 3.70557 46.3095 0
      vertex 3.83365 46.1547 0
    endloop
  endfacet
  facet normal 0 0 -1
    outer loop
      vertex 3.59791 6.52081 0
      vertex 3.70557 46.3095 0
      vertex 3.70557 6.69046 0
    endloop
  endfacet
  facet normal 0 0 -1
    outer loop
      vertex 3.59791 6.52081 0
      vertex 3.59791 46.4792 0
      vertex 3.70557 46.3095 0
    endloop
  endfacet
  facet normal 0 0 -1
    outer loop
      vertex 0 52.5 0
      vertex 3.59791 6.52081 0
      vertex 3.51236 6.339 0
    endloop
  endfacet
  facet normal 0 0 -1
    outer loop
      vertex 3.59791 6.52081 0
      vertex 0 52.5 0
      vertex 3.59791 46.4792 0
    endloop
  endfacet
  facet normal 0 0 -1
    outer loop
      vertex 0 0 0
      vertex 3.51236 6.339 0
      vertex 3.45027 6.1479 0
    endloop
  endfacet
  facet normal 0 0 -1
    outer loop
      vertex 3.59791 46.4792 0
      vertex 0 52.5 0
      vertex 3.51236 46.661 0
    endloop
  endfacet
  facet normal 0 0 -1
    outer loop
      vertex 0 0 0
      vertex 3.45027 6.1479 0
      vertex 3.41262 5.95053 0
    endloop
  endfacet
  facet normal 0 0 -1
    outer loop
      vertex 3.51236 46.661 0
      vertex 0 52.5 0
      vertex 3.45027 46.8521 0
    endloop
  endfacet
  facet normal 0 0 -1
    outer loop
      vertex 0 0 0
      vertex 3.41262 5.95053 0
      vertex 3.4 5.75 0
    endloop
  endfacet
  facet normal 0 0 -1
    outer loop
      vertex 3.45027 46.8521 0
      vertex 0 52.5 0
      vertex 3.41262 47.0495 0
    endloop
  endfacet
  facet normal 0 0 -1
    outer loop
      vertex 6.6 5.75 0
      vertex 10 0 0
      vertex 6.6 4.75 0
    endloop
  endfacet
  facet normal 0 0 -1
    outer loop
      vertex 10 0 0
      vertex 6.58738 4.54947 0
      vertex 6.6 4.75 0
    endloop
  endfacet
  facet normal 0 0 -1
    outer loop
      vertex 10 0 0
      vertex 6.54973 4.3521 0
      vertex 6.58738 4.54947 0
    endloop
  endfacet
  facet normal 0 0 -1
    outer loop
      vertex 10 0 0
      vertex 6.48764 4.161 0
      vertex 6.54973 4.3521 0
    endloop
  endfacet
  facet normal 0 0 -1
    outer loop
      vertex 10 0 0
      vertex 6.40209 3.97919 0
      vertex 6.48764 4.161 0
    endloop
  endfacet
  facet normal 0 0 -1
    outer loop
      vertex 10 0 0
      vertex 6.29443 3.80954 0
      vertex 6.40209 3.97919 0
    endloop
  endfacet
  facet normal 0 0 -1
    outer loop
      vertex 10 0 0
      vertex 6.16635 3.65473 0
      vertex 6.29443 3.80954 0
    endloop
  endfacet
  facet normal 0 0 -1
    outer loop
      vertex 10 0 0
      vertex 6.01988 3.51718 0
      vertex 6.16635 3.65473 0
    endloop
  endfacet
  facet normal 0 0 -1
    outer loop
      vertex 10 0 0
      vertex 5.85732 3.39908 0
      vertex 6.01988 3.51718 0
    endloop
  endfacet
  facet normal 0 0 -1
    outer loop
      vertex 10 0 0
      vertex 5.68125 3.30228 0
      vertex 5.85732 3.39908 0
    endloop
  endfacet
  facet normal 0 0 -1
    outer loop
      vertex 10 0 0
      vertex 5.49443 3.22831 0
      vertex 5.68125 3.30228 0
    endloop
  endfacet
  facet normal 0 0 -1
    outer loop
      vertex 10 0 0
      vertex 5.29981 3.17834 0
      vertex 5.49443 3.22831 0
    endloop
  endfacet
  facet normal 0 0 -1
    outer loop
      vertex 10 0 0
      vertex 5.10046 3.15316 0
      vertex 5.29981 3.17834 0
    endloop
  endfacet
  facet normal 0 0 -1
    outer loop
      vertex 10 0 0
      vertex 4.89954 3.15316 0
      vertex 5.10046 3.15316 0
    endloop
  endfacet
  facet normal 0 0 -1
    outer loop
      vertex 0 0 0
      vertex 4.89954 3.15316 0
      vertex 10 0 0
    endloop
  endfacet
  facet normal -0 0 -1
    outer loop
      vertex 4.89954 3.15316 0
      vertex 0 0 0
      vertex 4.70019 3.17834 0
    endloop
  endfacet
  facet normal -0 0 -1
    outer loop
      vertex 4.70019 3.17834 0
      vertex 0 0 0
      vertex 4.50557 3.22831 0
    endloop
  endfacet
  facet normal -0 0 -1
    outer loop
      vertex 4.50557 3.22831 0
      vertex 0 0 0
      vertex 4.31875 3.30228 0
    endloop
  endfacet
  facet normal 0 0 -1
    outer loop
      vertex 0 0 0
      vertex 3.4 5.75 0
      vertex 3.4 4.75 0
    endloop
  endfacet
  facet normal -0 0 -1
    outer loop
      vertex 3.51236 6.339 0
      vertex 0 0 0
      vertex 0 52.5 0
    endloop
  endfacet
  facet normal -0 0 -1
    outer loop
      vertex 3.41262 4.54947 0
      vertex 0 0 0
      vertex 3.4 4.75 0
    endloop
  endfacet
  facet normal -0 0 -1
    outer loop
      vertex 3.45027 4.3521 0
      vertex 0 0 0
      vertex 3.41262 4.54947 0
    endloop
  endfacet
  facet normal -0 0 -1
    outer loop
      vertex 3.51236 4.161 0
      vertex 0 0 0
      vertex 3.45027 4.3521 0
    endloop
  endfacet
  facet normal -0 0 -1
    outer loop
      vertex 3.59791 3.97919 0
      vertex 0 0 0
      vertex 3.51236 4.161 0
    endloop
  endfacet
  facet normal -0 0 -1
    outer loop
      vertex 3.70557 3.80954 0
      vertex 0 0 0
      vertex 3.59791 3.97919 0
    endloop
  endfacet
  facet normal -0 0 -1
    outer loop
      vertex 3.83365 3.65473 0
      vertex 0 0 0
      vertex 3.70557 3.80954 0
    endloop
  endfacet
  facet normal -0 0 -1
    outer loop
      vertex 3.98012 3.51718 0
      vertex 0 0 0
      vertex 3.83365 3.65473 0
    endloop
  endfacet
  facet normal -0 0 -1
    outer loop
      vertex 4.14268 3.39908 0
      vertex 0 0 0
      vertex 3.98012 3.51718 0
    endloop
  endfacet
  facet normal -0 0 -1
    outer loop
      vertex 4.31875 3.30228 0
      vertex 0 0 0
      vertex 4.14268 3.39908 0
    endloop
  endfacet
  facet normal 0 0 -1
    outer loop
      vertex 6.58738 5.95053 0
      vertex 10 0 0
      vertex 6.6 5.75 0
    endloop
  endfacet
  facet normal 0 0 -1
    outer loop
      vertex 6.54973 6.1479 0
      vertex 10 0 0
      vertex 6.58738 5.95053 0
    endloop
  endfacet
  facet normal 0 0 -1
    outer loop
      vertex 6.58738 47.4505 0
      vertex 10 52.5 0
      vertex 6.6 47.25 0
    endloop
  endfacet
  facet normal 0 0 -1
    outer loop
      vertex 6.54973 47.6479 0
      vertex 10 52.5 0
      vertex 6.58738 47.4505 0
    endloop
  endfacet
  facet normal 0 0 -1
    outer loop
      vertex 6.48764 47.839 0
      vertex 10 52.5 0
      vertex 6.54973 47.6479 0
    endloop
  endfacet
  facet normal 0 0 -1
    outer loop
      vertex 6.40209 48.0208 0
      vertex 10 52.5 0
      vertex 6.48764 47.839 0
    endloop
  endfacet
  facet normal 0 0 -1
    outer loop
      vertex 6.29443 48.1905 0
      vertex 10 52.5 0
      vertex 6.40209 48.0208 0
    endloop
  endfacet
  facet normal 0 0 -1
    outer loop
      vertex 6.16635 48.3453 0
      vertex 10 52.5 0
      vertex 6.29443 48.1905 0
    endloop
  endfacet
  facet normal 0 0 -1
    outer loop
      vertex 6.01988 48.4828 0
      vertex 10 52.5 0
      vertex 6.16635 48.3453 0
    endloop
  endfacet
  facet normal 0 0 -1
    outer loop
      vertex 5.85732 48.6009 0
      vertex 10 52.5 0
      vertex 6.01988 48.4828 0
    endloop
  endfacet
  facet normal 0 0 -1
    outer loop
      vertex 5.68125 48.6977 0
      vertex 10 52.5 0
      vertex 5.85732 48.6009 0
    endloop
  endfacet
  facet normal 0 0 -1
    outer loop
      vertex 5.49443 48.7717 0
      vertex 10 52.5 0
      vertex 5.68125 48.6977 0
    endloop
  endfacet
  facet normal 0 0 -1
    outer loop
      vertex 5.29981 48.8217 0
      vertex 10 52.5 0
      vertex 5.49443 48.7717 0
    endloop
  endfacet
  facet normal 0 0 -1
    outer loop
      vertex 5.10046 48.8468 0
      vertex 10 52.5 0
      vertex 5.29981 48.8217 0
    endloop
  endfacet
  facet normal 0 0 -1
    outer loop
      vertex 4.89954 48.8468 0
      vertex 10 52.5 0
      vertex 5.10046 48.8468 0
    endloop
  endfacet
  facet normal 0 0 -1
    outer loop
      vertex 0 52.5 0
      vertex 4.89954 48.8468 0
      vertex 4.70019 48.8217 0
    endloop
  endfacet
  facet normal 0 0 -1
    outer loop
      vertex 0 52.5 0
      vertex 4.70019 48.8217 0
      vertex 4.50557 48.7717 0
    endloop
  endfacet
  facet normal 0 0 -1
    outer loop
      vertex 0 52.5 0
      vertex 4.50557 48.7717 0
      vertex 4.31875 48.6977 0
    endloop
  endfacet
  facet normal 0 0 -1
    outer loop
      vertex 0 52.5 0
      vertex 4.31875 48.6977 0
      vertex 4.14268 48.6009 0
    endloop
  endfacet
  facet normal 0 0 -1
    outer loop
      vertex 3.41262 47.0495 0
      vertex 0 52.5 0
      vertex 3.4 47.25 0
    endloop
  endfacet
  facet normal 0 0 -1
    outer loop
      vertex 4.89954 48.8468 0
      vertex 0 52.5 0
      vertex 10 52.5 0
    endloop
  endfacet
  facet normal 0 0 -1
    outer loop
      vertex 3.98012 48.4828 0
      vertex 0 52.5 0
      vertex 4.14268 48.6009 0
    endloop
  endfacet
  facet normal 0 0 -1
    outer loop
      vertex 3.83365 48.3453 0
      vertex 0 52.5 0
      vertex 3.98012 48.4828 0
    endloop
  endfacet
  facet normal 0 0 -1
    outer loop
      vertex 3.70557 48.1905 0
      vertex 0 52.5 0
      vertex 3.83365 48.3453 0
    endloop
  endfacet
  facet normal 0 0 -1
    outer loop
      vertex 3.59791 48.0208 0
      vertex 0 52.5 0
      vertex 3.70557 48.1905 0
    endloop
  endfacet
  facet normal 0 0 -1
    outer loop
      vertex 3.51236 47.839 0
      vertex 0 52.5 0
      vertex 3.59791 48.0208 0
    endloop
  endfacet
  facet normal 0 0 -1
    outer loop
      vertex 3.45027 47.6479 0
      vertex 0 52.5 0
      vertex 3.51236 47.839 0
    endloop
  endfacet
  facet normal 0 0 -1
    outer loop
      vertex 3.41262 47.4505 0
      vertex 0 52.5 0
      vertex 3.45027 47.6479 0
    endloop
  endfacet
  facet normal 0 0 -1
    outer loop
      vertex 3.4 47.25 0
      vertex 0 52.5 0
      vertex 3.41262 47.4505 0
    endloop
  endfacet
  facet normal 0 -1 0
    outer loop
      vertex 0 0 0
      vertex 10 0 2
      vertex 0 0 2
    endloop
  endfacet
  facet normal 0 -1 -0
    outer loop
      vertex 10 0 2
      vertex 0 0 0
      vertex 10 0 0
    endloop
  endfacet
  facet normal 0 1 -0
    outer loop
      vertex 10 52.5 0
      vertex 0 52.5 2
      vertex 10 52.5 2
    endloop
  endfacet
  facet normal 0 1 0
    outer loop
      vertex 0 52.5 2
      vertex 10 52.5 0
      vertex 0 52.5 0
    endloop
  endfacet
endsolid OpenSCAD_Model
