solid OpenSCAD_Model
  facet normal -1 0 0
    outer loop
      vertex 11 21 2
      vertex 11 22.99 0
      vertex 11 21 0
    endloop
  endfacet
  facet normal -1 0 0
    outer loop
      vertex 11 22.99 6.99
      vertex 11 23 8.99
      vertex 11 23 6.99
    endloop
  endfacet
  facet normal -1 0 0
    outer loop
      vertex 11 22.99 0
      vertex 11 21 2
      vertex 11 22.99 6.99
    endloop
  endfacet
  facet normal -1 0 0
    outer loop
      vertex 11 20.99 6.99
      vertex 11 22.99 6.99
      vertex 11 21 2
    endloop
  endfacet
  facet normal -1 0 -0
    outer loop
      vertex 11 21 8.99
      vertex 11 22.99 6.99
      vertex 11 20.99 6.99
    endloop
  endfacet
  facet normal -1 0 0
    outer loop
      vertex 11 20.99 6.99
      vertex 11 21 2
      vertex 11 20.99 2
    endloop
  endfacet
  facet normal -1 0 0
    outer loop
      vertex 11 22.99 6.99
      vertex 11 21 8.99
      vertex 11 23 8.99
    endloop
  endfacet
  facet normal -1 0 0
    outer loop
      vertex 11 20.9858 6.99
      vertex 11 21 8.99
      vertex 11 20.99 6.99
    endloop
  endfacet
  facet normal -1 0 0
    outer loop
      vertex 11 20.9858 6.99
      vertex 11 20.9858 8.99
      vertex 11 21 8.99
    endloop
  endfacet
  facet normal -1 0 -0
    outer loop
      vertex 11 20.9858 8.99
      vertex 11 20.9858 6.99
      vertex 11 19.9858 7.99
    endloop
  endfacet
  facet normal 1 0 0
    outer loop
      vertex 16 22.99 6.99
      vertex 16 20.99 6.99
      vertex 16 21 2
    endloop
  endfacet
  facet normal 1 -0 0
    outer loop
      vertex 16 20.9858 8.99
      vertex 16 20.99 6.99
      vertex 16 21 8.99
    endloop
  endfacet
  facet normal 1 0 0
    outer loop
      vertex 16 20.9858 8.99
      vertex 16 20.9858 6.99
      vertex 16 20.99 6.99
    endloop
  endfacet
  facet normal 1 0 -0
    outer loop
      vertex 16 20.9858 6.99
      vertex 16 20.9858 8.99
      vertex 16 19.9858 7.99
    endloop
  endfacet
  facet normal 1 0 0
    outer loop
      vertex 16 23 8.99
      vertex 16 22.99 6.99
      vertex 16 23 6.99
    endloop
  endfacet
  facet normal 1 -0 0
    outer loop
      vertex 16 21 8.99
      vertex 16 22.99 6.99
      vertex 16 23 8.99
    endloop
  endfacet
  facet normal 1 0 0
    outer loop
      vertex 16 20.99 6.99
      vertex 16 22.99 6.99
      vertex 16 21 8.99
    endloop
  endfacet
  facet normal 1 0 0
    outer loop
      vertex 16 22.99 6.99
      vertex 16 21 2
      vertex 16 22.99 0
    endloop
  endfacet
  facet normal 1 0 0
    outer loop
      vertex 16 22.99 0
      vertex 16 21 2
      vertex 16 21 0
    endloop
  endfacet
  facet normal 1 0 0
    outer loop
      vertex 16 21 2
      vertex 16 20.99 6.99
      vertex 16 20.99 2
    endloop
  endfacet
  facet normal 0 -0.707107 -0.707107
    outer loop
      vertex 11 20.9858 6.99
      vertex 16 19.9858 7.99
      vertex 11 19.9858 7.99
    endloop
  endfacet
  facet normal 0 -0.707107 -0.707107
    outer loop
      vertex 16 19.9858 7.99
      vertex 11 20.9858 6.99
      vertex 16 20.9858 6.99
    endloop
  endfacet
  facet normal 0 -0.707107 0.707107
    outer loop
      vertex 11 19.9858 7.99
      vertex 16 20.9858 8.99
      vertex 11 20.9858 8.99
    endloop
  endfacet
  facet normal 0 -0.707107 0.707107
    outer loop
      vertex 16 20.9858 8.99
      vertex 11 19.9858 7.99
      vertex 16 19.9858 7.99
    endloop
  endfacet
  facet normal 0 0 -1
    outer loop
      vertex 11 22.99 6.99
      vertex 16 23 6.99
      vertex 16 22.99 6.99
    endloop
  endfacet
  facet normal -0 0 -1
    outer loop
      vertex 16 23 6.99
      vertex 11 22.99 6.99
      vertex 11 23 6.99
    endloop
  endfacet
  facet normal 0 0 -1
    outer loop
      vertex 11 20.9858 6.99
      vertex 16 20.99 6.99
      vertex 16 20.9858 6.99
    endloop
  endfacet
  facet normal -0 0 -1
    outer loop
      vertex 16 20.99 6.99
      vertex 11 20.9858 6.99
      vertex 11 20.99 6.99
    endloop
  endfacet
  facet normal -0 0 1
    outer loop
      vertex 11 23 8.99
      vertex 16 21 8.99
      vertex 16 23 8.99
    endloop
  endfacet
  facet normal 0 0 1
    outer loop
      vertex 16 21 8.99
      vertex 11 23 8.99
      vertex 11 21 8.99
    endloop
  endfacet
  facet normal -0 0 1
    outer loop
      vertex 11 21 8.99
      vertex 16 20.9858 8.99
      vertex 16 21 8.99
    endloop
  endfacet
  facet normal 0 0 1
    outer loop
      vertex 16 20.9858 8.99
      vertex 11 21 8.99
      vertex 11 20.9858 8.99
    endloop
  endfacet
  facet normal 0 1 -0
    outer loop
      vertex 16 23 6.99
      vertex 11 23 8.99
      vertex 16 23 8.99
    endloop
  endfacet
  facet normal 0 1 0
    outer loop
      vertex 11 23 8.99
      vertex 16 23 6.99
      vertex 11 23 6.99
    endloop
  endfacet
  facet normal -2.22034e-16 -1 1.12208e-20
    outer loop
      vertex 26.9858 2.252e-16 6.99
      vertex 26.99 2.24265e-16 7
      vertex 25.9858 4.47245e-16 7.99
    endloop
  endfacet
  facet normal -2.22007e-16 -1 -0
    outer loop
      vertex 26.99 2.24265e-16 7
      vertex 26.9858 2.252e-16 6.99
      vertex 26.99 2.24265e-16 6.99
    endloop
  endfacet
  facet normal -2.22033e-16 -1 -5.61507e-23
    outer loop
      vertex 26.99 2.24265e-16 7
      vertex 27 2.22045e-16 8.99
      vertex 26.9858 2.252e-16 8.99
    endloop
  endfacet
  facet normal -2.22045e-16 -1 -7.99753e-23
    outer loop
      vertex 26.99 2.24265e-16 7
      vertex 26.9858 2.252e-16 8.99
      vertex 25.9858 4.47245e-16 7.99
    endloop
  endfacet
  facet normal -2.22045e-16 -1 0
    outer loop
      vertex 27 2.22045e-16 8.99
      vertex 26.99 2.24265e-16 7
      vertex 28 0 7
    endloop
  endfacet
  facet normal -2.22045e-16 -1 0
    outer loop
      vertex 27 2.22045e-16 8.99
      vertex 28 0 7
      vertex 29 -2.22045e-16 8.99
    endloop
  endfacet
  facet normal -2.22045e-16 -1 0
    outer loop
      vertex 29 -2.22045e-16 6.99
      vertex 28 0 7
      vertex 28 0 6.99
    endloop
  endfacet
  facet normal -2.22045e-16 -1 0
    outer loop
      vertex 28 0 7
      vertex 29 -2.22045e-16 6.99
      vertex 29 -2.22045e-16 8.99
    endloop
  endfacet
  facet normal 0 1 -0
    outer loop
      vertex 28 5 7
      vertex 27 5 8.99
      vertex 29 5 8.99
    endloop
  endfacet
  facet normal 0 1 0
    outer loop
      vertex 27 5 6.99
      vertex 27 5 8.99
      vertex 28 5 7
    endloop
  endfacet
  facet normal 0 1 0
    outer loop
      vertex 28 5 7
      vertex 29 5 8.99
      vertex 28.99 5 7
    endloop
  endfacet
  facet normal 0 1 -0
    outer loop
      vertex 29 5 6.99
      vertex 28.99 5 7
      vertex 29 5 8.99
    endloop
  endfacet
  facet normal 0 1 0
    outer loop
      vertex 28.99 5 7
      vertex 29 5 6.99
      vertex 28.99 5 6.99
    endloop
  endfacet
  facet normal 0 1 0
    outer loop
      vertex 27 5 8.99
      vertex 27 5 6.99
      vertex 26.9858 5 8.99
    endloop
  endfacet
  facet normal 0 1 0
    outer loop
      vertex 27 5 6.99
      vertex 28 5 7
      vertex 28 5 6.99
    endloop
  endfacet
  facet normal 0 1 0
    outer loop
      vertex 26.9858 5 8.99
      vertex 27 5 6.99
      vertex 25.9858 5 7.99
    endloop
  endfacet
  facet normal 0 1 0
    outer loop
      vertex 25.9858 5 7.99
      vertex 27 5 6.99
      vertex 26.9858 5 6.99
    endloop
  endfacet
  facet normal -0.707107 0 0.707107
    outer loop
      vertex 25.9858 4.47245e-16 7.99
      vertex 26.9858 5 8.99
      vertex 25.9858 5 7.99
    endloop
  endfacet
  facet normal -0.707107 0 0.707107
    outer loop
      vertex 26.9858 5 8.99
      vertex 25.9858 4.47245e-16 7.99
      vertex 26.9858 2.252e-16 8.99
    endloop
  endfacet
  facet normal -0.707107 0 -0.707107
    outer loop
      vertex 26.9858 5 6.99
      vertex 25.9858 4.47245e-16 7.99
      vertex 25.9858 5 7.99
    endloop
  endfacet
  facet normal -0.707107 0 -0.707107
    outer loop
      vertex 25.9858 4.47245e-16 7.99
      vertex 26.9858 5 6.99
      vertex 26.9858 2.252e-16 6.99
    endloop
  endfacet
  facet normal -0 0 1
    outer loop
      vertex 27 5 8.99
      vertex 29 -2.22045e-16 8.99
      vertex 29 5 8.99
    endloop
  endfacet
  facet normal 0 0 1
    outer loop
      vertex 29 -2.22045e-16 8.99
      vertex 27 5 8.99
      vertex 27 2.22045e-16 8.99
    endloop
  endfacet
  facet normal -0 0 1
    outer loop
      vertex 26.9858 5 8.99
      vertex 27 2.22045e-16 8.99
      vertex 27 5 8.99
    endloop
  endfacet
  facet normal 0 0 1
    outer loop
      vertex 27 2.22045e-16 8.99
      vertex 26.9858 5 8.99
      vertex 26.9858 2.252e-16 8.99
    endloop
  endfacet
  facet normal 0 0 -1
    outer loop
      vertex 29 -2.22045e-16 6.99
      vertex 28.99 0 6.99
      vertex 29 5 6.99
    endloop
  endfacet
  facet normal -0 -0 -1
    outer loop
      vertex 28.99 0 6.99
      vertex 29 -2.22045e-16 6.99
      vertex 28 0 6.99
    endloop
  endfacet
  facet normal -0 0 -1
    outer loop
      vertex 29 5 6.99
      vertex 28.99 0 6.99
      vertex 28.99 5 6.99
    endloop
  endfacet
  facet normal 0 0 -1
    outer loop
      vertex 26.9858 2.252e-16 6.99
      vertex 26.99 5 6.99
      vertex 26.99 2.24265e-16 6.99
    endloop
  endfacet
  facet normal -0 0 -1
    outer loop
      vertex 26.99 5 6.99
      vertex 26.9858 2.252e-16 6.99
      vertex 26.9858 5 6.99
    endloop
  endfacet
  facet normal 0 0 0
    outer loop
      vertex 26.99 5 6.99
      vertex 26.9858 5 6.99
      vertex 27 5 6.99
    endloop
  endfacet
  facet normal 1 -0 0
    outer loop
      vertex 29 -2.22045e-16 8.99
      vertex 29 5 6.99
      vertex 29 5 8.99
    endloop
  endfacet
  facet normal 1 0 0
    outer loop
      vertex 29 5 6.99
      vertex 29 -2.22045e-16 8.99
      vertex 29 -2.22045e-16 6.99
    endloop
  endfacet
  facet normal -1 0 0
    outer loop
      vertex 11 0.00999928 2
      vertex 11 0 2
      vertex 11 0.00999928 6.99
    endloop
  endfacet
  facet normal -1 0 0
    outer loop
      vertex 11 0.0142129 6.99
      vertex 11 0.0142129 8.99
      vertex 11 1.01421 7.99
    endloop
  endfacet
  facet normal -1 0 0
    outer loop
      vertex 11 0.00999928 6.99
      vertex 11 0.0142129 8.99
      vertex 11 0.0142129 6.99
    endloop
  endfacet
  facet normal -1 0 0
    outer loop
      vertex 11 0.00999928 6.99
      vertex 11 0 8.99
      vertex 11 0.0142129 8.99
    endloop
  endfacet
  facet normal -1 0 0
    outer loop
      vertex 11 -1.99 6.99
      vertex 11 0.00999928 6.99
      vertex 11 0 2
    endloop
  endfacet
  facet normal -1 0 0
    outer loop
      vertex 11 -1.99 0
      vertex 11 0 2
      vertex 11 0 0
    endloop
  endfacet
  facet normal -1 -0 0
    outer loop
      vertex 11 0 2
      vertex 11 -1.99 0
      vertex 11 -1.99 6.99
    endloop
  endfacet
  facet normal -1 0 0
    outer loop
      vertex 11 0.00999928 6.99
      vertex 11 -1.99 6.99
      vertex 11 0 8.99
    endloop
  endfacet
  facet normal -1 0 0
    outer loop
      vertex 11 -2 8.99
      vertex 11 -1.99 6.99
      vertex 11 -2 6.99
    endloop
  endfacet
  facet normal -1 0 0
    outer loop
      vertex 11 -1.99 6.99
      vertex 11 -2 8.99
      vertex 11 0 8.99
    endloop
  endfacet
  facet normal 1 0 0
    outer loop
      vertex 16 0.0142129 8.99
      vertex 16 0.0142129 6.99
      vertex 16 1.01421 7.99
    endloop
  endfacet
  facet normal 1 0 0
    outer loop
      vertex 16 0.0142129 8.99
      vertex 16 0.00999928 6.99
      vertex 16 0.0142129 6.99
    endloop
  endfacet
  facet normal 1 -0 0
    outer loop
      vertex 16 0 8.99
      vertex 16 0.00999928 6.99
      vertex 16 0.0142129 8.99
    endloop
  endfacet
  facet normal 1 0 0
    outer loop
      vertex 16 -1.99 6.99
      vertex 16 0.00999928 6.99
      vertex 16 0 8.99
    endloop
  endfacet
  facet normal 1 0 -0
    outer loop
      vertex 16 0 2
      vertex 16 0.00999928 6.99
      vertex 16 -1.99 6.99
    endloop
  endfacet
  facet normal 1 0 0
    outer loop
      vertex 16 0.00999928 6.99
      vertex 16 0 2
      vertex 16 0.00999928 2
    endloop
  endfacet
  facet normal 1 0 0
    outer loop
      vertex 16 -1.99 0
      vertex 16 0 2
      vertex 16 -1.99 6.99
    endloop
  endfacet
  facet normal 1 -0 0
    outer loop
      vertex 16 -2 8.99
      vertex 16 -1.99 6.99
      vertex 16 0 8.99
    endloop
  endfacet
  facet normal 1 0 0
    outer loop
      vertex 16 -1.99 6.99
      vertex 16 -2 8.99
      vertex 16 -2 6.99
    endloop
  endfacet
  facet normal 1 0 0
    outer loop
      vertex 16 0 2
      vertex 16 -1.99 0
      vertex 16 0 0
    endloop
  endfacet
  facet normal -0 0.707107 0.707107
    outer loop
      vertex 11 1.01421 7.99
      vertex 16 0.0142129 8.99
      vertex 16 1.01421 7.99
    endloop
  endfacet
  facet normal 0 0.707107 0.707107
    outer loop
      vertex 16 0.0142129 8.99
      vertex 11 1.01421 7.99
      vertex 11 0.0142129 8.99
    endloop
  endfacet
  facet normal 0 0.707107 -0.707107
    outer loop
      vertex 11 0.0142129 6.99
      vertex 16 1.01421 7.99
      vertex 16 0.0142129 6.99
    endloop
  endfacet
  facet normal 0 0.707107 -0.707107
    outer loop
      vertex 16 1.01421 7.99
      vertex 11 0.0142129 6.99
      vertex 11 1.01421 7.99
    endloop
  endfacet
  facet normal -0 0 1
    outer loop
      vertex 11 0 8.99
      vertex 16 -2 8.99
      vertex 16 0 8.99
    endloop
  endfacet
  facet normal 0 0 1
    outer loop
      vertex 16 -2 8.99
      vertex 11 0 8.99
      vertex 11 -2 8.99
    endloop
  endfacet
  facet normal -0 0 1
    outer loop
      vertex 11 0.0142129 8.99
      vertex 16 0 8.99
      vertex 16 0.0142129 8.99
    endloop
  endfacet
  facet normal 0 0 1
    outer loop
      vertex 16 0 8.99
      vertex 11 0.0142129 8.99
      vertex 11 0 8.99
    endloop
  endfacet
  facet normal 0 0 -1
    outer loop
      vertex 11 -2 6.99
      vertex 16 -1.99 6.99
      vertex 16 -2 6.99
    endloop
  endfacet
  facet normal -0 0 -1
    outer loop
      vertex 16 -1.99 6.99
      vertex 11 -2 6.99
      vertex 11 -1.99 6.99
    endloop
  endfacet
  facet normal 0 0 -1
    outer loop
      vertex 11 0.00999928 6.99
      vertex 16 0.0142129 6.99
      vertex 16 0.00999928 6.99
    endloop
  endfacet
  facet normal -0 0 -1
    outer loop
      vertex 16 0.0142129 6.99
      vertex 11 0.00999928 6.99
      vertex 11 0.0142129 6.99
    endloop
  endfacet
  facet normal 0 -1 0
    outer loop
      vertex 11 -2 6.99
      vertex 16 -2 8.99
      vertex 11 -2 8.99
    endloop
  endfacet
  facet normal 0 -1 -0
    outer loop
      vertex 16 -2 8.99
      vertex 11 -2 6.99
      vertex 16 -2 6.99
    endloop
  endfacet
  facet normal 0 1 0
    outer loop
      vertex -5.55112e-16 13 6.99
      vertex -5.55112e-16 13 8.99
      vertex 0.0142129 13 6.99
    endloop
  endfacet
  facet normal 0 1 0
    outer loop
      vertex -5.55112e-16 13 8.99
      vertex -5.55112e-16 13 6.99
      vertex -1 13 7
    endloop
  endfacet
  facet normal 0 1 0
    outer loop
      vertex -1 13 7
      vertex -5.55112e-16 13 6.99
      vertex -1 13 6.99
    endloop
  endfacet
  facet normal 0 1 0
    outer loop
      vertex 1.01421 13 7.99
      vertex -5.55112e-16 13 8.99
      vertex 0.0142129 13 8.99
    endloop
  endfacet
  facet normal 0 1 -0
    outer loop
      vertex 0.0142129 13 6.99
      vertex -5.55112e-16 13 8.99
      vertex 1.01421 13 7.99
    endloop
  endfacet
  facet normal 0 1 0
    outer loop
      vertex -5.55112e-16 13 8.99
      vertex -1 13 7
      vertex -2 13 8.99
    endloop
  endfacet
  facet normal 0 1 -0
    outer loop
      vertex -1.99 13 7
      vertex -2 13 8.99
      vertex -1 13 7
    endloop
  endfacet
  facet normal 0 1 0
    outer loop
      vertex -2 13 6.99
      vertex -1.99 13 7
      vertex -1.99 13 6.99
    endloop
  endfacet
  facet normal 0 1 0
    outer loop
      vertex -1.99 13 7
      vertex -2 13 6.99
      vertex -2 13 8.99
    endloop
  endfacet
  facet normal 0 -1 0
    outer loop
      vertex -1 8 7
      vertex 5.55112e-16 8 8.99
      vertex -2 8 8.99
    endloop
  endfacet
  facet normal 0 -1 0
    outer loop
      vertex 0.00999928 8 7
      vertex 5.55112e-16 8 8.99
      vertex -1 8 7
    endloop
  endfacet
  facet normal 0 -1 0
    outer loop
      vertex 5.55112e-16 8 8.99
      vertex 0.00999928 8 7
      vertex 0.0142129 8 8.99
    endloop
  endfacet
  facet normal 0 -1 0
    outer loop
      vertex -2 8 6.99
      vertex -1 8 7
      vertex -2 8 8.99
    endloop
  endfacet
  facet normal 0 -1 -0
    outer loop
      vertex -1 8 7
      vertex -2 8 6.99
      vertex -1 8 6.99
    endloop
  endfacet
  facet normal 0 -1 -0
    outer loop
      vertex 0.0142129 8 8.99
      vertex 0.00999928 8 7
      vertex 1.01421 8 7.99
    endloop
  endfacet
  facet normal 0 -1 0
    outer loop
      vertex 0.0142129 8 6.99
      vertex 0.00999928 8 7
      vertex 0.00999928 8 6.99
    endloop
  endfacet
  facet normal 0 -1 0
    outer loop
      vertex 0.00999928 8 7
      vertex 0.0142129 8 6.99
      vertex 1.01421 8 7.99
    endloop
  endfacet
  facet normal 0.707107 0 0.707107
    outer loop
      vertex 0.0142129 13 8.99
      vertex 1.01421 8 7.99
      vertex 1.01421 13 7.99
    endloop
  endfacet
  facet normal 0.707107 0 0.707107
    outer loop
      vertex 1.01421 8 7.99
      vertex 0.0142129 13 8.99
      vertex 0.0142129 8 8.99
    endloop
  endfacet
  facet normal 0.707107 0 -0.707107
    outer loop
      vertex 0.0142129 8 6.99
      vertex 1.01421 13 7.99
      vertex 1.01421 8 7.99
    endloop
  endfacet
  facet normal 0.707107 0 -0.707107
    outer loop
      vertex 1.01421 13 7.99
      vertex 0.0142129 8 6.99
      vertex 0.0142129 13 6.99
    endloop
  endfacet
  facet normal -0 0 1
    outer loop
      vertex -2 13 8.99
      vertex 5.55112e-16 8 8.99
      vertex -5.55112e-16 13 8.99
    endloop
  endfacet
  facet normal 0 0 1
    outer loop
      vertex 5.55112e-16 8 8.99
      vertex -2 13 8.99
      vertex -2 8 8.99
    endloop
  endfacet
  facet normal 0 0 1
    outer loop
      vertex 0.0142129 13 8.99
      vertex 5.55112e-16 8 8.99
      vertex 0.0142129 8 8.99
    endloop
  endfacet
  facet normal 0 -0 1
    outer loop
      vertex 5.55112e-16 8 8.99
      vertex 0.0142129 13 8.99
      vertex -5.55112e-16 13 8.99
    endloop
  endfacet
  facet normal 0 0 -1
    outer loop
      vertex -2 8 6.99
      vertex -1.99 13 6.99
      vertex -1.99 8 6.99
    endloop
  endfacet
  facet normal -0 0 -1
    outer loop
      vertex -1.99 13 6.99
      vertex -2 8 6.99
      vertex -2 13 6.99
    endloop
  endfacet
  facet normal 0 0 0
    outer loop
      vertex -2 8 6.99
      vertex -1.99 8 6.99
      vertex -1 8 6.99
    endloop
  endfacet
  facet normal 0 0 -1
    outer loop
      vertex 0.00999928 8 6.99
      vertex 0.0142129 13 6.99
      vertex 0.0142129 8 6.99
    endloop
  endfacet
  facet normal -0 0 -1
    outer loop
      vertex 0.0142129 13 6.99
      vertex 0.00999928 8 6.99
      vertex 0.00999928 13 6.99
    endloop
  endfacet
  facet normal 0 0 0
    outer loop
      vertex 0.0142129 13 6.99
      vertex 0.00999928 13 6.99
      vertex -5.55112e-16 13 6.99
    endloop
  endfacet
  facet normal -1 0 0
    outer loop
      vertex -2 8 6.99
      vertex -2 13 8.99
      vertex -2 13 6.99
    endloop
  endfacet
  facet normal -1 -0 0
    outer loop
      vertex -2 13 8.99
      vertex -2 8 6.99
      vertex -2 8 8.99
    endloop
  endfacet
  facet normal 0 1 -0
    outer loop
      vertex 16 22.99 0
      vertex 11 22.99 6.99
      vertex 16 22.99 6.99
    endloop
  endfacet
  facet normal 0 1 0
    outer loop
      vertex 11 22.99 6.99
      vertex 16 22.99 0
      vertex 11 22.99 0
    endloop
  endfacet
  facet normal 0 0 -1
    outer loop
      vertex -1.99 8 0
      vertex 0 13 0
      vertex 0 8 0
    endloop
  endfacet
  facet normal -0 0 -1
    outer loop
      vertex 0 13 0
      vertex -1.99 8 0
      vertex -1.99 13 0
    endloop
  endfacet
  facet normal 0 0 -1
    outer loop
      vertex 0 8 0
      vertex 11 0 0
      vertex 0 0 0
    endloop
  endfacet
  facet normal 0 0 -1
    outer loop
      vertex 11 0 0
      vertex 0 8 0
      vertex 11 21 0
    endloop
  endfacet
  facet normal 0 0 -1
    outer loop
      vertex 0 13 0
      vertex 11 21 0
      vertex 0 8 0
    endloop
  endfacet
  facet normal -0 0 -1
    outer loop
      vertex 11 21 0
      vertex 0 13 0
      vertex 0 21 0
    endloop
  endfacet
  facet normal 0 0 -1
    outer loop
      vertex 11 0 0
      vertex 16 0 0
      vertex 16 -1.99 0
    endloop
  endfacet
  facet normal 0 0 -1
    outer loop
      vertex 16 0 0
      vertex 11 0 0
      vertex 16 21 0
    endloop
  endfacet
  facet normal 0 0 -1
    outer loop
      vertex 11 0 0
      vertex 16 -1.99 0
      vertex 11 -1.99 0
    endloop
  endfacet
  facet normal 0 0 -1
    outer loop
      vertex 11 21 0
      vertex 16 21 0
      vertex 11 0 0
    endloop
  endfacet
  facet normal 0 0 -1
    outer loop
      vertex 16 21 0
      vertex 11 21 0
      vertex 16 22.99 0
    endloop
  endfacet
  facet normal -0 0 -1
    outer loop
      vertex 16 22.99 0
      vertex 11 21 0
      vertex 11 22.99 0
    endloop
  endfacet
  facet normal 0 0 -1
    outer loop
      vertex 28.99 0 0
      vertex 27 5 0
      vertex 28.99 5 0
    endloop
  endfacet
  facet normal 0 0 -1
    outer loop
      vertex 16 0 0
      vertex 27 5 0
      vertex 28.99 0 0
    endloop
  endfacet
  facet normal 0 0 -1
    outer loop
      vertex 16 21 0
      vertex 27 5 0
      vertex 16 0 0
    endloop
  endfacet
  facet normal 0 0 -1
    outer loop
      vertex 27 5 0
      vertex 16 21 0
      vertex 27 21 0
    endloop
  endfacet
  facet normal 0 -1 0
    outer loop
      vertex 11 20.99 2
      vertex 16 20.99 6.99
      vertex 11 20.99 6.99
    endloop
  endfacet
  facet normal 0 -1 -0
    outer loop
      vertex 16 20.99 6.99
      vertex 11 20.99 2
      vertex 16 20.99 2
    endloop
  endfacet
  facet normal -1 0 0
    outer loop
      vertex 26.99 5 2
      vertex 26.99 2.24265e-16 6.99
      vertex 26.99 5 6.99
    endloop
  endfacet
  facet normal -1 0 0
    outer loop
      vertex 26.99 0 2
      vertex 26.99 2.24265e-16 6.99
      vertex 26.99 5 2
    endloop
  endfacet
  facet normal -1 0 0
    outer loop
      vertex 26.99 0 7
      vertex 26.99 2.24265e-16 6.99
      vertex 26.99 0 2
    endloop
  endfacet
  facet normal -1 0 0
    outer loop
      vertex 26.99 2.24265e-16 6.99
      vertex 26.99 0 7
      vertex 26.99 2.24265e-16 7
    endloop
  endfacet
  facet normal 0 0 1
    outer loop
      vertex 26.99 2.24265e-16 7
      vertex 26.99 0 7
      vertex 28 0 7
    endloop
  endfacet
  facet normal 1 -0 0
    outer loop
      vertex 28.99 0 6.99
      vertex 28.99 5 0
      vertex 28.99 5 6.99
    endloop
  endfacet
  facet normal 1 0 0
    outer loop
      vertex 28.99 5 0
      vertex 28.99 0 6.99
      vertex 28.99 0 0
    endloop
  endfacet
  facet normal 0 0 0
    outer loop
      vertex 28.99 5 6.99
      vertex 28.99 5 0
      vertex 28.99 5 7
    endloop
  endfacet
  facet normal 0 -1 0
    outer loop
      vertex 16 0 2
      vertex 16 0 0
      vertex 26.99 0 2
    endloop
  endfacet
  facet normal 0 -1 0
    outer loop
      vertex 26.99 0 7
      vertex 28 0 6.99
      vertex 28 0 7
    endloop
  endfacet
  facet normal 0 -1 0
    outer loop
      vertex 26.99 0 2
      vertex 28 0 6.99
      vertex 26.99 0 7
    endloop
  endfacet
  facet normal 0 -1 0
    outer loop
      vertex 26.99 0 2
      vertex 28.99 0 6.99
      vertex 28 0 6.99
    endloop
  endfacet
  facet normal 0 -1 0
    outer loop
      vertex 26.99 0 2
      vertex 28.99 0 0
      vertex 28.99 0 6.99
    endloop
  endfacet
  facet normal 0 -1 0
    outer loop
      vertex 28.99 0 0
      vertex 26.99 0 2
      vertex 16 0 0
    endloop
  endfacet
  facet normal 0 -1 0
    outer loop
      vertex 0 0 0
      vertex 11 0 2
      vertex 0 0 2
    endloop
  endfacet
  facet normal 0 -1 -0
    outer loop
      vertex 11 0 2
      vertex 0 0 0
      vertex 11 0 0
    endloop
  endfacet
  facet normal 0 1 0
    outer loop
      vertex 28.99 5 7
      vertex 28 5 6.99
      vertex 28 5 7
    endloop
  endfacet
  facet normal 0 1 0
    outer loop
      vertex 27 5 2
      vertex 27 5 6.99
      vertex 28 5 6.99
    endloop
  endfacet
  facet normal 0 1 0
    outer loop
      vertex 27 5 6.99
      vertex 27 5 2
      vertex 26.99 5 6.99
    endloop
  endfacet
  facet normal 0 1 0
    outer loop
      vertex 28.99 5 7
      vertex 27 5 2
      vertex 28 5 6.99
    endloop
  endfacet
  facet normal 0 1 -0
    outer loop
      vertex 28.99 5 0
      vertex 27 5 2
      vertex 28.99 5 7
    endloop
  endfacet
  facet normal 0 1 0
    outer loop
      vertex 27 5 2
      vertex 28.99 5 0
      vertex 27 5 0
    endloop
  endfacet
  facet normal 0 1 0
    outer loop
      vertex 26.99 5 6.99
      vertex 27 5 2
      vertex 26.99 5 2
    endloop
  endfacet
  facet normal 0 -1 0
    outer loop
      vertex 11 -1.99 0
      vertex 16 -1.99 6.99
      vertex 11 -1.99 6.99
    endloop
  endfacet
  facet normal 0 -1 -0
    outer loop
      vertex 16 -1.99 6.99
      vertex 11 -1.99 0
      vertex 16 -1.99 0
    endloop
  endfacet
  facet normal 0 1 -0
    outer loop
      vertex 16 0.00999928 2
      vertex 11 0.00999928 6.99
      vertex 16 0.00999928 6.99
    endloop
  endfacet
  facet normal 0 1 0
    outer loop
      vertex 11 0.00999928 6.99
      vertex 16 0.00999928 2
      vertex 11 0.00999928 2
    endloop
  endfacet
  facet normal -1 0 0
    outer loop
      vertex -1.99 8 0
      vertex -1.99 13 6.99
      vertex -1.99 13 0
    endloop
  endfacet
  facet normal -1 -0 0
    outer loop
      vertex -1.99 13 6.99
      vertex -1.99 8 0
      vertex -1.99 8 6.99
    endloop
  endfacet
  facet normal 0 0 0
    outer loop
      vertex -1.99 13 0
      vertex -1.99 13 6.99
      vertex -1.99 13 7
    endloop
  endfacet
  facet normal 1 -0 0
    outer loop
      vertex 0.00999928 8 6.99
      vertex 0.00999928 13 2
      vertex 0.00999928 13 6.99
    endloop
  endfacet
  facet normal 1 0 0
    outer loop
      vertex 0.00999928 13 2
      vertex 0.00999928 8 6.99
      vertex 0.00999928 8 2
    endloop
  endfacet
  facet normal 0 0 0
    outer loop
      vertex 0.00999928 8 6.99
      vertex 0.00999928 8 7
      vertex 0.00999928 8 2
    endloop
  endfacet
  facet normal 0 1 -0
    outer loop
      vertex 0 13 2
      vertex -5.55112e-16 13 6.99
      vertex 0.00999928 13 6.99
    endloop
  endfacet
  facet normal 0 1 0
    outer loop
      vertex 0 13 2
      vertex 0.00999928 13 6.99
      vertex 0.00999928 13 2
    endloop
  endfacet
  facet normal 0 1 -0
    outer loop
      vertex -1 13 6.99
      vertex -1.99 13 7
      vertex -1 13 7
    endloop
  endfacet
  facet normal 0 1 0
    outer loop
      vertex -5.55112e-16 13 6.99
      vertex 0 13 2
      vertex -1 13 6.99
    endloop
  endfacet
  facet normal 0 1 0
    outer loop
      vertex -1 13 6.99
      vertex 0 13 2
      vertex -1.99 13 7
    endloop
  endfacet
  facet normal 0 1 0
    outer loop
      vertex -1.99 13 0
      vertex 0 13 2
      vertex 0 13 0
    endloop
  endfacet
  facet normal 0 1 0
    outer loop
      vertex 0 13 2
      vertex -1.99 13 0
      vertex -1.99 13 7
    endloop
  endfacet
  facet normal 0 -1 0
    outer loop
      vertex -1.99 8 6.99
      vertex 0 8 2
      vertex -1 8 6.99
    endloop
  endfacet
  facet normal 0 -1 0
    outer loop
      vertex -1.99 8 0
      vertex 0 8 2
      vertex -1.99 8 6.99
    endloop
  endfacet
  facet normal 0 -1 -0
    outer loop
      vertex 0 8 2
      vertex -1.99 8 0
      vertex 0 8 0
    endloop
  endfacet
  facet normal 0 -1 0
    outer loop
      vertex -1 8 6.99
      vertex 0.00999928 8 7
      vertex -1 8 7
    endloop
  endfacet
  facet normal 0 -1 0
    outer loop
      vertex 0 8 2
      vertex 0.00999928 8 7
      vertex -1 8 6.99
    endloop
  endfacet
  facet normal 0 -1 -0
    outer loop
      vertex 0.00999928 8 7
      vertex 0 8 2
      vertex 0.00999928 8 2
    endloop
  endfacet
  facet normal -1 0 0
    outer loop
      vertex 0 0 0
      vertex 0 8 2
      vertex 0 8 0
    endloop
  endfacet
  facet normal -1 -0 0
    outer loop
      vertex 0 8 2
      vertex 0 0 0
      vertex 0 0 2
    endloop
  endfacet
  facet normal -1 0 0
    outer loop
      vertex 0 13 0
      vertex 0 21 2
      vertex 0 21 0
    endloop
  endfacet
  facet normal -1 -0 0
    outer loop
      vertex 0 21 2
      vertex 0 13 0
      vertex 0 13 2
    endloop
  endfacet
  facet normal -0 0 1
    outer loop
      vertex 0 21 2
      vertex 11 20.99 2
      vertex 11 21 2
    endloop
  endfacet
  facet normal 0 0 1
    outer loop
      vertex 11 20.99 2
      vertex 0.00999928 13 2
      vertex 11 0.00999928 2
    endloop
  endfacet
  facet normal -0 0 1
    outer loop
      vertex 0.00999928 8 2
      vertex 11 0.00999928 2
      vertex 0.00999928 13 2
    endloop
  endfacet
  facet normal 0 0 1
    outer loop
      vertex 11 20.99 2
      vertex 0 21 2
      vertex 0.00999928 13 2
    endloop
  endfacet
  facet normal 0 0 1
    outer loop
      vertex 0.00999928 13 2
      vertex 0 21 2
      vertex 0 13 2
    endloop
  endfacet
  facet normal -0 0 1
    outer loop
      vertex 11 20.99 2
      vertex 16 0.00999928 2
      vertex 16 20.99 2
    endloop
  endfacet
  facet normal 0 0 1
    outer loop
      vertex 16 0.00999928 2
      vertex 11 20.99 2
      vertex 11 0.00999928 2
    endloop
  endfacet
  facet normal 0 0 1
    outer loop
      vertex 27 21 2
      vertex 26.99 5 2
      vertex 27 5 2
    endloop
  endfacet
  facet normal 0 0 1
    outer loop
      vertex 16 20.99 2
      vertex 27 21 2
      vertex 16 21 2
    endloop
  endfacet
  facet normal 0 0 1
    outer loop
      vertex 27 21 2
      vertex 16 20.99 2
      vertex 26.99 5 2
    endloop
  endfacet
  facet normal 0 0 1
    outer loop
      vertex 16 0.00999928 2
      vertex 26.99 5 2
      vertex 16 20.99 2
    endloop
  endfacet
  facet normal 0 0 1
    outer loop
      vertex 26.99 5 2
      vertex 16 0.00999928 2
      vertex 26.99 0 2
    endloop
  endfacet
  facet normal 0 0 1
    outer loop
      vertex 26.99 0 2
      vertex 16 0.00999928 2
      vertex 16 0 2
    endloop
  endfacet
  facet normal 0 0 1
    outer loop
      vertex 0 0 2
      vertex 11 0.00999928 2
      vertex 0.00999928 8 2
    endloop
  endfacet
  facet normal 0 0 1
    outer loop
      vertex 0 0 2
      vertex 0.00999928 8 2
      vertex 0 8 2
    endloop
  endfacet
  facet normal 0 0 1
    outer loop
      vertex 11 0.00999928 2
      vertex 0 0 2
      vertex 11 0 2
    endloop
  endfacet
  facet normal 1 -0 0
    outer loop
      vertex 27 5 2
      vertex 27 21 0
      vertex 27 21 2
    endloop
  endfacet
  facet normal 1 0 0
    outer loop
      vertex 27 21 0
      vertex 27 5 2
      vertex 27 5 0
    endloop
  endfacet
  facet normal 0 1 -0
    outer loop
      vertex 27 21 0
      vertex 16 21 2
      vertex 27 21 2
    endloop
  endfacet
  facet normal 0 1 0
    outer loop
      vertex 16 21 2
      vertex 27 21 0
      vertex 16 21 0
    endloop
  endfacet
  facet normal 0 1 -0
    outer loop
      vertex 11 21 0
      vertex 0 21 2
      vertex 11 21 2
    endloop
  endfacet
  facet normal 0 1 0
    outer loop
      vertex 0 21 2
      vertex 11 21 0
      vertex 0 21 0
    endloop
  endfacet
endsolid OpenSCAD_Model
