solid OpenSCAD_Model
  facet normal -1 0 0
    outer loop
      vertex -77.25 -37.75 -7
      vertex -77.25 -28.75 7
      vertex -77.25 -28.75 -7
    endloop
  endfacet
  facet normal -1 -0 0
    outer loop
      vertex -77.25 -28.75 7
      vertex -77.25 -37.75 -7
      vertex -77.25 -37.75 7
    endloop
  endfacet
  facet normal -0 0 1
    outer loop
      vertex -77.25 -28.75 7
      vertex -76.25 -36.75 7
      vertex -76.25 -28.75 7
    endloop
  endfacet
  facet normal 0 -0 1
    outer loop
      vertex -77.2342 -38.0007 7
      vertex -76.25 -36.75 7
      vertex -77.25 -37.75 7
    endloop
  endfacet
  facet normal 0 0 1
    outer loop
      vertex -76.25 -36.75 7
      vertex -77.0026 -38.7135 7
      vertex -76.8102 -38.9955 7
    endloop
  endfacet
  facet normal 0 0 1
    outer loop
      vertex -76.8102 -38.9955 7
      vertex -77.0026 -38.7135 7
      vertex -76.868 -38.9256 7
    endloop
  endfacet
  facet normal 0 0 1
    outer loop
      vertex -76.25 -36.75 7
      vertex -77.1096 -38.4862 7
      vertex -77.0026 -38.7135 7
    endloop
  endfacet
  facet normal 0 0 1
    outer loop
      vertex -76.25 -36.75 7
      vertex -77.1872 -38.2474 7
      vertex -77.1096 -38.4862 7
    endloop
  endfacet
  facet normal 0 0 1
    outer loop
      vertex -76.25 -36.75 7
      vertex -77.25 -28.75 7
      vertex -77.25 -37.75 7
    endloop
  endfacet
  facet normal 0 0 1
    outer loop
      vertex -76.25 -36.75 7
      vertex -77.2342 -38.0007 7
      vertex -77.1872 -38.2474 7
    endloop
  endfacet
  facet normal -0 0 1
    outer loop
      vertex 76.25 -36.75 7
      vertex 77.25 -37.75 7
      vertex 77.25 -28.75 7
    endloop
  endfacet
  facet normal -0 0 1
    outer loop
      vertex 76.2342 -37.0007 7
      vertex 77.25 -37.75 7
      vertex 76.25 -36.75 7
    endloop
  endfacet
  facet normal -0 0 1
    outer loop
      vertex 76.1872 -37.2474 7
      vertex 77.25 -37.75 7
      vertex 76.2342 -37.0007 7
    endloop
  endfacet
  facet normal -0 0 1
    outer loop
      vertex 76.1096 -37.4862 7
      vertex 77.25 -37.75 7
      vertex 76.1872 -37.2474 7
    endloop
  endfacet
  facet normal 0 0 1
    outer loop
      vertex 77.25 -37.75 7
      vertex 76.1096 -37.4862 7
      vertex 77.2342 -38.0007 7
    endloop
  endfacet
  facet normal -0 0 1
    outer loop
      vertex 76.0026 -37.7135 7
      vertex 77.2342 -38.0007 7
      vertex 76.1096 -37.4862 7
    endloop
  endfacet
  facet normal 0 0 1
    outer loop
      vertex 76.25 -36.75 7
      vertex 77.25 -28.75 7
      vertex 76.25 -28.75 7
    endloop
  endfacet
  facet normal 0 0 1
    outer loop
      vertex 77.2342 -38.0007 7
      vertex 76.0026 -37.7135 7
      vertex 77.1872 -38.2474 7
    endloop
  endfacet
  facet normal 0 0 1
    outer loop
      vertex 77.1872 -38.2474 7
      vertex 76.0026 -37.7135 7
      vertex 77.1096 -38.4862 7
    endloop
  endfacet
  facet normal -0 0 1
    outer loop
      vertex 75.868 -37.9256 7
      vertex 77.1096 -38.4862 7
      vertex 76.0026 -37.7135 7
    endloop
  endfacet
  facet normal 0 0 1
    outer loop
      vertex 77.1096 -38.4862 7
      vertex 75.868 -37.9256 7
      vertex 77.0026 -38.7135 7
    endloop
  endfacet
  facet normal 0 0 1
    outer loop
      vertex 77.0026 -38.7135 7
      vertex 75.868 -37.9256 7
      vertex 76.868 -38.9256 7
    endloop
  endfacet
  facet normal -0 0 1
    outer loop
      vertex 75.7079 -38.1191 7
      vertex 76.868 -38.9256 7
      vertex 75.868 -37.9256 7
    endloop
  endfacet
  facet normal 0 0 1
    outer loop
      vertex 76.868 -38.9256 7
      vertex 75.7079 -38.1191 7
      vertex 76.8102 -38.9955 7
    endloop
  endfacet
  facet normal -0 0 1
    outer loop
      vertex 75.5248 -38.291 7
      vertex 76.8102 -38.9955 7
      vertex 75.7079 -38.1191 7
    endloop
  endfacet
  facet normal -0 0 1
    outer loop
      vertex 75.3217 -38.4387 7
      vertex 76.8102 -38.9955 7
      vertex 75.5248 -38.291 7
    endloop
  endfacet
  facet normal -0 0 1
    outer loop
      vertex 75.1016 -38.5597 7
      vertex 76.8102 -38.9955 7
      vertex 75.3217 -38.4387 7
    endloop
  endfacet
  facet normal -0 0 1
    outer loop
      vertex 74.868 -38.6521 7
      vertex 76.8102 -38.9955 7
      vertex 75.1016 -38.5597 7
    endloop
  endfacet
  facet normal -0 0 1
    outer loop
      vertex 74.6248 -38.7146 7
      vertex 76.8102 -38.9955 7
      vertex 74.868 -38.6521 7
    endloop
  endfacet
  facet normal -0 0 1
    outer loop
      vertex 74.3756 -38.7461 7
      vertex 76.8102 -38.9955 7
      vertex 74.6248 -38.7146 7
    endloop
  endfacet
  facet normal -0 0 1
    outer loop
      vertex -74.3756 -38.7461 7
      vertex 76.8102 -38.9955 7
      vertex 74.3756 -38.7461 7
    endloop
  endfacet
  facet normal 0 0 1
    outer loop
      vertex -74.3756 -38.7461 7
      vertex -76.8102 -38.9955 7
      vertex 76.8102 -38.9955 7
    endloop
  endfacet
  facet normal 0 0 1
    outer loop
      vertex -74.6248 -38.7146 7
      vertex -76.8102 -38.9955 7
      vertex -74.3756 -38.7461 7
    endloop
  endfacet
  facet normal 0 0 1
    outer loop
      vertex -74.868 -38.6521 7
      vertex -76.8102 -38.9955 7
      vertex -74.6248 -38.7146 7
    endloop
  endfacet
  facet normal 0 0 1
    outer loop
      vertex -75.1016 -38.5597 7
      vertex -76.8102 -38.9955 7
      vertex -74.868 -38.6521 7
    endloop
  endfacet
  facet normal 0 0 1
    outer loop
      vertex -75.3217 -38.4387 7
      vertex -76.8102 -38.9955 7
      vertex -75.1016 -38.5597 7
    endloop
  endfacet
  facet normal 0 0 1
    outer loop
      vertex -75.5248 -38.291 7
      vertex -76.8102 -38.9955 7
      vertex -75.3217 -38.4387 7
    endloop
  endfacet
  facet normal 0 0 1
    outer loop
      vertex -75.7079 -38.1191 7
      vertex -76.8102 -38.9955 7
      vertex -75.5248 -38.291 7
    endloop
  endfacet
  facet normal 0 0 1
    outer loop
      vertex -75.868 -37.9256 7
      vertex -76.8102 -38.9955 7
      vertex -75.7079 -38.1191 7
    endloop
  endfacet
  facet normal 0 0 1
    outer loop
      vertex -76.0026 -37.7135 7
      vertex -76.8102 -38.9955 7
      vertex -75.868 -37.9256 7
    endloop
  endfacet
  facet normal 0 0 1
    outer loop
      vertex -76.1096 -37.4862 7
      vertex -76.8102 -38.9955 7
      vertex -76.0026 -37.7135 7
    endloop
  endfacet
  facet normal 0 0 1
    outer loop
      vertex -76.1872 -37.2474 7
      vertex -76.8102 -38.9955 7
      vertex -76.1096 -37.4862 7
    endloop
  endfacet
  facet normal 0 0 1
    outer loop
      vertex -76.2342 -37.0007 7
      vertex -76.8102 -38.9955 7
      vertex -76.1872 -37.2474 7
    endloop
  endfacet
  facet normal 0 0 1
    outer loop
      vertex -76.8102 -38.9955 7
      vertex -76.2342 -37.0007 7
      vertex -76.25 -36.75 7
    endloop
  endfacet
  facet normal -0.125332 -0.992115 0
    outer loop
      vertex -75.3756 -39.7461 -7
      vertex -75.6248 -39.7146 5.54381
      vertex -75.6248 -39.7146 -7
    endloop
  endfacet
  facet normal -0.125332 -0.992115 0
    outer loop
      vertex -75.6248 -39.7146 5.54381
      vertex -75.3756 -39.7461 -7
      vertex -75.3756 -39.7461 5.55404
    endloop
  endfacet
  facet normal 1 -0 0
    outer loop
      vertex 77.25 -37.75 7
      vertex 77.25 -28.75 -7
      vertex 77.25 -28.75 7
    endloop
  endfacet
  facet normal 1 0 0
    outer loop
      vertex 77.25 -28.75 -7
      vertex 77.25 -37.75 7
      vertex 77.25 -37.75 -7
    endloop
  endfacet
  facet normal 0.998027 -0.0627887 0
    outer loop
      vertex 77.2342 -38.0007 7
      vertex 77.25 -37.75 -7
      vertex 77.25 -37.75 7
    endloop
  endfacet
  facet normal 0.998027 -0.0627887 0
    outer loop
      vertex 77.25 -37.75 -7
      vertex 77.2342 -38.0007 7
      vertex 77.2342 -38.0007 -7
    endloop
  endfacet
  facet normal 0 -1 0
    outer loop
      vertex -75.3756 -39.7461 -7
      vertex -75.25 -39.7461 5.55404
      vertex -75.3756 -39.7461 5.55404
    endloop
  endfacet
  facet normal 0 -1 -0
    outer loop
      vertex -75.25 -39.7461 5.55404
      vertex -75.3756 -39.7461 -7
      vertex -75.25 -39.7461 -7
    endloop
  endfacet
  facet normal 0 -1 0
    outer loop
      vertex 75.25 -39.7461 -7
      vertex 75.3756 -39.7461 5.55404
      vertex 75.25 -39.7461 5.55404
    endloop
  endfacet
  facet normal 0 -1 -0
    outer loop
      vertex 75.3756 -39.7461 5.55404
      vertex 75.25 -39.7461 -7
      vertex 75.3756 -39.7461 -7
    endloop
  endfacet
  facet normal -0.770516 -0.637421 0
    outer loop
      vertex -76.7079 -39.1191 6.61948
      vertex -76.868 -38.9256 7
      vertex -76.868 -38.9256 -7
    endloop
  endfacet
  facet normal -0.770516 -0.637421 -0
    outer loop
      vertex -76.7079 -39.1191 6.61948
      vertex -76.868 -38.9256 -7
      vertex -76.7079 -39.1191 -7
    endloop
  endfacet
  facet normal -0.770488 -0.637454 2.83529e-05
    outer loop
      vertex -76.868 -38.9256 7
      vertex -76.7079 -39.1191 6.61948
      vertex -76.8102 -38.9955 7
    endloop
  endfacet
  facet normal 0.481754 -0.876307 0
    outer loop
      vertex 76.1016 -39.5597 5.49347
      vertex 76.1016 -39.5597 -7
      vertex 76.2245 -39.4921 5.47152
    endloop
  endfacet
  facet normal 0.481745 -0.876311 1.12581e-07
    outer loop
      vertex 76.3217 -39.4387 -7
      vertex 76.2245 -39.4921 5.47152
      vertex 76.1016 -39.5597 -7
    endloop
  endfacet
  facet normal 0.481734 -0.876318 0
    outer loop
      vertex 76.2245 -39.4921 5.47152
      vertex 76.3217 -39.4387 -7
      vertex 76.3217 -39.4387 5.63597
    endloop
  endfacet
  facet normal 0.684545 -0.72897 0
    outer loop
      vertex 76.7079 -39.1191 -7
      vertex 76.5248 -39.291 6.09032
      vertex 76.5248 -39.291 -7
    endloop
  endfacet
  facet normal 0.684545 -0.72897 0
    outer loop
      vertex 76.5248 -39.291 6.09032
      vertex 76.7079 -39.1191 -7
      vertex 76.7079 -39.1191 6.61948
    endloop
  endfacet
  facet normal 0.951056 -0.309019 0
    outer loop
      vertex 77.1096 -38.4862 7
      vertex 77.1872 -38.2474 -7
      vertex 77.1872 -38.2474 7
    endloop
  endfacet
  facet normal 0.951056 -0.309019 0
    outer loop
      vertex 77.1872 -38.2474 -7
      vertex 77.1096 -38.4862 7
      vertex 77.1096 -38.4862 -7
    endloop
  endfacet
  facet normal 0.982286 -0.18739 0
    outer loop
      vertex 77.1872 -38.2474 7
      vertex 77.2342 -38.0007 -7
      vertex 77.2342 -38.0007 7
    endloop
  endfacet
  facet normal 0.982286 -0.18739 0
    outer loop
      vertex 77.2342 -38.0007 -7
      vertex 77.1872 -38.2474 7
      vertex 77.1872 -38.2474 -7
    endloop
  endfacet
  facet normal 0.844336 -0.535815 0
    outer loop
      vertex 76.868 -38.9256 7
      vertex 77.0026 -38.7135 -7
      vertex 77.0026 -38.7135 7
    endloop
  endfacet
  facet normal 0.844336 -0.535815 0
    outer loop
      vertex 77.0026 -38.7135 -7
      vertex 76.868 -38.9256 7
      vertex 76.868 -38.9256 -7
    endloop
  endfacet
  facet normal 0.125332 -0.992115 0
    outer loop
      vertex 75.3756 -39.7461 -7
      vertex 75.6248 -39.7146 5.54381
      vertex 75.3756 -39.7461 5.55404
    endloop
  endfacet
  facet normal 0.125332 -0.992115 0
    outer loop
      vertex 75.6248 -39.7146 5.54381
      vertex 75.3756 -39.7461 -7
      vertex 75.6248 -39.7146 -7
    endloop
  endfacet
  facet normal 0.368136 -0.929772 0
    outer loop
      vertex 75.868 -39.6521 -7
      vertex 76.1016 -39.5597 5.49347
      vertex 75.868 -39.6521 5.52352
    endloop
  endfacet
  facet normal 0.368136 -0.929772 0
    outer loop
      vertex 76.1016 -39.5597 5.49347
      vertex 75.868 -39.6521 -7
      vertex 76.1016 -39.5597 -7
    endloop
  endfacet
  facet normal -0.368136 -0.929772 0
    outer loop
      vertex -75.868 -39.6521 -7
      vertex -76.1016 -39.5597 5.49347
      vertex -76.1016 -39.5597 -7
    endloop
  endfacet
  facet normal -0.368136 -0.929772 0
    outer loop
      vertex -76.1016 -39.5597 5.49347
      vertex -75.868 -39.6521 -7
      vertex -75.868 -39.6521 5.52352
    endloop
  endfacet
  facet normal -0.904826 -0.425781 0
    outer loop
      vertex -77.0026 -38.7135 -7
      vertex -77.1096 -38.4862 7
      vertex -77.1096 -38.4862 -7
    endloop
  endfacet
  facet normal -0.904826 -0.425781 0
    outer loop
      vertex -77.1096 -38.4862 7
      vertex -77.0026 -38.7135 -7
      vertex -77.0026 -38.7135 7
    endloop
  endfacet
  facet normal 0 0 -1
    outer loop
      vertex 75.25 -40.25 -7
      vertex -75.25 -40.25 -7
      vertex 75.25 -39.7461 -7
    endloop
  endfacet
  facet normal 0 0 -1
    outer loop
      vertex 75.25 -39.7461 -7
      vertex 77.25 -37.75 -7
      vertex 77.2342 -38.0007 -7
    endloop
  endfacet
  facet normal 0 0 -1
    outer loop
      vertex 75.25 -39.7461 -7
      vertex 77.2342 -38.0007 -7
      vertex 77.1872 -38.2474 -7
    endloop
  endfacet
  facet normal 0 0 -1
    outer loop
      vertex 75.25 -39.7461 -7
      vertex 77.1872 -38.2474 -7
      vertex 77.1096 -38.4862 -7
    endloop
  endfacet
  facet normal 0 0 -1
    outer loop
      vertex 75.25 -39.7461 -7
      vertex 77.1096 -38.4862 -7
      vertex 77.0026 -38.7135 -7
    endloop
  endfacet
  facet normal 0 0 -1
    outer loop
      vertex 75.25 -39.7461 -7
      vertex 77.0026 -38.7135 -7
      vertex 76.868 -38.9256 -7
    endloop
  endfacet
  facet normal 0 0 -1
    outer loop
      vertex 75.25 -39.7461 -7
      vertex 76.868 -38.9256 -7
      vertex 76.7079 -39.1191 -7
    endloop
  endfacet
  facet normal 0 0 -1
    outer loop
      vertex 75.25 -39.7461 -7
      vertex 76.7079 -39.1191 -7
      vertex 76.5248 -39.291 -7
    endloop
  endfacet
  facet normal 0 0 -1
    outer loop
      vertex 75.25 -39.7461 -7
      vertex 76.5248 -39.291 -7
      vertex 76.3217 -39.4387 -7
    endloop
  endfacet
  facet normal 0 0 -1
    outer loop
      vertex 75.25 -39.7461 -7
      vertex 76.3217 -39.4387 -7
      vertex 76.1016 -39.5597 -7
    endloop
  endfacet
  facet normal 0 0 -1
    outer loop
      vertex 75.25 -39.7461 -7
      vertex 76.1016 -39.5597 -7
      vertex 75.868 -39.6521 -7
    endloop
  endfacet
  facet normal 0 0 -1
    outer loop
      vertex 75.25 -39.7461 -7
      vertex 75.868 -39.6521 -7
      vertex 75.6248 -39.7146 -7
    endloop
  endfacet
  facet normal 0 0 -1
    outer loop
      vertex 75.25 -39.7461 -7
      vertex 75.6248 -39.7146 -7
      vertex 75.3756 -39.7461 -7
    endloop
  endfacet
  facet normal -0 0 -1
    outer loop
      vertex 77.25 -37.75 -7
      vertex 75.25 -39.7461 -7
      vertex 77.25 -28.75 -7
    endloop
  endfacet
  facet normal 0 0 -1
    outer loop
      vertex -75.25 -39.7461 -7
      vertex 75.25 -39.7461 -7
      vertex -75.25 -40.25 -7
    endloop
  endfacet
  facet normal 0 0 -1
    outer loop
      vertex 75.25 -39.7461 -7
      vertex -75.25 -39.7461 -7
      vertex 77.25 -28.75 -7
    endloop
  endfacet
  facet normal 0 0 -1
    outer loop
      vertex -75.6248 -39.7146 -7
      vertex -75.25 -39.7461 -7
      vertex -75.3756 -39.7461 -7
    endloop
  endfacet
  facet normal 0 0 -1
    outer loop
      vertex -75.25 -39.7461 -7
      vertex -75.6248 -39.7146 -7
      vertex -77.25 -37.75 -7
    endloop
  endfacet
  facet normal 0 0 -1
    outer loop
      vertex -77.25 -37.75 -7
      vertex -75.6248 -39.7146 -7
      vertex -75.868 -39.6521 -7
    endloop
  endfacet
  facet normal 0 0 -1
    outer loop
      vertex -77.25 -37.75 -7
      vertex -75.868 -39.6521 -7
      vertex -76.1016 -39.5597 -7
    endloop
  endfacet
  facet normal 0 0 -1
    outer loop
      vertex -77.25 -37.75 -7
      vertex -76.1016 -39.5597 -7
      vertex -76.3217 -39.4387 -7
    endloop
  endfacet
  facet normal 0 0 -1
    outer loop
      vertex -77.25 -37.75 -7
      vertex -76.3217 -39.4387 -7
      vertex -76.5248 -39.291 -7
    endloop
  endfacet
  facet normal 0 0 -1
    outer loop
      vertex -77.25 -37.75 -7
      vertex -76.5248 -39.291 -7
      vertex -76.7079 -39.1191 -7
    endloop
  endfacet
  facet normal 0 0 -1
    outer loop
      vertex -77.25 -37.75 -7
      vertex -76.7079 -39.1191 -7
      vertex -76.868 -38.9256 -7
    endloop
  endfacet
  facet normal 0 0 -1
    outer loop
      vertex -77.25 -37.75 -7
      vertex -76.868 -38.9256 -7
      vertex -77.0026 -38.7135 -7
    endloop
  endfacet
  facet normal 0 0 -1
    outer loop
      vertex -77.25 -37.75 -7
      vertex -77.0026 -38.7135 -7
      vertex -77.1096 -38.4862 -7
    endloop
  endfacet
  facet normal 0 0 -1
    outer loop
      vertex -77.25 -37.75 -7
      vertex -77.1096 -38.4862 -7
      vertex -77.1872 -38.2474 -7
    endloop
  endfacet
  facet normal 0 0 -1
    outer loop
      vertex -77.25 -37.75 -7
      vertex -77.1872 -38.2474 -7
      vertex -77.2342 -38.0007 -7
    endloop
  endfacet
  facet normal 0 0 -1
    outer loop
      vertex -75.25 -39.7461 -7
      vertex -77.25 -37.75 -7
      vertex -77.25 -28.75 -7
    endloop
  endfacet
  facet normal 0 0 -1
    outer loop
      vertex -75.25 -39.7461 -7
      vertex -77.25 -28.75 -7
      vertex 77.25 -28.75 -7
    endloop
  endfacet
  facet normal 0.587785 -0.809017 0
    outer loop
      vertex 76.5248 -39.291 -7
      vertex 76.3217 -39.4387 5.63597
      vertex 76.3217 -39.4387 -7
    endloop
  endfacet
  facet normal 0.587785 -0.809017 0
    outer loop
      vertex 76.3217 -39.4387 5.63597
      vertex 76.5248 -39.291 -7
      vertex 76.5248 -39.291 6.09032
    endloop
  endfacet
  facet normal 0.770488 -0.637454 2.83529e-05
    outer loop
      vertex 76.7079 -39.1191 6.61948
      vertex 76.868 -38.9256 7
      vertex 76.8102 -38.9955 7
    endloop
  endfacet
  facet normal 0.770516 -0.637421 0
    outer loop
      vertex 76.868 -38.9256 7
      vertex 76.7079 -39.1191 6.61948
      vertex 76.868 -38.9256 -7
    endloop
  endfacet
  facet normal 0.770516 -0.637421 0
    outer loop
      vertex 76.868 -38.9256 -7
      vertex 76.7079 -39.1191 6.61948
      vertex 76.7079 -39.1191 -7
    endloop
  endfacet
  facet normal 0.904826 -0.425781 0
    outer loop
      vertex 77.0026 -38.7135 7
      vertex 77.1096 -38.4862 -7
      vertex 77.1096 -38.4862 7
    endloop
  endfacet
  facet normal 0.904826 -0.425781 0
    outer loop
      vertex 77.1096 -38.4862 -7
      vertex 77.0026 -38.7135 7
      vertex 77.0026 -38.7135 -7
    endloop
  endfacet
  facet normal 0.248678 -0.968586 0
    outer loop
      vertex 75.6248 -39.7146 -7
      vertex 75.868 -39.6521 5.52352
      vertex 75.6248 -39.7146 5.54381
    endloop
  endfacet
  facet normal 0.248678 -0.968586 0
    outer loop
      vertex 75.868 -39.6521 5.52352
      vertex 75.6248 -39.7146 -7
      vertex 75.868 -39.6521 -7
    endloop
  endfacet
  facet normal -0.684545 -0.72897 0
    outer loop
      vertex -76.7079 -39.1191 -7
      vertex -76.5248 -39.291 6.09032
      vertex -76.7079 -39.1191 6.61948
    endloop
  endfacet
  facet normal -0.684545 -0.72897 -0
    outer loop
      vertex -76.5248 -39.291 6.09032
      vertex -76.7079 -39.1191 -7
      vertex -76.5248 -39.291 -7
    endloop
  endfacet
  facet normal -0.481734 -0.876318 -0
    outer loop
      vertex -76.3217 -39.4387 5.63597
      vertex -76.3217 -39.4387 -7
      vertex -76.2245 -39.4921 5.47152
    endloop
  endfacet
  facet normal -0.481745 -0.876311 1.12581e-07
    outer loop
      vertex -76.1016 -39.5597 -7
      vertex -76.2245 -39.4921 5.47152
      vertex -76.3217 -39.4387 -7
    endloop
  endfacet
  facet normal -0.481754 -0.876307 0
    outer loop
      vertex -76.2245 -39.4921 5.47152
      vertex -76.1016 -39.5597 -7
      vertex -76.1016 -39.5597 5.49347
    endloop
  endfacet
  facet normal -0.248678 -0.968586 0
    outer loop
      vertex -75.6248 -39.7146 -7
      vertex -75.868 -39.6521 5.52352
      vertex -75.868 -39.6521 -7
    endloop
  endfacet
  facet normal -0.248678 -0.968586 0
    outer loop
      vertex -75.868 -39.6521 5.52352
      vertex -75.6248 -39.7146 -7
      vertex -75.6248 -39.7146 5.54381
    endloop
  endfacet
  facet normal -0.844336 -0.535815 0
    outer loop
      vertex -76.868 -38.9256 -7
      vertex -77.0026 -38.7135 7
      vertex -77.0026 -38.7135 -7
    endloop
  endfacet
  facet normal -0.844336 -0.535815 0
    outer loop
      vertex -77.0026 -38.7135 7
      vertex -76.868 -38.9256 -7
      vertex -76.868 -38.9256 7
    endloop
  endfacet
  facet normal -0.951056 -0.309019 0
    outer loop
      vertex -77.1096 -38.4862 -7
      vertex -77.1872 -38.2474 7
      vertex -77.1872 -38.2474 -7
    endloop
  endfacet
  facet normal -0.951056 -0.309019 0
    outer loop
      vertex -77.1872 -38.2474 7
      vertex -77.1096 -38.4862 -7
      vertex -77.1096 -38.4862 7
    endloop
  endfacet
  facet normal -0.998027 -0.0627887 0
    outer loop
      vertex -77.2342 -38.0007 -7
      vertex -77.25 -37.75 7
      vertex -77.25 -37.75 -7
    endloop
  endfacet
  facet normal -0.998027 -0.0627887 0
    outer loop
      vertex -77.25 -37.75 7
      vertex -77.2342 -38.0007 -7
      vertex -77.2342 -38.0007 7
    endloop
  endfacet
  facet normal -0.587785 -0.809017 0
    outer loop
      vertex -76.5248 -39.291 -7
      vertex -76.3217 -39.4387 5.63597
      vertex -76.5248 -39.291 6.09032
    endloop
  endfacet
  facet normal -0.587785 -0.809017 -0
    outer loop
      vertex -76.3217 -39.4387 5.63597
      vertex -76.5248 -39.291 -7
      vertex -76.3217 -39.4387 -7
    endloop
  endfacet
  facet normal -0.982286 -0.18739 0
    outer loop
      vertex -77.1872 -38.2474 -7
      vertex -77.2342 -38.0007 7
      vertex -77.2342 -38.0007 -7
    endloop
  endfacet
  facet normal -0.982286 -0.18739 0
    outer loop
      vertex -77.2342 -38.0007 7
      vertex -77.1872 -38.2474 -7
      vertex -77.1872 -38.2474 7
    endloop
  endfacet
  facet normal 1 -0 0
    outer loop
      vertex -76.25 -36.75 7
      vertex -76.25 -28.75 -6
      vertex -76.25 -28.75 7
    endloop
  endfacet
  facet normal 1 0 0
    outer loop
      vertex -76.25 -28.75 -6
      vertex -76.25 -36.75 7
      vertex -76.25 -36.75 -6
    endloop
  endfacet
  facet normal -1 0 0
    outer loop
      vertex 76.25 -36.75 -6
      vertex 76.25 -28.75 7
      vertex 76.25 -28.75 -6
    endloop
  endfacet
  facet normal -1 -0 0
    outer loop
      vertex 76.25 -28.75 7
      vertex 76.25 -36.75 -6
      vertex 76.25 -36.75 7
    endloop
  endfacet
  facet normal 0 1 -0
    outer loop
      vertex 74.3756 -38.7461 -6
      vertex -74.3756 -38.7461 7
      vertex 74.3756 -38.7461 7
    endloop
  endfacet
  facet normal 0 1 0
    outer loop
      vertex -74.3756 -38.7461 7
      vertex 74.3756 -38.7461 -6
      vertex -74.3756 -38.7461 -6
    endloop
  endfacet
  facet normal -0.951056 0.309019 0
    outer loop
      vertex 76.1096 -37.4862 -6
      vertex 76.1872 -37.2474 7
      vertex 76.1872 -37.2474 -6
    endloop
  endfacet
  facet normal -0.951056 0.309019 0
    outer loop
      vertex 76.1872 -37.2474 7
      vertex 76.1096 -37.4862 -6
      vertex 76.1096 -37.4862 7
    endloop
  endfacet
  facet normal -0.998027 0.0627887 0
    outer loop
      vertex 76.2342 -37.0007 -6
      vertex 76.25 -36.75 7
      vertex 76.25 -36.75 -6
    endloop
  endfacet
  facet normal -0.998027 0.0627887 0
    outer loop
      vertex 76.25 -36.75 7
      vertex 76.2342 -37.0007 -6
      vertex 76.2342 -37.0007 7
    endloop
  endfacet
  facet normal -0.684545 0.72897 0
    outer loop
      vertex 75.7079 -38.1191 -6
      vertex 75.5248 -38.291 7
      vertex 75.7079 -38.1191 7
    endloop
  endfacet
  facet normal -0.684545 0.72897 0
    outer loop
      vertex 75.5248 -38.291 7
      vertex 75.7079 -38.1191 -6
      vertex 75.5248 -38.291 -6
    endloop
  endfacet
  facet normal 0.844336 0.535815 0
    outer loop
      vertex -75.868 -37.9256 7
      vertex -76.0026 -37.7135 -6
      vertex -76.0026 -37.7135 7
    endloop
  endfacet
  facet normal 0.844336 0.535815 0
    outer loop
      vertex -76.0026 -37.7135 -6
      vertex -75.868 -37.9256 7
      vertex -75.868 -37.9256 -6
    endloop
  endfacet
  facet normal 0.368136 0.929772 -0
    outer loop
      vertex -74.868 -38.6521 -6
      vertex -75.1016 -38.5597 7
      vertex -74.868 -38.6521 7
    endloop
  endfacet
  facet normal 0.368136 0.929772 0
    outer loop
      vertex -75.1016 -38.5597 7
      vertex -74.868 -38.6521 -6
      vertex -75.1016 -38.5597 -6
    endloop
  endfacet
  facet normal -0.481745 0.876311 0
    outer loop
      vertex 75.3217 -38.4387 -6
      vertex 75.1016 -38.5597 7
      vertex 75.3217 -38.4387 7
    endloop
  endfacet
  facet normal -0.481745 0.876311 0
    outer loop
      vertex 75.1016 -38.5597 7
      vertex 75.3217 -38.4387 -6
      vertex 75.1016 -38.5597 -6
    endloop
  endfacet
  facet normal -0.844336 0.535815 0
    outer loop
      vertex 75.868 -37.9256 -6
      vertex 76.0026 -37.7135 7
      vertex 76.0026 -37.7135 -6
    endloop
  endfacet
  facet normal -0.844336 0.535815 0
    outer loop
      vertex 76.0026 -37.7135 7
      vertex 75.868 -37.9256 -6
      vertex 75.868 -37.9256 7
    endloop
  endfacet
  facet normal -0.982286 0.18739 0
    outer loop
      vertex 76.1872 -37.2474 -6
      vertex 76.2342 -37.0007 7
      vertex 76.2342 -37.0007 -6
    endloop
  endfacet
  facet normal -0.982286 0.18739 0
    outer loop
      vertex 76.2342 -37.0007 7
      vertex 76.1872 -37.2474 -6
      vertex 76.1872 -37.2474 7
    endloop
  endfacet
  facet normal -0.587785 0.809017 0
    outer loop
      vertex 75.5248 -38.291 -6
      vertex 75.3217 -38.4387 7
      vertex 75.5248 -38.291 7
    endloop
  endfacet
  facet normal -0.587785 0.809017 0
    outer loop
      vertex 75.3217 -38.4387 7
      vertex 75.5248 -38.291 -6
      vertex 75.3217 -38.4387 -6
    endloop
  endfacet
  facet normal -0.368136 0.929772 0
    outer loop
      vertex 75.1016 -38.5597 -6
      vertex 74.868 -38.6521 7
      vertex 75.1016 -38.5597 7
    endloop
  endfacet
  facet normal -0.368136 0.929772 0
    outer loop
      vertex 74.868 -38.6521 7
      vertex 75.1016 -38.5597 -6
      vertex 74.868 -38.6521 -6
    endloop
  endfacet
  facet normal -0.125332 0.992115 0
    outer loop
      vertex 74.6248 -38.7146 -6
      vertex 74.3756 -38.7461 7
      vertex 74.6248 -38.7146 7
    endloop
  endfacet
  facet normal -0.125332 0.992115 0
    outer loop
      vertex 74.3756 -38.7461 7
      vertex 74.6248 -38.7146 -6
      vertex 74.3756 -38.7461 -6
    endloop
  endfacet
  facet normal -0.248678 0.968586 0
    outer loop
      vertex 74.868 -38.6521 -6
      vertex 74.6248 -38.7146 7
      vertex 74.868 -38.6521 7
    endloop
  endfacet
  facet normal -0.248678 0.968586 0
    outer loop
      vertex 74.6248 -38.7146 7
      vertex 74.868 -38.6521 -6
      vertex 74.6248 -38.7146 -6
    endloop
  endfacet
  facet normal 0.904826 0.425781 0
    outer loop
      vertex -76.0026 -37.7135 7
      vertex -76.1096 -37.4862 -6
      vertex -76.1096 -37.4862 7
    endloop
  endfacet
  facet normal 0.904826 0.425781 0
    outer loop
      vertex -76.1096 -37.4862 -6
      vertex -76.0026 -37.7135 7
      vertex -76.0026 -37.7135 -6
    endloop
  endfacet
  facet normal 0.951056 0.309019 0
    outer loop
      vertex -76.1096 -37.4862 7
      vertex -76.1872 -37.2474 -6
      vertex -76.1872 -37.2474 7
    endloop
  endfacet
  facet normal 0.951056 0.309019 0
    outer loop
      vertex -76.1872 -37.2474 -6
      vertex -76.1096 -37.4862 7
      vertex -76.1096 -37.4862 -6
    endloop
  endfacet
  facet normal 0.125332 0.992115 -0
    outer loop
      vertex -74.3756 -38.7461 -6
      vertex -74.6248 -38.7146 7
      vertex -74.3756 -38.7461 7
    endloop
  endfacet
  facet normal 0.125332 0.992115 0
    outer loop
      vertex -74.6248 -38.7146 7
      vertex -74.3756 -38.7461 -6
      vertex -74.6248 -38.7146 -6
    endloop
  endfacet
  facet normal -0.904826 0.425781 0
    outer loop
      vertex 76.0026 -37.7135 -6
      vertex 76.1096 -37.4862 7
      vertex 76.1096 -37.4862 -6
    endloop
  endfacet
  facet normal -0.904826 0.425781 0
    outer loop
      vertex 76.1096 -37.4862 7
      vertex 76.0026 -37.7135 -6
      vertex 76.0026 -37.7135 7
    endloop
  endfacet
  facet normal -0.770516 0.637421 0
    outer loop
      vertex 75.7079 -38.1191 -6
      vertex 75.868 -37.9256 7
      vertex 75.868 -37.9256 -6
    endloop
  endfacet
  facet normal -0.770516 0.637421 0
    outer loop
      vertex 75.868 -37.9256 7
      vertex 75.7079 -38.1191 -6
      vertex 75.7079 -38.1191 7
    endloop
  endfacet
  facet normal 0.770516 0.637421 0
    outer loop
      vertex -75.7079 -38.1191 7
      vertex -75.868 -37.9256 -6
      vertex -75.868 -37.9256 7
    endloop
  endfacet
  facet normal 0.770516 0.637421 0
    outer loop
      vertex -75.868 -37.9256 -6
      vertex -75.7079 -38.1191 7
      vertex -75.7079 -38.1191 -6
    endloop
  endfacet
  facet normal 0.982286 0.18739 0
    outer loop
      vertex -76.1872 -37.2474 7
      vertex -76.2342 -37.0007 -6
      vertex -76.2342 -37.0007 7
    endloop
  endfacet
  facet normal 0.982286 0.18739 0
    outer loop
      vertex -76.2342 -37.0007 -6
      vertex -76.1872 -37.2474 7
      vertex -76.1872 -37.2474 -6
    endloop
  endfacet
  facet normal 0.998027 0.0627887 0
    outer loop
      vertex -76.2342 -37.0007 7
      vertex -76.25 -36.75 -6
      vertex -76.25 -36.75 7
    endloop
  endfacet
  facet normal 0.998027 0.0627887 0
    outer loop
      vertex -76.25 -36.75 -6
      vertex -76.2342 -37.0007 7
      vertex -76.2342 -37.0007 -6
    endloop
  endfacet
  facet normal 0 0 1
    outer loop
      vertex 74.3756 -38.7461 -6
      vertex 76.25 -36.75 -6
      vertex 76.25 -28.75 -6
    endloop
  endfacet
  facet normal 0 0 1
    outer loop
      vertex 76.25 -36.75 -6
      vertex 74.3756 -38.7461 -6
      vertex 76.2342 -37.0007 -6
    endloop
  endfacet
  facet normal 0 0 1
    outer loop
      vertex 76.2342 -37.0007 -6
      vertex 74.3756 -38.7461 -6
      vertex 76.1872 -37.2474 -6
    endloop
  endfacet
  facet normal 0 0 1
    outer loop
      vertex 76.1872 -37.2474 -6
      vertex 74.3756 -38.7461 -6
      vertex 76.1096 -37.4862 -6
    endloop
  endfacet
  facet normal 0 0 1
    outer loop
      vertex 76.1096 -37.4862 -6
      vertex 74.3756 -38.7461 -6
      vertex 76.0026 -37.7135 -6
    endloop
  endfacet
  facet normal 0 0 1
    outer loop
      vertex 76.0026 -37.7135 -6
      vertex 74.3756 -38.7461 -6
      vertex 75.868 -37.9256 -6
    endloop
  endfacet
  facet normal 0 0 1
    outer loop
      vertex 75.868 -37.9256 -6
      vertex 74.3756 -38.7461 -6
      vertex 75.7079 -38.1191 -6
    endloop
  endfacet
  facet normal 0 0 1
    outer loop
      vertex 75.7079 -38.1191 -6
      vertex 74.3756 -38.7461 -6
      vertex 75.5248 -38.291 -6
    endloop
  endfacet
  facet normal 0 0 1
    outer loop
      vertex 75.5248 -38.291 -6
      vertex 74.3756 -38.7461 -6
      vertex 75.3217 -38.4387 -6
    endloop
  endfacet
  facet normal 0 0 1
    outer loop
      vertex 75.3217 -38.4387 -6
      vertex 74.3756 -38.7461 -6
      vertex 75.1016 -38.5597 -6
    endloop
  endfacet
  facet normal 0 0 1
    outer loop
      vertex 75.1016 -38.5597 -6
      vertex 74.3756 -38.7461 -6
      vertex 74.868 -38.6521 -6
    endloop
  endfacet
  facet normal 0 0 1
    outer loop
      vertex 74.868 -38.6521 -6
      vertex 74.3756 -38.7461 -6
      vertex 74.6248 -38.7146 -6
    endloop
  endfacet
  facet normal 0 0 1
    outer loop
      vertex 76.25 -28.75 -6
      vertex -74.3756 -38.7461 -6
      vertex 74.3756 -38.7461 -6
    endloop
  endfacet
  facet normal -0 0 1
    outer loop
      vertex -76.25 -28.75 -6
      vertex -74.3756 -38.7461 -6
      vertex 76.25 -28.75 -6
    endloop
  endfacet
  facet normal -0 0 1
    outer loop
      vertex -76.25 -36.75 -6
      vertex -74.3756 -38.7461 -6
      vertex -76.25 -28.75 -6
    endloop
  endfacet
  facet normal 0 0 1
    outer loop
      vertex -74.3756 -38.7461 -6
      vertex -76.25 -36.75 -6
      vertex -74.6248 -38.7146 -6
    endloop
  endfacet
  facet normal 0 0 1
    outer loop
      vertex -74.6248 -38.7146 -6
      vertex -76.25 -36.75 -6
      vertex -74.868 -38.6521 -6
    endloop
  endfacet
  facet normal 0 0 1
    outer loop
      vertex -74.868 -38.6521 -6
      vertex -76.25 -36.75 -6
      vertex -75.1016 -38.5597 -6
    endloop
  endfacet
  facet normal 0 0 1
    outer loop
      vertex -75.1016 -38.5597 -6
      vertex -76.25 -36.75 -6
      vertex -75.3217 -38.4387 -6
    endloop
  endfacet
  facet normal 0 0 1
    outer loop
      vertex -75.3217 -38.4387 -6
      vertex -76.25 -36.75 -6
      vertex -75.5248 -38.291 -6
    endloop
  endfacet
  facet normal 0 0 1
    outer loop
      vertex -75.5248 -38.291 -6
      vertex -76.25 -36.75 -6
      vertex -75.7079 -38.1191 -6
    endloop
  endfacet
  facet normal 0 0 1
    outer loop
      vertex -75.7079 -38.1191 -6
      vertex -76.25 -36.75 -6
      vertex -75.868 -37.9256 -6
    endloop
  endfacet
  facet normal 0 0 1
    outer loop
      vertex -75.868 -37.9256 -6
      vertex -76.25 -36.75 -6
      vertex -76.0026 -37.7135 -6
    endloop
  endfacet
  facet normal 0 0 1
    outer loop
      vertex -76.0026 -37.7135 -6
      vertex -76.25 -36.75 -6
      vertex -76.1096 -37.4862 -6
    endloop
  endfacet
  facet normal 0 0 1
    outer loop
      vertex -76.1096 -37.4862 -6
      vertex -76.25 -36.75 -6
      vertex -76.1872 -37.2474 -6
    endloop
  endfacet
  facet normal 0 0 1
    outer loop
      vertex -76.1872 -37.2474 -6
      vertex -76.25 -36.75 -6
      vertex -76.2342 -37.0007 -6
    endloop
  endfacet
  facet normal 0.684545 0.72897 -0
    outer loop
      vertex -75.5248 -38.291 -6
      vertex -75.7079 -38.1191 7
      vertex -75.5248 -38.291 7
    endloop
  endfacet
  facet normal 0.684545 0.72897 0
    outer loop
      vertex -75.7079 -38.1191 7
      vertex -75.5248 -38.291 -6
      vertex -75.7079 -38.1191 -6
    endloop
  endfacet
  facet normal 0.481745 0.876311 -0
    outer loop
      vertex -75.1016 -38.5597 -6
      vertex -75.3217 -38.4387 7
      vertex -75.1016 -38.5597 7
    endloop
  endfacet
  facet normal 0.481745 0.876311 0
    outer loop
      vertex -75.3217 -38.4387 7
      vertex -75.1016 -38.5597 -6
      vertex -75.3217 -38.4387 -6
    endloop
  endfacet
  facet normal 0.587785 0.809017 -0
    outer loop
      vertex -75.3217 -38.4387 -6
      vertex -75.5248 -38.291 7
      vertex -75.3217 -38.4387 7
    endloop
  endfacet
  facet normal 0.587785 0.809017 0
    outer loop
      vertex -75.5248 -38.291 7
      vertex -75.3217 -38.4387 -6
      vertex -75.5248 -38.291 -6
    endloop
  endfacet
  facet normal 0.248678 0.968586 -0
    outer loop
      vertex -74.6248 -38.7146 -6
      vertex -74.868 -38.6521 7
      vertex -74.6248 -38.7146 7
    endloop
  endfacet
  facet normal 0.248678 0.968586 0
    outer loop
      vertex -74.868 -38.6521 7
      vertex -74.6248 -38.7146 -6
      vertex -74.868 -38.6521 -6
    endloop
  endfacet
  facet normal 0 0.309017 0.951057
    outer loop
      vertex -91.75 -32.3127 17.8593
      vertex -92.75 -32.3127 17.8593
      vertex -91.75 -35.1658 18.7863
    endloop
  endfacet
  facet normal 0 0.309017 0.951057
    outer loop
      vertex 91.75 -35.1658 18.7863
      vertex 92.75 -32.3127 17.8593
      vertex 91.75 -32.3127 17.8593
    endloop
  endfacet
  facet normal -1.58798e-07 0.309017 0.951057
    outer loop
      vertex 92.75 -32.3127 17.8593
      vertex 91.75 -35.1658 18.7863
      vertex 92.75 -36.1169 19.0953
    endloop
  endfacet
  facet normal -0 0.309017 0.951057
    outer loop
      vertex -91.75 -35.1658 18.7863
      vertex 92.75 -36.1169 19.0953
      vertex 91.75 -35.1658 18.7863
    endloop
  endfacet
  facet normal 0 0.309017 0.951057
    outer loop
      vertex -91.75 -35.1658 18.7863
      vertex -92.75 -36.1169 19.0953
      vertex 92.75 -36.1169 19.0953
    endloop
  endfacet
  facet normal 1.58798e-07 0.309017 0.951057
    outer loop
      vertex -92.75 -36.1169 19.0953
      vertex -91.75 -35.1658 18.7863
      vertex -92.75 -32.3127 17.8593
    endloop
  endfacet
  facet normal 9.9748e-07 -0.309017 -0.951056
    outer loop
      vertex 92.75 -40.4431 5.78054
      vertex 91.75 -39.4921 5.47152
      vertex 92.75 -36.6389 4.54447
    endloop
  endfacet
  facet normal 0 -0.309018 -0.951056
    outer loop
      vertex 92.75 -40.4431 5.78054
      vertex 76.2245 -39.4921 5.47152
      vertex 91.75 -39.4921 5.47152
    endloop
  endfacet
  facet normal 4.63745e-08 -0.309017 -0.951056
    outer loop
      vertex 75.25 -40.25 5.71778
      vertex 76.2245 -39.4921 5.47152
      vertex 92.75 -40.4431 5.78054
    endloop
  endfacet
  facet normal -1.75652e-06 -0.309015 -0.951057
    outer loop
      vertex 76.2245 -39.4921 5.47152
      vertex 75.25 -40.25 5.71778
      vertex 76.1016 -39.5597 5.49347
    endloop
  endfacet
  facet normal 1.00092e-06 -0.309018 -0.951056
    outer loop
      vertex 76.1016 -39.5597 5.49347
      vertex 75.25 -40.25 5.71778
      vertex 75.868 -39.6521 5.52352
    endloop
  endfacet
  facet normal -4.23126e-06 -0.309013 -0.951058
    outer loop
      vertex 75.868 -39.6521 5.52352
      vertex 75.25 -40.25 5.71778
      vertex 75.6248 -39.7146 5.54381
    endloop
  endfacet
  facet normal -3.46583e-07 -0.309016 -0.951057
    outer loop
      vertex 75.6248 -39.7146 5.54381
      vertex 75.25 -40.25 5.71778
      vertex 75.3756 -39.7461 5.55404
    endloop
  endfacet
  facet normal 0 -0.309021 -0.951055
    outer loop
      vertex 92.75 -40.4431 5.78054
      vertex -75.25 -40.25 5.71778
      vertex 75.25 -40.25 5.71778
    endloop
  endfacet
  facet normal 0 -0.309016 -0.951057
    outer loop
      vertex -75.25 -40.25 5.71778
      vertex -75.3756 -39.7461 5.55404
      vertex -75.25 -39.7461 5.55404
    endloop
  endfacet
  facet normal 3.46583e-07 -0.309016 -0.951057
    outer loop
      vertex -75.25 -40.25 5.71778
      vertex -75.6248 -39.7146 5.54381
      vertex -75.3756 -39.7461 5.55404
    endloop
  endfacet
  facet normal 4.23126e-06 -0.309013 -0.951058
    outer loop
      vertex -75.25 -40.25 5.71778
      vertex -75.868 -39.6521 5.52352
      vertex -75.6248 -39.7146 5.54381
    endloop
  endfacet
  facet normal -1.00092e-06 -0.309018 -0.951056
    outer loop
      vertex -75.25 -40.25 5.71778
      vertex -76.1016 -39.5597 5.49347
      vertex -75.868 -39.6521 5.52352
    endloop
  endfacet
  facet normal 1.75652e-06 -0.309015 -0.951057
    outer loop
      vertex -75.25 -40.25 5.71778
      vertex -76.2245 -39.4921 5.47152
      vertex -76.1016 -39.5597 5.49347
    endloop
  endfacet
  facet normal -4.63745e-08 -0.309017 -0.951056
    outer loop
      vertex -92.75 -40.4431 5.78054
      vertex -76.2245 -39.4921 5.47152
      vertex -75.25 -40.25 5.71778
    endloop
  endfacet
  facet normal 0 -0.309021 -0.951055
    outer loop
      vertex -92.75 -40.4431 5.78054
      vertex -75.25 -40.25 5.71778
      vertex 92.75 -40.4431 5.78054
    endloop
  endfacet
  facet normal -0 -0.309018 -0.951056
    outer loop
      vertex -76.2245 -39.4921 5.47152
      vertex -92.75 -40.4431 5.78054
      vertex -91.75 -39.4921 5.47152
    endloop
  endfacet
  facet normal -9.9748e-07 -0.309017 -0.951056
    outer loop
      vertex -92.75 -36.6389 4.54447
      vertex -91.75 -39.4921 5.47152
      vertex -92.75 -40.4431 5.78054
    endloop
  endfacet
  facet normal 0 -0.309017 -0.951057
    outer loop
      vertex -91.75 -39.4921 5.47152
      vertex -92.75 -36.6389 4.54447
      vertex -91.75 -36.6389 4.54447
    endloop
  endfacet
  facet normal -0 -0.309017 -0.951057
    outer loop
      vertex 92.75 -36.6389 4.54447
      vertex 91.75 -39.4921 5.47152
      vertex 91.75 -36.6389 4.54447
    endloop
  endfacet
  facet normal -0 -0.309016 -0.951057
    outer loop
      vertex 75.3756 -39.7461 5.55404
      vertex 75.25 -40.25 5.71778
      vertex 75.25 -39.7461 5.55404
    endloop
  endfacet
  facet normal 0 -0.951056 0.309017
    outer loop
      vertex -92.75 -36.1169 19.0953
      vertex -75.25 -40.0469 7
      vertex 92.75 -36.1169 19.0953
    endloop
  endfacet
  facet normal -1.07104e-07 -0.951057 0.309017
    outer loop
      vertex -92.75 -40.4431 5.78054
      vertex -75.25 -40.0469 7
      vertex -92.75 -36.1169 19.0953
    endloop
  endfacet
  facet normal 0 -0.951057 0.309014
    outer loop
      vertex -75.25 -40.25 6.37497
      vertex -92.75 -40.4431 5.78054
      vertex 75.25 -40.25 6.37497
    endloop
  endfacet
  facet normal -8.11608e-08 -0.951057 0.309017
    outer loop
      vertex -75.25 -40.0469 7
      vertex -92.75 -40.4431 5.78054
      vertex -75.25 -40.25 6.37497
    endloop
  endfacet
  facet normal 0 -0.951056 0.309017
    outer loop
      vertex 75.25 -40.0469 7
      vertex 92.75 -36.1169 19.0953
      vertex -75.25 -40.0469 7
    endloop
  endfacet
  facet normal 8.11608e-08 -0.951057 0.309017
    outer loop
      vertex 92.75 -40.4431 5.78054
      vertex 75.25 -40.0469 7
      vertex 75.25 -40.25 6.37497
    endloop
  endfacet
  facet normal 1.07104e-07 -0.951057 0.309017
    outer loop
      vertex 75.25 -40.0469 7
      vertex 92.75 -40.4431 5.78054
      vertex 92.75 -36.1169 19.0953
    endloop
  endfacet
  facet normal 0 -0.951057 0.309014
    outer loop
      vertex 92.75 -40.4431 5.78054
      vertex 75.25 -40.25 6.37497
      vertex -92.75 -40.4431 5.78054
    endloop
  endfacet
  facet normal 0 0.951057 -0.309017
    outer loop
      vertex 91.75 -35.1658 18.7863
      vertex 76.8102 -38.9955 7
      vertex -91.75 -35.1658 18.7863
    endloop
  endfacet
  facet normal 1.46926e-07 0.951056 -0.309017
    outer loop
      vertex 91.75 -39.4921 5.47152
      vertex 76.8102 -38.9955 7
      vertex 91.75 -35.1658 18.7863
    endloop
  endfacet
  facet normal -4.55311e-07 0.951055 -0.309022
    outer loop
      vertex 76.8102 -38.9955 7
      vertex 91.75 -39.4921 5.47152
      vertex 76.7079 -39.1191 6.61948
    endloop
  endfacet
  facet normal 4.75702e-09 0.951056 -0.309017
    outer loop
      vertex 76.7079 -39.1191 6.61948
      vertex 91.75 -39.4921 5.47152
      vertex 76.5248 -39.291 6.09032
    endloop
  endfacet
  facet normal 9.2246e-09 0.951057 -0.309017
    outer loop
      vertex 76.5248 -39.291 6.09032
      vertex 91.75 -39.4921 5.47152
      vertex 76.3217 -39.4387 5.63597
    endloop
  endfacet
  facet normal 0 0.951056 -0.309018
    outer loop
      vertex 76.3217 -39.4387 5.63597
      vertex 91.75 -39.4921 5.47152
      vertex 76.2245 -39.4921 5.47152
    endloop
  endfacet
  facet normal 0 0.951057 -0.309017
    outer loop
      vertex -76.8102 -38.9955 7
      vertex -91.75 -35.1658 18.7863
      vertex 76.8102 -38.9955 7
    endloop
  endfacet
  facet normal 4.55311e-07 0.951055 -0.309022
    outer loop
      vertex -91.75 -39.4921 5.47152
      vertex -76.8102 -38.9955 7
      vertex -76.7079 -39.1191 6.61948
    endloop
  endfacet
  facet normal -4.75702e-09 0.951056 -0.309017
    outer loop
      vertex -91.75 -39.4921 5.47152
      vertex -76.7079 -39.1191 6.61948
      vertex -76.5248 -39.291 6.09032
    endloop
  endfacet
  facet normal -9.2246e-09 0.951057 -0.309017
    outer loop
      vertex -91.75 -39.4921 5.47152
      vertex -76.5248 -39.291 6.09032
      vertex -76.3217 -39.4387 5.63597
    endloop
  endfacet
  facet normal 0 0.951056 -0.309018
    outer loop
      vertex -91.75 -39.4921 5.47152
      vertex -76.3217 -39.4387 5.63597
      vertex -76.2245 -39.4921 5.47152
    endloop
  endfacet
  facet normal -1.46926e-07 0.951056 -0.309017
    outer loop
      vertex -76.8102 -38.9955 7
      vertex -91.75 -39.4921 5.47152
      vertex -91.75 -35.1658 18.7863
    endloop
  endfacet
  facet normal -1 0 0
    outer loop
      vertex 91.75 -36.6389 4.54447
      vertex 91.75 -35.1658 18.7863
      vertex 91.75 -32.3127 17.8593
    endloop
  endfacet
  facet normal -1 0 0
    outer loop
      vertex 91.75 -35.1658 18.7863
      vertex 91.75 -36.6389 4.54447
      vertex 91.75 -39.4921 5.47152
    endloop
  endfacet
  facet normal 1 0 0
    outer loop
      vertex 92.75 -36.1169 19.0953
      vertex 92.75 -36.6389 4.54447
      vertex 92.75 -32.3127 17.8593
    endloop
  endfacet
  facet normal 1 0 -0
    outer loop
      vertex 92.75 -36.6389 4.54447
      vertex 92.75 -36.1169 19.0953
      vertex 92.75 -40.4431 5.78054
    endloop
  endfacet
  facet normal 0 0.951057 -0.309017
    outer loop
      vertex 92.75 -36.6389 4.54447
      vertex 91.75 -32.3127 17.8593
      vertex 92.75 -32.3127 17.8593
    endloop
  endfacet
  facet normal 0 0.951057 -0.309017
    outer loop
      vertex 91.75 -32.3127 17.8593
      vertex 92.75 -36.6389 4.54447
      vertex 91.75 -36.6389 4.54447
    endloop
  endfacet
  facet normal -1 0 0
    outer loop
      vertex -92.75 -36.6389 4.54447
      vertex -92.75 -36.1169 19.0953
      vertex -92.75 -32.3127 17.8593
    endloop
  endfacet
  facet normal -1 0 0
    outer loop
      vertex -92.75 -36.1169 19.0953
      vertex -92.75 -36.6389 4.54447
      vertex -92.75 -40.4431 5.78054
    endloop
  endfacet
  facet normal 1 0 0
    outer loop
      vertex -91.75 -35.1658 18.7863
      vertex -91.75 -36.6389 4.54447
      vertex -91.75 -32.3127 17.8593
    endloop
  endfacet
  facet normal 1 0 -0
    outer loop
      vertex -91.75 -36.6389 4.54447
      vertex -91.75 -35.1658 18.7863
      vertex -91.75 -39.4921 5.47152
    endloop
  endfacet
  facet normal 0 0.951057 -0.309017
    outer loop
      vertex -91.75 -36.6389 4.54447
      vertex -92.75 -32.3127 17.8593
      vertex -91.75 -32.3127 17.8593
    endloop
  endfacet
  facet normal 0 0.951057 -0.309017
    outer loop
      vertex -92.75 -32.3127 17.8593
      vertex -91.75 -36.6389 4.54447
      vertex -92.75 -36.6389 4.54447
    endloop
  endfacet
  facet normal 0 1 0
    outer loop
      vertex 77.25 -28.75 7
      vertex 76.25 -28.75 -6
      vertex 76.25 -28.75 7
    endloop
  endfacet
  facet normal 0 1 0
    outer loop
      vertex 76.25 -28.75 -6
      vertex 77.25 -28.75 -7
      vertex -76.25 -28.75 -6
    endloop
  endfacet
  facet normal 0 1 -0
    outer loop
      vertex 77.25 -28.75 -7
      vertex 76.25 -28.75 -6
      vertex 77.25 -28.75 7
    endloop
  endfacet
  facet normal 0 1 -0
    outer loop
      vertex -76.25 -28.75 -6
      vertex -77.25 -28.75 7
      vertex -76.25 -28.75 7
    endloop
  endfacet
  facet normal 0 1 0
    outer loop
      vertex -76.25 -28.75 -6
      vertex -77.25 -28.75 -7
      vertex -77.25 -28.75 7
    endloop
  endfacet
  facet normal 0 1 0
    outer loop
      vertex -77.25 -28.75 -7
      vertex -76.25 -28.75 -6
      vertex 77.25 -28.75 -7
    endloop
  endfacet
  facet normal -1 -0 0
    outer loop
      vertex -75.25 -40.0469 7
      vertex -75.25 -40.25 6.37497
      vertex -75.25 -40.25 7
    endloop
  endfacet
  facet normal -1 0 0
    outer loop
      vertex -75.25 -40.25 -7
      vertex -75.25 -39.7461 5.55404
      vertex -75.25 -39.7461 -7
    endloop
  endfacet
  facet normal -1 -0 0
    outer loop
      vertex -75.25 -39.7461 5.55404
      vertex -75.25 -40.25 -7
      vertex -75.25 -40.25 5.71778
    endloop
  endfacet
  facet normal -0 0 1
    outer loop
      vertex -75.25 -40.0469 7
      vertex 75.25 -40.25 7
      vertex 75.25 -40.0469 7
    endloop
  endfacet
  facet normal 0 0 1
    outer loop
      vertex 75.25 -40.25 7
      vertex -75.25 -40.0469 7
      vertex -75.25 -40.25 7
    endloop
  endfacet
  facet normal 1 -0 0
    outer loop
      vertex 75.25 -40.25 7
      vertex 75.25 -40.25 6.37497
      vertex 75.25 -40.0469 7
    endloop
  endfacet
  facet normal 1 0 0
    outer loop
      vertex 75.25 -40.25 -7
      vertex 75.25 -39.7461 5.55404
      vertex 75.25 -40.25 5.71778
    endloop
  endfacet
  facet normal 1 0 0
    outer loop
      vertex 75.25 -39.7461 5.55404
      vertex 75.25 -40.25 -7
      vertex 75.25 -39.7461 -7
    endloop
  endfacet
  facet normal 0 -1 0
    outer loop
      vertex -75.25 -40.25 6.37497
      vertex 75.25 -40.25 7
      vertex -75.25 -40.25 7
    endloop
  endfacet
  facet normal 0 -1 -0
    outer loop
      vertex 75.25 -40.25 7
      vertex -75.25 -40.25 6.37497
      vertex 75.25 -40.25 6.37497
    endloop
  endfacet
  facet normal 0 -1 0
    outer loop
      vertex -75.25 -40.25 -7
      vertex 75.25 -40.25 5.71778
      vertex -75.25 -40.25 5.71778
    endloop
  endfacet
  facet normal 0 -1 -0
    outer loop
      vertex 75.25 -40.25 5.71778
      vertex -75.25 -40.25 -7
      vertex 75.25 -40.25 -7
    endloop
  endfacet
endsolid OpenSCAD_Model
