solid OpenSCAD_Model
  facet normal -1 0 0
    outer loop
      vertex 0 0 0
      vertex 0 2 7
      vertex 0 2 0
    endloop
  endfacet
  facet normal -1 -0 0
    outer loop
      vertex 0 2 7
      vertex 0 0 0
      vertex 0 0 7
    endloop
  endfacet
  facet normal 0 0 -1
    outer loop
      vertex 4 0 5
      vertex 34 2 5
      vertex 34 0 5
    endloop
  endfacet
  facet normal -0 0 -1
    outer loop
      vertex 34 2 5
      vertex 4 0 5
      vertex 4 2 5
    endloop
  endfacet
  facet normal 1 -0 0
    outer loop
      vertex 4 0 5
      vertex 4 2 0
      vertex 4 2 5
    endloop
  endfacet
  facet normal 1 0 0
    outer loop
      vertex 4 2 0
      vertex 4 0 5
      vertex 4 0 0
    endloop
  endfacet
  facet normal 0 1 0
    outer loop
      vertex 38 2 7
      vertex 34 2 5
      vertex 0 2 7
    endloop
  endfacet
  facet normal 0 1 -0
    outer loop
      vertex 38 2 0
      vertex 34 2 5
      vertex 38 2 7
    endloop
  endfacet
  facet normal 0 1 0
    outer loop
      vertex 34 2 5
      vertex 38 2 0
      vertex 34 2 0
    endloop
  endfacet
  facet normal 0 1 -0
    outer loop
      vertex 4 2 5
      vertex 0 2 7
      vertex 34 2 5
    endloop
  endfacet
  facet normal 0 1 0
    outer loop
      vertex 0 2 0
      vertex 4 2 5
      vertex 4 2 0
    endloop
  endfacet
  facet normal 0 1 0
    outer loop
      vertex 4 2 5
      vertex 0 2 0
      vertex 0 2 7
    endloop
  endfacet
  facet normal 0 0 -1
    outer loop
      vertex 0 0 0
      vertex 4 2 0
      vertex 4 0 0
    endloop
  endfacet
  facet normal -0 0 -1
    outer loop
      vertex 4 2 0
      vertex 0 0 0
      vertex 0 2 0
    endloop
  endfacet
  facet normal 0 -1 0
    outer loop
      vertex 0 0 7
      vertex 4 0 5
      vertex 38 0 7
    endloop
  endfacet
  facet normal 0 -1 0
    outer loop
      vertex 0 0 0
      vertex 4 0 5
      vertex 0 0 7
    endloop
  endfacet
  facet normal 0 -1 -0
    outer loop
      vertex 4 0 5
      vertex 0 0 0
      vertex 4 0 0
    endloop
  endfacet
  facet normal 0 -1 0
    outer loop
      vertex 34 0 5
      vertex 38 0 7
      vertex 4 0 5
    endloop
  endfacet
  facet normal 0 -1 0
    outer loop
      vertex 38 0 0
      vertex 34 0 5
      vertex 34 0 0
    endloop
  endfacet
  facet normal 0 -1 0
    outer loop
      vertex 34 0 5
      vertex 38 0 0
      vertex 38 0 7
    endloop
  endfacet
  facet normal -1 0 0
    outer loop
      vertex 34 0 0
      vertex 34 2 5
      vertex 34 2 0
    endloop
  endfacet
  facet normal -1 -0 0
    outer loop
      vertex 34 2 5
      vertex 34 0 0
      vertex 34 0 5
    endloop
  endfacet
  facet normal 1 -0 0
    outer loop
      vertex 38 0 7
      vertex 38 2 0
      vertex 38 2 7
    endloop
  endfacet
  facet normal 1 0 0
    outer loop
      vertex 38 2 0
      vertex 38 0 7
      vertex 38 0 0
    endloop
  endfacet
  facet normal 0 0 -1
    outer loop
      vertex 34 0 0
      vertex 38 2 0
      vertex 38 0 0
    endloop
  endfacet
  facet normal -0 0 -1
    outer loop
      vertex 38 2 0
      vertex 34 0 0
      vertex 34 2 0
    endloop
  endfacet
  facet normal -0 0 1
    outer loop
      vertex 0 2 7
      vertex 38 0 7
      vertex 38 2 7
    endloop
  endfacet
  facet normal 0 0 1
    outer loop
      vertex 38 0 7
      vertex 0 2 7
      vertex 0 0 7
    endloop
  endfacet
endsolid OpenSCAD_Model
