solid OpenSCAD_Model
  facet normal -1 0 0
    outer loop
      vertex 0 -39.25 -5
      vertex 0 -5.31323 5
      vertex 0 -5.31323 -5
    endloop
  endfacet
  facet normal -1 -0 0
    outer loop
      vertex 0 -5.31323 5
      vertex 0 -39.25 -5
      vertex 0 -39.25 5
    endloop
  endfacet
  facet normal -1 0 0
    outer loop
      vertex 0 5.31323 -5
      vertex 0 39.25 5
      vertex 0 39.25 -5
    endloop
  endfacet
  facet normal -1 -0 0
    outer loop
      vertex 0 39.25 5
      vertex 0 5.31323 -5
      vertex 0 5.31323 5
    endloop
  endfacet
  facet normal -1 0 0
    outer loop
      vertex 0 -4.29781 -5
      vertex 0 4.29781 5
      vertex 0 4.29781 -5
    endloop
  endfacet
  facet normal -1 -0 0
    outer loop
      vertex 0 4.29781 5
      vertex 0 -4.29781 -5
      vertex 0 -4.29781 5
    endloop
  endfacet
  facet normal 0 0 1
    outer loop
      vertex 0 -4.29781 5
      vertex -9.53674e-07 -5.31323 5
      vertex 0 -5.31323 5
    endloop
  endfacet
  facet normal -0 0 1
    outer loop
      vertex -22.9777 -1.26165 5
      vertex 0 -4.29781 5
      vertex -22.9132 -0.257596 5
    endloop
  endfacet
  facet normal 0 0 1
    outer loop
      vertex -22.9777 -1.26165 5
      vertex -22.9132 -0.257596 5
      vertex -22.9136 -0.259995 5
    endloop
  endfacet
  facet normal -0 0 1
    outer loop
      vertex -23.0523 -0.252739 5
      vertex -22.9136 -0.259995 5
      vertex -22.9477 -0.252739 5
    endloop
  endfacet
  facet normal 0 0 1
    outer loop
      vertex 0 -4.29781 5
      vertex -22.9777 -1.26165 5
      vertex -9.53674e-07 -5.31323 5
    endloop
  endfacet
  facet normal 0 0 1
    outer loop
      vertex -22.9136 -0.259995 5
      vertex -23.0523 -0.252739 5
      vertex -23.1289 -0.269023 5
    endloop
  endfacet
  facet normal 0 0 1
    outer loop
      vertex -22.9136 -0.259995 5
      vertex -23.1289 -0.269023 5
      vertex -22.9777 -1.26165 5
    endloop
  endfacet
  facet normal 0 0 1
    outer loop
      vertex -27.9585 -1.56312 5
      vertex -23.1289 -0.269023 5
      vertex -23.1294 -0.267036 5
    endloop
  endfacet
  facet normal 0 0 1
    outer loop
      vertex -23.1289 -0.269023 5
      vertex -27.9585 -1.56312 5
      vertex -22.9777 -1.26165 5
    endloop
  endfacet
  facet normal 0 0 1
    outer loop
      vertex -22.9777 -1.26165 5
      vertex -27.7008 -2.52507 5
      vertex -27.7002 -2.52706 5
    endloop
  endfacet
  facet normal 0 0 1
    outer loop
      vertex -22.9777 -1.26165 5
      vertex -27.9585 -1.56312 5
      vertex -27.7008 -2.52507 5
    endloop
  endfacet
  facet normal -0 0 1
    outer loop
      vertex -27.9841 -2.51962 5
      vertex -27.7008 -2.52507 5
      vertex -27.9585 -1.56312 5
    endloop
  endfacet
  facet normal 0 0 1
    outer loop
      vertex -27.7008 -2.52507 5
      vertex -27.8819 -2.54136 5
      vertex -27.7774 -2.54136 5
    endloop
  endfacet
  facet normal 0 -0 1
    outer loop
      vertex -27.9585 -1.56312 5
      vertex -23.1294 -0.267036 5
      vertex -27.959 -1.56113 5
    endloop
  endfacet
  facet normal 0 0 1
    outer loop
      vertex -28.0796 -1.61108 5
      vertex -27.9585 -1.56312 5
      vertex -27.9841 -1.56857 5
    endloop
  endfacet
  facet normal 0 0 1
    outer loop
      vertex -27.7008 -2.52507 5
      vertex -27.9841 -2.51962 5
      vertex -27.8819 -2.54136 5
    endloop
  endfacet
  facet normal 0 0 1
    outer loop
      vertex -28.1642 -1.67252 5
      vertex -27.9585 -1.56312 5
      vertex -28.0796 -1.61108 5
    endloop
  endfacet
  facet normal 0 0 1
    outer loop
      vertex -27.9585 -1.56312 5
      vertex -28.0796 -2.47711 5
      vertex -27.9841 -2.51962 5
    endloop
  endfacet
  facet normal 0 0 1
    outer loop
      vertex -27.9585 -1.56312 5
      vertex -28.1642 -1.67252 5
      vertex -28.0796 -2.47711 5
    endloop
  endfacet
  facet normal 0 0 1
    outer loop
      vertex -28.1642 -1.67252 5
      vertex -28.1642 -2.41567 5
      vertex -28.0796 -2.47711 5
    endloop
  endfacet
  facet normal -0 0 1
    outer loop
      vertex -28.2341 -1.7502 5
      vertex -28.1642 -2.41567 5
      vertex -28.1642 -1.67252 5
    endloop
  endfacet
  facet normal 0 0 1
    outer loop
      vertex -28.2341 -1.7502 5
      vertex -28.2341 -2.33799 5
      vertex -28.1642 -2.41567 5
    endloop
  endfacet
  facet normal -0 0 1
    outer loop
      vertex -28.2864 -1.84073 5
      vertex -28.2341 -2.33799 5
      vertex -28.2341 -1.7502 5
    endloop
  endfacet
  facet normal 0 0 1
    outer loop
      vertex -28.2864 -1.84073 5
      vertex -28.2864 -2.24746 5
      vertex -28.2341 -2.33799 5
    endloop
  endfacet
  facet normal -0 0 1
    outer loop
      vertex -28.3187 -1.94014 5
      vertex -28.2864 -2.24746 5
      vertex -28.2864 -1.84073 5
    endloop
  endfacet
  facet normal 0 0 1
    outer loop
      vertex -28.3187 -1.94014 5
      vertex -28.3187 -2.14805 5
      vertex -28.2864 -2.24746 5
    endloop
  endfacet
  facet normal 0 -0 1
    outer loop
      vertex -28.3187 -2.14805 5
      vertex -28.3187 -1.94014 5
      vertex -28.3296 -2.0441 5
    endloop
  endfacet
  facet normal 0 0 1
    outer loop
      vertex -27.7008 2.52507 5
      vertex -27.9841 2.51962 5
      vertex -27.9585 1.56312 5
    endloop
  endfacet
  facet normal -0 0 1
    outer loop
      vertex -28.0796 2.47711 5
      vertex -27.9585 1.56312 5
      vertex -27.9841 2.51962 5
    endloop
  endfacet
  facet normal -0 0 1
    outer loop
      vertex -28.1642 2.41567 5
      vertex -27.9585 1.56312 5
      vertex -28.0796 2.47711 5
    endloop
  endfacet
  facet normal 0 0 1
    outer loop
      vertex -27.9585 1.56312 5
      vertex -28.0796 1.61108 5
      vertex -27.9841 1.56857 5
    endloop
  endfacet
  facet normal -0 0 1
    outer loop
      vertex -28.1642 1.67252 5
      vertex -27.9585 1.56312 5
      vertex -28.1642 2.41567 5
    endloop
  endfacet
  facet normal 0 0 1
    outer loop
      vertex -27.9585 1.56312 5
      vertex -28.1642 1.67252 5
      vertex -28.0796 1.61108 5
    endloop
  endfacet
  facet normal -0 0 1
    outer loop
      vertex -28.2341 2.33799 5
      vertex -28.1642 1.67252 5
      vertex -28.1642 2.41567 5
    endloop
  endfacet
  facet normal 0 0 1
    outer loop
      vertex -28.2341 2.33799 5
      vertex -28.2341 1.7502 5
      vertex -28.1642 1.67252 5
    endloop
  endfacet
  facet normal -0 0 1
    outer loop
      vertex -28.2864 2.24746 5
      vertex -28.2341 1.7502 5
      vertex -28.2341 2.33799 5
    endloop
  endfacet
  facet normal 0 0 1
    outer loop
      vertex -28.2864 2.24746 5
      vertex -28.2864 1.84073 5
      vertex -28.2341 1.7502 5
    endloop
  endfacet
  facet normal -0 0 1
    outer loop
      vertex -28.3187 2.14805 5
      vertex -28.2864 1.84073 5
      vertex -28.2864 2.24746 5
    endloop
  endfacet
  facet normal 0 0 1
    outer loop
      vertex -28.3187 2.14805 5
      vertex -28.3187 1.94014 5
      vertex -28.2864 1.84073 5
    endloop
  endfacet
  facet normal 0 -0 1
    outer loop
      vertex -28.3187 1.94014 5
      vertex -28.3187 2.14805 5
      vertex -28.3296 2.0441 5
    endloop
  endfacet
  facet normal 0 0 1
    outer loop
      vertex -9.53674e-07 5.31323 5
      vertex 0 4.29781 5
      vertex 0 5.31323 5
    endloop
  endfacet
  facet normal 0 0 1
    outer loop
      vertex -22.9777 1.26165 5
      vertex 0 4.29781 5
      vertex -9.53674e-07 5.31323 5
    endloop
  endfacet
  facet normal 0 0 1
    outer loop
      vertex 0 4.29781 5
      vertex -22.9777 1.26165 5
      vertex -22.9132 0.257596 5
    endloop
  endfacet
  facet normal 0 0 1
    outer loop
      vertex -22.9132 0.257596 5
      vertex -22.9777 1.26165 5
      vertex -22.9136 0.259995 5
    endloop
  endfacet
  facet normal -0 0 1
    outer loop
      vertex -23.1289 0.269023 5
      vertex -22.9136 0.259995 5
      vertex -22.9777 1.26165 5
    endloop
  endfacet
  facet normal 0 -0 1
    outer loop
      vertex -23.0523 0.252739 5
      vertex -22.9136 0.259995 5
      vertex -23.1289 0.269023 5
    endloop
  endfacet
  facet normal 0 0 1
    outer loop
      vertex -22.9136 0.259995 5
      vertex -23.0523 0.252739 5
      vertex -22.9477 0.252739 5
    endloop
  endfacet
  facet normal 0 0 1
    outer loop
      vertex -27.9585 1.56312 5
      vertex -23.1289 0.269023 5
      vertex -22.9777 1.26165 5
    endloop
  endfacet
  facet normal -0 0 1
    outer loop
      vertex -27.7008 2.52507 5
      vertex -22.9777 1.26165 5
      vertex -27.7002 2.52706 5
    endloop
  endfacet
  facet normal -0 0 1
    outer loop
      vertex -27.9585 1.56312 5
      vertex -22.9777 1.26165 5
      vertex -27.7008 2.52507 5
    endloop
  endfacet
  facet normal -0 0 1
    outer loop
      vertex -27.8819 2.54136 5
      vertex -27.7008 2.52507 5
      vertex -27.7774 2.54136 5
    endloop
  endfacet
  facet normal 0 0 1
    outer loop
      vertex -27.9841 2.51962 5
      vertex -27.7008 2.52507 5
      vertex -27.8819 2.54136 5
    endloop
  endfacet
  facet normal 0 0 1
    outer loop
      vertex -23.1289 0.269023 5
      vertex -27.9585 1.56312 5
      vertex -23.1294 0.267036 5
    endloop
  endfacet
  facet normal 0 0 1
    outer loop
      vertex -23.1294 0.267036 5
      vertex -27.9585 1.56312 5
      vertex -27.959 1.56113 5
    endloop
  endfacet
  facet normal 0 0 1
    outer loop
      vertex 13 38.75 5
      vertex 13.5 39.7473 5
      vertex 13.5 39.75 5
    endloop
  endfacet
  facet normal 0 0 1
    outer loop
      vertex 13.5 39.7473 5
      vertex 13 38.75 5
      vertex 13.4477 33.7527 5
    endloop
  endfacet
  facet normal -0 0 1
    outer loop
      vertex 13 34.25 5
      vertex 13.4477 33.7527 5
      vertex 13 38.75 5
    endloop
  endfacet
  facet normal 0 0 1
    outer loop
      vertex 13.4477 33.7527 5
      vertex 13 34.25 5
      vertex 13.3455 33.7745 5
    endloop
  endfacet
  facet normal 0 0 1
    outer loop
      vertex 13.3455 33.7745 5
      vertex 13 34.25 5
      vertex 13.25 33.817 5
    endloop
  endfacet
  facet normal 0 0 1
    outer loop
      vertex 13.1654 33.8784 5
      vertex 13 34.25 5
      vertex 13.0955 33.9561 5
    endloop
  endfacet
  facet normal 0 0 1
    outer loop
      vertex 13.0955 33.9561 5
      vertex 13 34.25 5
      vertex 13.0432 34.0466 5
    endloop
  endfacet
  facet normal 0 0 1
    outer loop
      vertex 13.25 33.817 5
      vertex 13 34.25 5
      vertex 13.1654 33.8784 5
    endloop
  endfacet
  facet normal 0 0 1
    outer loop
      vertex 13.5 39.75 5
      vertex 1 38.75 5
      vertex 13 38.75 5
    endloop
  endfacet
  facet normal -0 0 1
    outer loop
      vertex 0.5 39.7473 5
      vertex 1 38.75 5
      vertex 0.5 39.75 5
    endloop
  endfacet
  facet normal -0 0 1
    outer loop
      vertex 0.5 39.75 5
      vertex 1 38.75 5
      vertex 13.5 39.75 5
    endloop
  endfacet
  facet normal 0 0 1
    outer loop
      vertex 13.5 39.7473 5
      vertex 14 39.25 5
      vertex 13.9891 39.354 5
    endloop
  endfacet
  facet normal 0 0 1
    outer loop
      vertex 13.4477 33.7527 5
      vertex 14 39.25 5
      vertex 13.5 39.7473 5
    endloop
  endfacet
  facet normal 0 0 1
    outer loop
      vertex 13.5 39.7473 5
      vertex 13.9891 39.354 5
      vertex 13.9568 39.4534 5
    endloop
  endfacet
  facet normal 0 0 1
    outer loop
      vertex 14 39.25 5
      vertex 13.4477 33.7527 5
      vertex 14 34.25 5
    endloop
  endfacet
  facet normal 0 0 1
    outer loop
      vertex 13.5 39.7473 5
      vertex 13.9568 39.4534 5
      vertex 13.9045 39.5439 5
    endloop
  endfacet
  facet normal 0 0 1
    outer loop
      vertex 14 34.25 5
      vertex 13.4477 33.7527 5
      vertex 13.9891 34.146 5
    endloop
  endfacet
  facet normal 0 0 1
    outer loop
      vertex 13.5 39.7473 5
      vertex 13.9045 39.5439 5
      vertex 13.8346 39.6216 5
    endloop
  endfacet
  facet normal 0 0 1
    outer loop
      vertex 13.9891 34.146 5
      vertex 13.4477 33.7527 5
      vertex 13.9568 34.0466 5
    endloop
  endfacet
  facet normal 0 0 1
    outer loop
      vertex 13.5 39.7473 5
      vertex 13.8346 39.6216 5
      vertex 13.75 39.683 5
    endloop
  endfacet
  facet normal 0 0 1
    outer loop
      vertex 13.9568 34.0466 5
      vertex 13.4477 33.7527 5
      vertex 13.9045 33.9561 5
    endloop
  endfacet
  facet normal 0 0 1
    outer loop
      vertex 13.5 39.7473 5
      vertex 13.75 39.683 5
      vertex 13.6545 39.7255 5
    endloop
  endfacet
  facet normal 0 0 1
    outer loop
      vertex 13.9045 33.9561 5
      vertex 13.4477 33.7527 5
      vertex 13.8346 33.8784 5
    endloop
  endfacet
  facet normal -0 0 1
    outer loop
      vertex 13.5 39.7473 5
      vertex 13.6545 39.7255 5
      vertex 13.5523 39.7473 5
    endloop
  endfacet
  facet normal 0 0 1
    outer loop
      vertex 13.8346 33.8784 5
      vertex 13.4477 33.7527 5
      vertex 13.75 33.817 5
    endloop
  endfacet
  facet normal 0 0 1
    outer loop
      vertex 13.75 33.817 5
      vertex 13.4477 33.7527 5
      vertex 13.6545 33.7745 5
    endloop
  endfacet
  facet normal 0 0 1
    outer loop
      vertex 13.6545 33.7745 5
      vertex 13.4477 33.7527 5
      vertex 13.5523 33.7527 5
    endloop
  endfacet
  facet normal 0 0 1
    outer loop
      vertex 13.0432 34.0466 5
      vertex 13 34.25 5
      vertex 13.0109 34.146 5
    endloop
  endfacet
  facet normal 0 0 1
    outer loop
      vertex 13 -34.25 5
      vertex 14 -34.25 5
      vertex 13.9891 -34.146 5
    endloop
  endfacet
  facet normal 0 0 1
    outer loop
      vertex 14 -34.25 5
      vertex 13 -38.75 5
      vertex 14 -39.25 5
    endloop
  endfacet
  facet normal 0 0 1
    outer loop
      vertex 13 -34.25 5
      vertex 13.9891 -34.146 5
      vertex 13.9568 -34.0466 5
    endloop
  endfacet
  facet normal 0 -0 1
    outer loop
      vertex 13.5 -39.7473 5
      vertex 14 -39.25 5
      vertex 13 -38.75 5
    endloop
  endfacet
  facet normal 0 0 1
    outer loop
      vertex 13 -34.25 5
      vertex 13.9568 -34.0466 5
      vertex 13.9045 -33.9561 5
    endloop
  endfacet
  facet normal 0 0 1
    outer loop
      vertex 14 -39.25 5
      vertex 13.5 -39.7473 5
      vertex 13.9891 -39.354 5
    endloop
  endfacet
  facet normal 0 0 1
    outer loop
      vertex 13 -34.25 5
      vertex 13.9045 -33.9561 5
      vertex 13.8346 -33.8784 5
    endloop
  endfacet
  facet normal 0 0 1
    outer loop
      vertex 13.9891 -39.354 5
      vertex 13.5 -39.7473 5
      vertex 13.9568 -39.4534 5
    endloop
  endfacet
  facet normal 0 0 1
    outer loop
      vertex 13 -34.25 5
      vertex 13.8346 -33.8784 5
      vertex 13.75 -33.817 5
    endloop
  endfacet
  facet normal 0 0 1
    outer loop
      vertex 13.9568 -39.4534 5
      vertex 13.5 -39.7473 5
      vertex 13.9045 -39.5439 5
    endloop
  endfacet
  facet normal 0 0 1
    outer loop
      vertex 13 -34.25 5
      vertex 13.75 -33.817 5
      vertex 13.6545 -33.7745 5
    endloop
  endfacet
  facet normal 0 0 1
    outer loop
      vertex 13.9045 -39.5439 5
      vertex 13.5 -39.7473 5
      vertex 13.8346 -39.6216 5
    endloop
  endfacet
  facet normal 0 0 1
    outer loop
      vertex 13 -34.25 5
      vertex 13.6545 -33.7745 5
      vertex 13.5523 -33.7527 5
    endloop
  endfacet
  facet normal 0 0 1
    outer loop
      vertex 13.8346 -39.6216 5
      vertex 13.5 -39.7473 5
      vertex 13.75 -39.683 5
    endloop
  endfacet
  facet normal 0 0 1
    outer loop
      vertex 13.75 -39.683 5
      vertex 13.5 -39.7473 5
      vertex 13.6545 -39.7255 5
    endloop
  endfacet
  facet normal 0 0 1
    outer loop
      vertex 13 -34.25 5
      vertex 13.5523 -33.7527 5
      vertex 13.4477 -33.7527 5
    endloop
  endfacet
  facet normal 0 0 1
    outer loop
      vertex 13.6545 -39.7255 5
      vertex 13.5 -39.7473 5
      vertex 13.5523 -39.7473 5
    endloop
  endfacet
  facet normal 0 0 1
    outer loop
      vertex 13 -34.25 5
      vertex 13.4477 -33.7527 5
      vertex 13.3455 -33.7745 5
    endloop
  endfacet
  facet normal 0 0 1
    outer loop
      vertex 13 -34.25 5
      vertex 13.3455 -33.7745 5
      vertex 13.25 -33.817 5
    endloop
  endfacet
  facet normal 0 0 1
    outer loop
      vertex 13 -34.25 5
      vertex 13.25 -33.817 5
      vertex 13.1654 -33.8784 5
    endloop
  endfacet
  facet normal 0 0 1
    outer loop
      vertex 13 -34.25 5
      vertex 13.1654 -33.8784 5
      vertex 13.0955 -33.9561 5
    endloop
  endfacet
  facet normal 0 0 1
    outer loop
      vertex 13 -34.25 5
      vertex 13.0955 -33.9561 5
      vertex 13.0432 -34.0466 5
    endloop
  endfacet
  facet normal 0 0 1
    outer loop
      vertex 13 -34.25 5
      vertex 13.0432 -34.0466 5
      vertex 13.0109 -34.146 5
    endloop
  endfacet
  facet normal 0 0 1
    outer loop
      vertex 14 -34.25 5
      vertex 13 -34.25 5
      vertex 13 -38.75 5
    endloop
  endfacet
  facet normal 0 0 1
    outer loop
      vertex 13.5 -39.7473 5
      vertex 13 -38.75 5
      vertex 13.5 -39.75 5
    endloop
  endfacet
  facet normal -0 0 1
    outer loop
      vertex 1 -38.75 5
      vertex 13.5 -39.75 5
      vertex 13 -38.75 5
    endloop
  endfacet
  facet normal -0 0 1
    outer loop
      vertex 0 39.25 5
      vertex 1 38.75 5
      vertex 0.5 39.7473 5
    endloop
  endfacet
  facet normal 0 0 1
    outer loop
      vertex 1 38.75 5
      vertex 0 5.31323 5
      vertex 1 -38.75 5
    endloop
  endfacet
  facet normal 0 0 1
    outer loop
      vertex 0.5 -39.75 5
      vertex 1 -38.75 5
      vertex 0.5 -39.7473 5
    endloop
  endfacet
  facet normal 0 0 1
    outer loop
      vertex 1 -38.75 5
      vertex 0.5 -39.75 5
      vertex 13.5 -39.75 5
    endloop
  endfacet
  facet normal 0 0 1
    outer loop
      vertex 0.345491 39.7255 5
      vertex 0.5 39.7473 5
      vertex 0.447735 39.7473 5
    endloop
  endfacet
  facet normal -0 0 1
    outer loop
      vertex 0 4.29781 5
      vertex 1 -38.75 5
      vertex 0 5.31323 5
    endloop
  endfacet
  facet normal 0 0 1
    outer loop
      vertex 0.25 39.683 5
      vertex 0.5 39.7473 5
      vertex 0.345491 39.7255 5
    endloop
  endfacet
  facet normal -0 0 1
    outer loop
      vertex 0 -4.29781 5
      vertex 1 -38.75 5
      vertex 0 4.29781 5
    endloop
  endfacet
  facet normal 0 0 1
    outer loop
      vertex 0.5 39.7473 5
      vertex 0.25 39.683 5
      vertex 0 39.25 5
    endloop
  endfacet
  facet normal -0 0 1
    outer loop
      vertex 0 -5.31323 5
      vertex 1 -38.75 5
      vertex 0 -4.29781 5
    endloop
  endfacet
  facet normal 0 0 1
    outer loop
      vertex 0 39.25 5
      vertex 0.25 39.683 5
      vertex 0.165434 39.6216 5
    endloop
  endfacet
  facet normal 0 0 1
    outer loop
      vertex 0 -39.25 5
      vertex 1 -38.75 5
      vertex 0 -5.31323 5
    endloop
  endfacet
  facet normal 0 0 1
    outer loop
      vertex 0 39.25 5
      vertex 0.165434 39.6216 5
      vertex 0.0954914 39.5439 5
    endloop
  endfacet
  facet normal 0 0 1
    outer loop
      vertex 1 -38.75 5
      vertex 0 -39.25 5
      vertex 0.5 -39.7473 5
    endloop
  endfacet
  facet normal 0 0 1
    outer loop
      vertex 0 39.25 5
      vertex 0.0954914 39.5439 5
      vertex 0.0432272 39.4534 5
    endloop
  endfacet
  facet normal -0 -0 1
    outer loop
      vertex 0.249999 -39.683 5
      vertex 0.5 -39.7473 5
      vertex 0 -39.25 5
    endloop
  endfacet
  facet normal 0 0 1
    outer loop
      vertex 0 39.25 5
      vertex 0.0432272 39.4534 5
      vertex 0.0109253 39.354 5
    endloop
  endfacet
  facet normal 0 0 1
    outer loop
      vertex 0.5 -39.7473 5
      vertex 0.345491 -39.7255 5
      vertex 0.447735 -39.7473 5
    endloop
  endfacet
  facet normal 0 0 1
    outer loop
      vertex 1 38.75 5
      vertex 0 39.25 5
      vertex 0 5.31323 5
    endloop
  endfacet
  facet normal 0 0 1
    outer loop
      vertex 0.5 -39.7473 5
      vertex 0.249999 -39.683 5
      vertex 0.345491 -39.7255 5
    endloop
  endfacet
  facet normal 0 0 1
    outer loop
      vertex 0.249999 -39.683 5
      vertex 0 -39.25 5
      vertex 0.165434 -39.6216 5
    endloop
  endfacet
  facet normal 0 0 1
    outer loop
      vertex 0.165434 -39.6216 5
      vertex 0 -39.25 5
      vertex 0.0954914 -39.5439 5
    endloop
  endfacet
  facet normal 0 0 1
    outer loop
      vertex 0.0954914 -39.5439 5
      vertex 0 -39.25 5
      vertex 0.0432272 -39.4534 5
    endloop
  endfacet
  facet normal 0 0 1
    outer loop
      vertex 0.0432272 -39.4534 5
      vertex 0 -39.25 5
      vertex 0.0109253 -39.354 5
    endloop
  endfacet
  facet normal 1 -0 0
    outer loop
      vertex 1 -38.75 5
      vertex 1 38.75 -5
      vertex 1 38.75 5
    endloop
  endfacet
  facet normal 1 0 0
    outer loop
      vertex 1 38.75 -5
      vertex 1 -38.75 5
      vertex 1 -38.75 -5
    endloop
  endfacet
  facet normal 0 0 -1
    outer loop
      vertex -27.7008 -2.52507 -5
      vertex -27.9841 -2.51962 -5
      vertex -27.9585 -1.56312 -5
    endloop
  endfacet
  facet normal 0 0 -1
    outer loop
      vertex -28.0796 -2.47711 -5
      vertex -27.9585 -1.56312 -5
      vertex -27.9841 -2.51962 -5
    endloop
  endfacet
  facet normal 0 0 -1
    outer loop
      vertex -28.1642 -2.41567 -5
      vertex -27.9585 -1.56312 -5
      vertex -28.0796 -2.47711 -5
    endloop
  endfacet
  facet normal 0 0 -1
    outer loop
      vertex -27.9585 -1.56312 -5
      vertex -28.0796 -1.61108 -5
      vertex -27.9841 -1.56857 -5
    endloop
  endfacet
  facet normal 0 0 -1
    outer loop
      vertex -28.1642 -1.67252 -5
      vertex -27.9585 -1.56312 -5
      vertex -28.1642 -2.41567 -5
    endloop
  endfacet
  facet normal 0 0 -1
    outer loop
      vertex -27.9585 -1.56312 -5
      vertex -28.1642 -1.67252 -5
      vertex -28.0796 -1.61108 -5
    endloop
  endfacet
  facet normal 0 0 -1
    outer loop
      vertex -28.2341 -2.33799 -5
      vertex -28.1642 -1.67252 -5
      vertex -28.1642 -2.41567 -5
    endloop
  endfacet
  facet normal 0 0 -1
    outer loop
      vertex -28.2341 -2.33799 -5
      vertex -28.2341 -1.7502 -5
      vertex -28.1642 -1.67252 -5
    endloop
  endfacet
  facet normal 0 0 -1
    outer loop
      vertex -28.2864 -2.24746 -5
      vertex -28.2341 -1.7502 -5
      vertex -28.2341 -2.33799 -5
    endloop
  endfacet
  facet normal 0 0 -1
    outer loop
      vertex -28.2864 -2.24746 -5
      vertex -28.2864 -1.84073 -5
      vertex -28.2341 -1.7502 -5
    endloop
  endfacet
  facet normal 0 0 -1
    outer loop
      vertex -28.3187 -2.14805 -5
      vertex -28.2864 -1.84073 -5
      vertex -28.2864 -2.24746 -5
    endloop
  endfacet
  facet normal 0 0 -1
    outer loop
      vertex -28.3187 -2.14805 -5
      vertex -28.3187 -1.94014 -5
      vertex -28.2864 -1.84073 -5
    endloop
  endfacet
  facet normal 0 -0 -1
    outer loop
      vertex -28.3187 -1.94014 -5
      vertex -28.3187 -2.14805 -5
      vertex -28.3296 -2.0441 -5
    endloop
  endfacet
  facet normal 0 0 -1
    outer loop
      vertex -9.53674e-07 -5.31323 -5
      vertex 0 -4.29781 -5
      vertex 0 -5.31323 -5
    endloop
  endfacet
  facet normal 0 0 -1
    outer loop
      vertex -22.9777 -1.26165 -5
      vertex 0 -4.29781 -5
      vertex -9.53674e-07 -5.31323 -5
    endloop
  endfacet
  facet normal 0 0 -1
    outer loop
      vertex 0 -4.29781 -5
      vertex -22.9777 -1.26165 -5
      vertex -22.9132 -0.257596 -5
    endloop
  endfacet
  facet normal 0 0 -1
    outer loop
      vertex -22.9132 -0.257596 -5
      vertex -22.9777 -1.26165 -5
      vertex -22.9136 -0.259995 -5
    endloop
  endfacet
  facet normal 0 0 -1
    outer loop
      vertex -23.1289 -0.269023 -5
      vertex -22.9136 -0.259995 -5
      vertex -22.9777 -1.26165 -5
    endloop
  endfacet
  facet normal 0 -0 -1
    outer loop
      vertex -23.0523 -0.252739 -5
      vertex -22.9136 -0.259995 -5
      vertex -23.1289 -0.269023 -5
    endloop
  endfacet
  facet normal 0 0 -1
    outer loop
      vertex -22.9136 -0.259995 -5
      vertex -23.0523 -0.252739 -5
      vertex -22.9477 -0.252739 -5
    endloop
  endfacet
  facet normal 0 0 -1
    outer loop
      vertex -27.9585 -1.56312 -5
      vertex -23.1289 -0.269023 -5
      vertex -22.9777 -1.26165 -5
    endloop
  endfacet
  facet normal 0 0 -1
    outer loop
      vertex -27.7008 -2.52507 -5
      vertex -22.9777 -1.26165 -5
      vertex -27.7002 -2.52706 -5
    endloop
  endfacet
  facet normal 0 0 -1
    outer loop
      vertex -27.9585 -1.56312 -5
      vertex -22.9777 -1.26165 -5
      vertex -27.7008 -2.52507 -5
    endloop
  endfacet
  facet normal 0 0 -1
    outer loop
      vertex -27.8819 -2.54136 -5
      vertex -27.7008 -2.52507 -5
      vertex -27.7774 -2.54136 -5
    endloop
  endfacet
  facet normal 0 0 -1
    outer loop
      vertex -27.9841 -2.51962 -5
      vertex -27.7008 -2.52507 -5
      vertex -27.8819 -2.54136 -5
    endloop
  endfacet
  facet normal -0 0 -1
    outer loop
      vertex -23.1289 -0.269023 -5
      vertex -27.9585 -1.56312 -5
      vertex -23.1294 -0.267036 -5
    endloop
  endfacet
  facet normal 0 0 -1
    outer loop
      vertex -23.1294 -0.267036 -5
      vertex -27.9585 -1.56312 -5
      vertex -27.959 -1.56113 -5
    endloop
  endfacet
  facet normal 0 0 -1
    outer loop
      vertex 0 4.29781 -5
      vertex -9.53674e-07 5.31323 -5
      vertex 0 5.31323 -5
    endloop
  endfacet
  facet normal 0 0 -1
    outer loop
      vertex -22.9777 1.26165 -5
      vertex 0 4.29781 -5
      vertex -22.9132 0.257596 -5
    endloop
  endfacet
  facet normal 0 0 -1
    outer loop
      vertex -22.9777 1.26165 -5
      vertex -22.9132 0.257596 -5
      vertex -22.9136 0.259995 -5
    endloop
  endfacet
  facet normal 0 0 -1
    outer loop
      vertex -23.0523 0.252739 -5
      vertex -22.9136 0.259995 -5
      vertex -22.9477 0.252739 -5
    endloop
  endfacet
  facet normal -0 0 -1
    outer loop
      vertex 0 4.29781 -5
      vertex -22.9777 1.26165 -5
      vertex -9.53674e-07 5.31323 -5
    endloop
  endfacet
  facet normal -0 0 -1
    outer loop
      vertex -22.9136 0.259995 -5
      vertex -23.0523 0.252739 -5
      vertex -23.1289 0.269023 -5
    endloop
  endfacet
  facet normal 0 0 -1
    outer loop
      vertex -22.9136 0.259995 -5
      vertex -23.1289 0.269023 -5
      vertex -22.9777 1.26165 -5
    endloop
  endfacet
  facet normal 0 0 -1
    outer loop
      vertex -27.9585 1.56312 -5
      vertex -23.1289 0.269023 -5
      vertex -23.1294 0.267036 -5
    endloop
  endfacet
  facet normal 0 0 -1
    outer loop
      vertex -23.1289 0.269023 -5
      vertex -27.9585 1.56312 -5
      vertex -22.9777 1.26165 -5
    endloop
  endfacet
  facet normal 0 0 -1
    outer loop
      vertex -22.9777 1.26165 -5
      vertex -27.7008 2.52507 -5
      vertex -27.7002 2.52706 -5
    endloop
  endfacet
  facet normal 0 0 -1
    outer loop
      vertex -22.9777 1.26165 -5
      vertex -27.9585 1.56312 -5
      vertex -27.7008 2.52507 -5
    endloop
  endfacet
  facet normal 0 0 -1
    outer loop
      vertex -27.9841 2.51962 -5
      vertex -27.7008 2.52507 -5
      vertex -27.9585 1.56312 -5
    endloop
  endfacet
  facet normal 0 0 -1
    outer loop
      vertex -27.7008 2.52507 -5
      vertex -27.8819 2.54136 -5
      vertex -27.7774 2.54136 -5
    endloop
  endfacet
  facet normal 0 -0 -1
    outer loop
      vertex -27.9585 1.56312 -5
      vertex -23.1294 0.267036 -5
      vertex -27.959 1.56113 -5
    endloop
  endfacet
  facet normal 0 0 -1
    outer loop
      vertex -28.0796 1.61108 -5
      vertex -27.9585 1.56312 -5
      vertex -27.9841 1.56857 -5
    endloop
  endfacet
  facet normal -0 0 -1
    outer loop
      vertex -27.7008 2.52507 -5
      vertex -27.9841 2.51962 -5
      vertex -27.8819 2.54136 -5
    endloop
  endfacet
  facet normal 0 0 -1
    outer loop
      vertex -28.1642 1.67252 -5
      vertex -27.9585 1.56312 -5
      vertex -28.0796 1.61108 -5
    endloop
  endfacet
  facet normal 0 0 -1
    outer loop
      vertex -27.9585 1.56312 -5
      vertex -28.0796 2.47711 -5
      vertex -27.9841 2.51962 -5
    endloop
  endfacet
  facet normal 0 0 -1
    outer loop
      vertex -27.9585 1.56312 -5
      vertex -28.1642 1.67252 -5
      vertex -28.0796 2.47711 -5
    endloop
  endfacet
  facet normal 0 0 -1
    outer loop
      vertex -28.1642 1.67252 -5
      vertex -28.1642 2.41567 -5
      vertex -28.0796 2.47711 -5
    endloop
  endfacet
  facet normal 0 0 -1
    outer loop
      vertex -28.2341 1.7502 -5
      vertex -28.1642 2.41567 -5
      vertex -28.1642 1.67252 -5
    endloop
  endfacet
  facet normal 0 0 -1
    outer loop
      vertex -28.2341 1.7502 -5
      vertex -28.2341 2.33799 -5
      vertex -28.1642 2.41567 -5
    endloop
  endfacet
  facet normal 0 0 -1
    outer loop
      vertex -28.2864 1.84073 -5
      vertex -28.2341 2.33799 -5
      vertex -28.2341 1.7502 -5
    endloop
  endfacet
  facet normal 0 0 -1
    outer loop
      vertex -28.2864 1.84073 -5
      vertex -28.2864 2.24746 -5
      vertex -28.2341 2.33799 -5
    endloop
  endfacet
  facet normal 0 0 -1
    outer loop
      vertex -28.3187 1.94014 -5
      vertex -28.2864 2.24746 -5
      vertex -28.2864 1.84073 -5
    endloop
  endfacet
  facet normal 0 0 -1
    outer loop
      vertex -28.3187 1.94014 -5
      vertex -28.3187 2.14805 -5
      vertex -28.2864 2.24746 -5
    endloop
  endfacet
  facet normal 0 -0 -1
    outer loop
      vertex -28.3187 2.14805 -5
      vertex -28.3187 1.94014 -5
      vertex -28.3296 2.0441 -5
    endloop
  endfacet
  facet normal 0 0 -1
    outer loop
      vertex 13 -38.75 -5
      vertex 13.5 -39.7473 -5
      vertex 13.5 -39.75 -5
    endloop
  endfacet
  facet normal 0 0 -1
    outer loop
      vertex 13.5 -39.7473 -5
      vertex 13 -38.75 -5
      vertex 13.4477 -33.7527 -5
    endloop
  endfacet
  facet normal 0 0 -1
    outer loop
      vertex 13 -34.25 -5
      vertex 13.4477 -33.7527 -5
      vertex 13 -38.75 -5
    endloop
  endfacet
  facet normal 0 0 -1
    outer loop
      vertex 13.4477 -33.7527 -5
      vertex 13 -34.25 -5
      vertex 13.3455 -33.7745 -5
    endloop
  endfacet
  facet normal 0 0 -1
    outer loop
      vertex 13.3455 -33.7745 -5
      vertex 13 -34.25 -5
      vertex 13.25 -33.817 -5
    endloop
  endfacet
  facet normal 0 0 -1
    outer loop
      vertex 13.1654 -33.8784 -5
      vertex 13 -34.25 -5
      vertex 13.0955 -33.9561 -5
    endloop
  endfacet
  facet normal 0 0 -1
    outer loop
      vertex 13.0955 -33.9561 -5
      vertex 13 -34.25 -5
      vertex 13.0432 -34.0466 -5
    endloop
  endfacet
  facet normal 0 0 -1
    outer loop
      vertex 13.25 -33.817 -5
      vertex 13 -34.25 -5
      vertex 13.1654 -33.8784 -5
    endloop
  endfacet
  facet normal 0 0 -1
    outer loop
      vertex 13.5 -39.75 -5
      vertex 1 -38.75 -5
      vertex 13 -38.75 -5
    endloop
  endfacet
  facet normal 0 0 -1
    outer loop
      vertex 0.5 -39.7473 -5
      vertex 1 -38.75 -5
      vertex 0.5 -39.75 -5
    endloop
  endfacet
  facet normal 0 0 -1
    outer loop
      vertex 0.5 -39.75 -5
      vertex 1 -38.75 -5
      vertex 13.5 -39.75 -5
    endloop
  endfacet
  facet normal 0 0 -1
    outer loop
      vertex 13.5 -39.7473 -5
      vertex 14 -39.25 -5
      vertex 13.9891 -39.354 -5
    endloop
  endfacet
  facet normal 0 0 -1
    outer loop
      vertex 13.4477 -33.7527 -5
      vertex 14 -39.25 -5
      vertex 13.5 -39.7473 -5
    endloop
  endfacet
  facet normal 0 0 -1
    outer loop
      vertex 13.5 -39.7473 -5
      vertex 13.9891 -39.354 -5
      vertex 13.9568 -39.4534 -5
    endloop
  endfacet
  facet normal 0 0 -1
    outer loop
      vertex 14 -39.25 -5
      vertex 13.4477 -33.7527 -5
      vertex 14 -34.25 -5
    endloop
  endfacet
  facet normal 0 0 -1
    outer loop
      vertex 13.5 -39.7473 -5
      vertex 13.9568 -39.4534 -5
      vertex 13.9045 -39.5439 -5
    endloop
  endfacet
  facet normal 0 0 -1
    outer loop
      vertex 14 -34.25 -5
      vertex 13.4477 -33.7527 -5
      vertex 13.9891 -34.146 -5
    endloop
  endfacet
  facet normal 0 0 -1
    outer loop
      vertex 13.5 -39.7473 -5
      vertex 13.9045 -39.5439 -5
      vertex 13.8346 -39.6216 -5
    endloop
  endfacet
  facet normal 0 0 -1
    outer loop
      vertex 13.9891 -34.146 -5
      vertex 13.4477 -33.7527 -5
      vertex 13.9568 -34.0466 -5
    endloop
  endfacet
  facet normal 0 0 -1
    outer loop
      vertex 13.5 -39.7473 -5
      vertex 13.8346 -39.6216 -5
      vertex 13.75 -39.683 -5
    endloop
  endfacet
  facet normal 0 0 -1
    outer loop
      vertex 13.9568 -34.0466 -5
      vertex 13.4477 -33.7527 -5
      vertex 13.9045 -33.9561 -5
    endloop
  endfacet
  facet normal 0 0 -1
    outer loop
      vertex 13.5 -39.7473 -5
      vertex 13.75 -39.683 -5
      vertex 13.6545 -39.7255 -5
    endloop
  endfacet
  facet normal 0 0 -1
    outer loop
      vertex 13.9045 -33.9561 -5
      vertex 13.4477 -33.7527 -5
      vertex 13.8346 -33.8784 -5
    endloop
  endfacet
  facet normal 0 0 -1
    outer loop
      vertex 13.5 -39.7473 -5
      vertex 13.6545 -39.7255 -5
      vertex 13.5523 -39.7473 -5
    endloop
  endfacet
  facet normal 0 0 -1
    outer loop
      vertex 13.8346 -33.8784 -5
      vertex 13.4477 -33.7527 -5
      vertex 13.75 -33.817 -5
    endloop
  endfacet
  facet normal 0 0 -1
    outer loop
      vertex 13.75 -33.817 -5
      vertex 13.4477 -33.7527 -5
      vertex 13.6545 -33.7745 -5
    endloop
  endfacet
  facet normal 0 0 -1
    outer loop
      vertex 13.6545 -33.7745 -5
      vertex 13.4477 -33.7527 -5
      vertex 13.5523 -33.7527 -5
    endloop
  endfacet
  facet normal 0 0 -1
    outer loop
      vertex 13.0432 -34.0466 -5
      vertex 13 -34.25 -5
      vertex 13.0109 -34.146 -5
    endloop
  endfacet
  facet normal 0 0 -1
    outer loop
      vertex 13 34.25 -5
      vertex 14 34.25 -5
      vertex 13.9891 34.146 -5
    endloop
  endfacet
  facet normal 0 0 -1
    outer loop
      vertex 14 34.25 -5
      vertex 13 38.75 -5
      vertex 14 39.25 -5
    endloop
  endfacet
  facet normal 0 0 -1
    outer loop
      vertex 13 34.25 -5
      vertex 13.9891 34.146 -5
      vertex 13.9568 34.0466 -5
    endloop
  endfacet
  facet normal 0 -0 -1
    outer loop
      vertex 13.5 39.7473 -5
      vertex 14 39.25 -5
      vertex 13 38.75 -5
    endloop
  endfacet
  facet normal 0 0 -1
    outer loop
      vertex 13 34.25 -5
      vertex 13.9568 34.0466 -5
      vertex 13.9045 33.9561 -5
    endloop
  endfacet
  facet normal 0 0 -1
    outer loop
      vertex 14 39.25 -5
      vertex 13.5 39.7473 -5
      vertex 13.9891 39.354 -5
    endloop
  endfacet
  facet normal 0 0 -1
    outer loop
      vertex 13 34.25 -5
      vertex 13.9045 33.9561 -5
      vertex 13.8346 33.8784 -5
    endloop
  endfacet
  facet normal 0 0 -1
    outer loop
      vertex 13.9891 39.354 -5
      vertex 13.5 39.7473 -5
      vertex 13.9568 39.4534 -5
    endloop
  endfacet
  facet normal 0 0 -1
    outer loop
      vertex 13 34.25 -5
      vertex 13.8346 33.8784 -5
      vertex 13.75 33.817 -5
    endloop
  endfacet
  facet normal 0 0 -1
    outer loop
      vertex 13.9568 39.4534 -5
      vertex 13.5 39.7473 -5
      vertex 13.9045 39.5439 -5
    endloop
  endfacet
  facet normal 0 0 -1
    outer loop
      vertex 13 34.25 -5
      vertex 13.75 33.817 -5
      vertex 13.6545 33.7745 -5
    endloop
  endfacet
  facet normal 0 0 -1
    outer loop
      vertex 13.9045 39.5439 -5
      vertex 13.5 39.7473 -5
      vertex 13.8346 39.6216 -5
    endloop
  endfacet
  facet normal 0 0 -1
    outer loop
      vertex 13 34.25 -5
      vertex 13.6545 33.7745 -5
      vertex 13.5523 33.7527 -5
    endloop
  endfacet
  facet normal 0 0 -1
    outer loop
      vertex 13.8346 39.6216 -5
      vertex 13.5 39.7473 -5
      vertex 13.75 39.683 -5
    endloop
  endfacet
  facet normal 0 0 -1
    outer loop
      vertex 13.75 39.683 -5
      vertex 13.5 39.7473 -5
      vertex 13.6545 39.7255 -5
    endloop
  endfacet
  facet normal 0 0 -1
    outer loop
      vertex 13 34.25 -5
      vertex 13.5523 33.7527 -5
      vertex 13.4477 33.7527 -5
    endloop
  endfacet
  facet normal 0 0 -1
    outer loop
      vertex 13.6545 39.7255 -5
      vertex 13.5 39.7473 -5
      vertex 13.5523 39.7473 -5
    endloop
  endfacet
  facet normal 0 0 -1
    outer loop
      vertex 13 34.25 -5
      vertex 13.4477 33.7527 -5
      vertex 13.3455 33.7745 -5
    endloop
  endfacet
  facet normal 0 0 -1
    outer loop
      vertex 13 34.25 -5
      vertex 13.3455 33.7745 -5
      vertex 13.25 33.817 -5
    endloop
  endfacet
  facet normal 0 0 -1
    outer loop
      vertex 13 34.25 -5
      vertex 13.25 33.817 -5
      vertex 13.1654 33.8784 -5
    endloop
  endfacet
  facet normal 0 0 -1
    outer loop
      vertex 13 34.25 -5
      vertex 13.1654 33.8784 -5
      vertex 13.0955 33.9561 -5
    endloop
  endfacet
  facet normal 0 0 -1
    outer loop
      vertex 13 34.25 -5
      vertex 13.0955 33.9561 -5
      vertex 13.0432 34.0466 -5
    endloop
  endfacet
  facet normal 0 0 -1
    outer loop
      vertex 13 34.25 -5
      vertex 13.0432 34.0466 -5
      vertex 13.0109 34.146 -5
    endloop
  endfacet
  facet normal 0 0 -1
    outer loop
      vertex 14 34.25 -5
      vertex 13 34.25 -5
      vertex 13 38.75 -5
    endloop
  endfacet
  facet normal -0 0 -1
    outer loop
      vertex 13.5 39.7473 -5
      vertex 13 38.75 -5
      vertex 13.5 39.75 -5
    endloop
  endfacet
  facet normal 0 0 -1
    outer loop
      vertex 1 38.75 -5
      vertex 13.5 39.75 -5
      vertex 13 38.75 -5
    endloop
  endfacet
  facet normal 0 0 -1
    outer loop
      vertex 0 -39.25 -5
      vertex 1 -38.75 -5
      vertex 0.5 -39.7473 -5
    endloop
  endfacet
  facet normal 0 0 -1
    outer loop
      vertex 1 -38.75 -5
      vertex 0 -5.31323 -5
      vertex 1 38.75 -5
    endloop
  endfacet
  facet normal 0 0 -1
    outer loop
      vertex 0.5 39.75 -5
      vertex 1 38.75 -5
      vertex 0.5 39.7473 -5
    endloop
  endfacet
  facet normal 0 0 -1
    outer loop
      vertex 1 38.75 -5
      vertex 0.5 39.75 -5
      vertex 13.5 39.75 -5
    endloop
  endfacet
  facet normal 0 0 -1
    outer loop
      vertex 0.345491 -39.7255 -5
      vertex 0.5 -39.7473 -5
      vertex 0.447735 -39.7473 -5
    endloop
  endfacet
  facet normal 0 0 -1
    outer loop
      vertex 0 -4.29781 -5
      vertex 1 38.75 -5
      vertex 0 -5.31323 -5
    endloop
  endfacet
  facet normal 0 0 -1
    outer loop
      vertex 0.249999 -39.683 -5
      vertex 0.5 -39.7473 -5
      vertex 0.345491 -39.7255 -5
    endloop
  endfacet
  facet normal 0 0 -1
    outer loop
      vertex 0 4.29781 -5
      vertex 1 38.75 -5
      vertex 0 -4.29781 -5
    endloop
  endfacet
  facet normal 0 0 -1
    outer loop
      vertex 0 5.31323 -5
      vertex 1 38.75 -5
      vertex 0 4.29781 -5
    endloop
  endfacet
  facet normal 0 0 -1
    outer loop
      vertex 0.5 -39.7473 -5
      vertex 0.249999 -39.683 -5
      vertex 0 -39.25 -5
    endloop
  endfacet
  facet normal 0 0 -1
    outer loop
      vertex 0 -39.25 -5
      vertex 0.249999 -39.683 -5
      vertex 0.165434 -39.6216 -5
    endloop
  endfacet
  facet normal 0 0 -1
    outer loop
      vertex 0 39.25 -5
      vertex 1 38.75 -5
      vertex 0 5.31323 -5
    endloop
  endfacet
  facet normal 0 0 -1
    outer loop
      vertex 0 -39.25 -5
      vertex 0.165434 -39.6216 -5
      vertex 0.0954914 -39.5439 -5
    endloop
  endfacet
  facet normal 0 0 -1
    outer loop
      vertex 1 38.75 -5
      vertex 0 39.25 -5
      vertex 0.5 39.7473 -5
    endloop
  endfacet
  facet normal 0 0 -1
    outer loop
      vertex 0 -39.25 -5
      vertex 0.0954914 -39.5439 -5
      vertex 0.0432272 -39.4534 -5
    endloop
  endfacet
  facet normal 0 -0 -1
    outer loop
      vertex 0.25 39.683 -5
      vertex 0.5 39.7473 -5
      vertex 0 39.25 -5
    endloop
  endfacet
  facet normal 0 0 -1
    outer loop
      vertex 0 -39.25 -5
      vertex 0.0432272 -39.4534 -5
      vertex 0.0109253 -39.354 -5
    endloop
  endfacet
  facet normal -0 0 -1
    outer loop
      vertex 0.5 39.7473 -5
      vertex 0.345491 39.7255 -5
      vertex 0.447735 39.7473 -5
    endloop
  endfacet
  facet normal -0 0 -1
    outer loop
      vertex 1 -38.75 -5
      vertex 0 -39.25 -5
      vertex 0 -5.31323 -5
    endloop
  endfacet
  facet normal 0 0 -1
    outer loop
      vertex 0.5 39.7473 -5
      vertex 0.25 39.683 -5
      vertex 0.345491 39.7255 -5
    endloop
  endfacet
  facet normal 0 0 -1
    outer loop
      vertex 0.25 39.683 -5
      vertex 0 39.25 -5
      vertex 0.165434 39.6216 -5
    endloop
  endfacet
  facet normal 0 0 -1
    outer loop
      vertex 0.165434 39.6216 -5
      vertex 0 39.25 -5
      vertex 0.0954914 39.5439 -5
    endloop
  endfacet
  facet normal 0 0 -1
    outer loop
      vertex 0.0954914 39.5439 -5
      vertex 0 39.25 -5
      vertex 0.0432272 39.4534 -5
    endloop
  endfacet
  facet normal 0 0 -1
    outer loop
      vertex 0.0432272 39.4534 -5
      vertex 0 39.25 -5
      vertex 0.0109253 39.354 -5
    endloop
  endfacet
  facet normal -0.587801 0.809006 0
    outer loop
      vertex 0.25 39.683 -5
      vertex 0.165434 39.6216 5
      vertex 0.25 39.683 5
    endloop
  endfacet
  facet normal -0.587801 0.809006 0
    outer loop
      vertex 0.165434 39.6216 5
      vertex 0.25 39.683 -5
      vertex 0.165434 39.6216 -5
    endloop
  endfacet
  facet normal -0.20791 0.978148 0
    outer loop
      vertex 0.447735 39.7473 -5
      vertex 0.345491 39.7255 5
      vertex 0.447735 39.7473 5
    endloop
  endfacet
  facet normal -0.20791 0.978148 0
    outer loop
      vertex 0.345491 39.7255 5
      vertex 0.447735 39.7473 -5
      vertex 0.345491 39.7255 -5
    endloop
  endfacet
  facet normal -0.951056 0.309018 0
    outer loop
      vertex 0.0109253 39.354 -5
      vertex 0.0432272 39.4534 5
      vertex 0.0432272 39.4534 -5
    endloop
  endfacet
  facet normal -0.951056 0.309018 0
    outer loop
      vertex 0.0432272 39.4534 5
      vertex 0.0109253 39.354 -5
      vertex 0.0109253 39.354 5
    endloop
  endfacet
  facet normal -0.743144 0.669132 0
    outer loop
      vertex 0.0954914 39.5439 -5
      vertex 0.165434 39.6216 5
      vertex 0.165434 39.6216 -5
    endloop
  endfacet
  facet normal -0.743144 0.669132 0
    outer loop
      vertex 0.165434 39.6216 5
      vertex 0.0954914 39.5439 -5
      vertex 0.0954914 39.5439 5
    endloop
  endfacet
  facet normal -0.406731 0.913548 0
    outer loop
      vertex 0.345491 39.7255 -5
      vertex 0.25 39.683 5
      vertex 0.345491 39.7255 5
    endloop
  endfacet
  facet normal -0.406731 0.913548 0
    outer loop
      vertex 0.25 39.683 5
      vertex 0.345491 39.7255 -5
      vertex 0.25 39.683 -5
    endloop
  endfacet
  facet normal -0.866022 0.500006 0
    outer loop
      vertex 0.0432272 39.4534 -5
      vertex 0.0954914 39.5439 5
      vertex 0.0954914 39.5439 -5
    endloop
  endfacet
  facet normal -0.866022 0.500006 0
    outer loop
      vertex 0.0954914 39.5439 5
      vertex 0.0432272 39.4534 -5
      vertex 0.0432272 39.4534 5
    endloop
  endfacet
  facet normal 0 1 -0
    outer loop
      vertex 0.5 39.7473 -5
      vertex 0.447735 39.7473 5
      vertex 0.5 39.7473 5
    endloop
  endfacet
  facet normal 0 1 0
    outer loop
      vertex 0.447735 39.7473 5
      vertex 0.5 39.7473 -5
      vertex 0.447735 39.7473 -5
    endloop
  endfacet
  facet normal -0.994523 0.104521 0
    outer loop
      vertex 0 39.25 -5
      vertex 0.0109253 39.354 5
      vertex 0.0109253 39.354 -5
    endloop
  endfacet
  facet normal -0.994523 0.104521 0
    outer loop
      vertex 0.0109253 39.354 5
      vertex 0 39.25 -5
      vertex 0 39.25 5
    endloop
  endfacet
  facet normal -0.994523 -0.104521 0
    outer loop
      vertex 0.0109253 -39.354 -5
      vertex 0 -39.25 5
      vertex 0 -39.25 -5
    endloop
  endfacet
  facet normal -0.994523 -0.104521 0
    outer loop
      vertex 0 -39.25 5
      vertex 0.0109253 -39.354 -5
      vertex 0.0109253 -39.354 5
    endloop
  endfacet
  facet normal 0 -1 0
    outer loop
      vertex 0.447735 -39.7473 -5
      vertex 0.5 -39.7473 5
      vertex 0.447735 -39.7473 5
    endloop
  endfacet
  facet normal 0 -1 -0
    outer loop
      vertex 0.5 -39.7473 5
      vertex 0.447735 -39.7473 -5
      vertex 0.5 -39.7473 -5
    endloop
  endfacet
  facet normal -0.951056 -0.309018 0
    outer loop
      vertex 0.0432272 -39.4534 -5
      vertex 0.0109253 -39.354 5
      vertex 0.0109253 -39.354 -5
    endloop
  endfacet
  facet normal -0.951056 -0.309018 0
    outer loop
      vertex 0.0109253 -39.354 5
      vertex 0.0432272 -39.4534 -5
      vertex 0.0432272 -39.4534 5
    endloop
  endfacet
  facet normal -0.743144 -0.669132 0
    outer loop
      vertex 0.165434 -39.6216 -5
      vertex 0.0954914 -39.5439 5
      vertex 0.0954914 -39.5439 -5
    endloop
  endfacet
  facet normal -0.743144 -0.669132 0
    outer loop
      vertex 0.0954914 -39.5439 5
      vertex 0.165434 -39.6216 -5
      vertex 0.165434 -39.6216 5
    endloop
  endfacet
  facet normal -0.406728 -0.91355 0
    outer loop
      vertex 0.249999 -39.683 -5
      vertex 0.345491 -39.7255 5
      vertex 0.249999 -39.683 5
    endloop
  endfacet
  facet normal -0.406728 -0.91355 -0
    outer loop
      vertex 0.345491 -39.7255 5
      vertex 0.249999 -39.683 -5
      vertex 0.345491 -39.7255 -5
    endloop
  endfacet
  facet normal -0.866022 -0.500006 0
    outer loop
      vertex 0.0954914 -39.5439 -5
      vertex 0.0432272 -39.4534 5
      vertex 0.0432272 -39.4534 -5
    endloop
  endfacet
  facet normal -0.866022 -0.500006 0
    outer loop
      vertex 0.0432272 -39.4534 5
      vertex 0.0954914 -39.5439 -5
      vertex 0.0954914 -39.5439 5
    endloop
  endfacet
  facet normal -0.587805 -0.809003 0
    outer loop
      vertex 0.165434 -39.6216 -5
      vertex 0.249999 -39.683 5
      vertex 0.165434 -39.6216 5
    endloop
  endfacet
  facet normal -0.587805 -0.809003 -0
    outer loop
      vertex 0.249999 -39.683 5
      vertex 0.165434 -39.6216 -5
      vertex 0.249999 -39.683 -5
    endloop
  endfacet
  facet normal -0.20791 -0.978148 0
    outer loop
      vertex 0.345491 -39.7255 -5
      vertex 0.447735 -39.7473 5
      vertex 0.345491 -39.7255 5
    endloop
  endfacet
  facet normal -0.20791 -0.978148 -0
    outer loop
      vertex 0.447735 -39.7473 5
      vertex 0.345491 -39.7255 -5
      vertex 0.447735 -39.7473 -5
    endloop
  endfacet
  facet normal -1 0 0
    outer loop
      vertex 0.5 39.7473 -5
      vertex 0.5 39.75 5
      vertex 0.5 39.75 -5
    endloop
  endfacet
  facet normal -1 -0 0
    outer loop
      vertex 0.5 39.75 5
      vertex 0.5 39.7473 -5
      vertex 0.5 39.7473 5
    endloop
  endfacet
  facet normal 1 -0 0
    outer loop
      vertex 13.5 39.7473 5
      vertex 13.5 39.75 -5
      vertex 13.5 39.75 5
    endloop
  endfacet
  facet normal 1 0 0
    outer loop
      vertex 13.5 39.75 -5
      vertex 13.5 39.7473 5
      vertex 13.5 39.7473 -5
    endloop
  endfacet
  facet normal 0 -1 0
    outer loop
      vertex 1 38.75 -5
      vertex 13 38.75 5
      vertex 1 38.75 5
    endloop
  endfacet
  facet normal 0 -1 -0
    outer loop
      vertex 13 38.75 5
      vertex 1 38.75 -5
      vertex 13 38.75 -5
    endloop
  endfacet
  facet normal 0 1 -0
    outer loop
      vertex 13.5 39.75 -5
      vertex 0.5 39.75 5
      vertex 13.5 39.75 5
    endloop
  endfacet
  facet normal 0 1 0
    outer loop
      vertex 0.5 39.75 5
      vertex 13.5 39.75 -5
      vertex 0.5 39.75 -5
    endloop
  endfacet
  facet normal -1 0 0
    outer loop
      vertex 0.5 -39.75 -5
      vertex 0.5 -39.7473 5
      vertex 0.5 -39.7473 -5
    endloop
  endfacet
  facet normal -1 -0 0
    outer loop
      vertex 0.5 -39.7473 5
      vertex 0.5 -39.75 -5
      vertex 0.5 -39.75 5
    endloop
  endfacet
  facet normal 1 -0 0
    outer loop
      vertex 13.5 -39.75 5
      vertex 13.5 -39.7473 -5
      vertex 13.5 -39.7473 5
    endloop
  endfacet
  facet normal 1 0 0
    outer loop
      vertex 13.5 -39.7473 -5
      vertex 13.5 -39.75 5
      vertex 13.5 -39.75 -5
    endloop
  endfacet
  facet normal 0 1 -0
    outer loop
      vertex 13 -38.75 -5
      vertex 1 -38.75 5
      vertex 13 -38.75 5
    endloop
  endfacet
  facet normal 0 1 0
    outer loop
      vertex 1 -38.75 5
      vertex 13 -38.75 -5
      vertex 1 -38.75 -5
    endloop
  endfacet
  facet normal 0 -1 0
    outer loop
      vertex 0.5 -39.75 -5
      vertex 13.5 -39.75 5
      vertex 0.5 -39.75 5
    endloop
  endfacet
  facet normal 0 -1 -0
    outer loop
      vertex 13.5 -39.75 5
      vertex 0.5 -39.75 -5
      vertex 13.5 -39.75 -5
    endloop
  endfacet
  facet normal 0.994522 0.10453 0
    outer loop
      vertex 14 39.25 5
      vertex 13.9891 39.354 -5
      vertex 13.9891 39.354 5
    endloop
  endfacet
  facet normal 0.994522 0.10453 0
    outer loop
      vertex 13.9891 39.354 -5
      vertex 14 39.25 5
      vertex 14 39.25 -5
    endloop
  endfacet
  facet normal 0.587805 0.809003 -0
    outer loop
      vertex 13.8346 39.6216 -5
      vertex 13.75 39.683 5
      vertex 13.8346 39.6216 5
    endloop
  endfacet
  facet normal 0.587805 0.809003 0
    outer loop
      vertex 13.75 39.683 5
      vertex 13.8346 39.6216 -5
      vertex 13.75 39.683 -5
    endloop
  endfacet
  facet normal 0.866022 0.500006 0
    outer loop
      vertex 13.9568 39.4534 5
      vertex 13.9045 39.5439 -5
      vertex 13.9045 39.5439 5
    endloop
  endfacet
  facet normal 0.866022 0.500006 0
    outer loop
      vertex 13.9045 39.5439 -5
      vertex 13.9568 39.4534 5
      vertex 13.9568 39.4534 -5
    endloop
  endfacet
  facet normal 0.951056 0.309018 0
    outer loop
      vertex 13.9891 39.354 5
      vertex 13.9568 39.4534 -5
      vertex 13.9568 39.4534 5
    endloop
  endfacet
  facet normal 0.951056 0.309018 0
    outer loop
      vertex 13.9568 39.4534 -5
      vertex 13.9891 39.354 5
      vertex 13.9891 39.354 -5
    endloop
  endfacet
  facet normal 0.743144 0.669132 0
    outer loop
      vertex 13.9045 39.5439 5
      vertex 13.8346 39.6216 -5
      vertex 13.8346 39.6216 5
    endloop
  endfacet
  facet normal 0.743144 0.669132 0
    outer loop
      vertex 13.8346 39.6216 -5
      vertex 13.9045 39.5439 5
      vertex 13.9045 39.5439 -5
    endloop
  endfacet
  facet normal 0.20791 0.978148 -0
    outer loop
      vertex 13.6545 39.7255 -5
      vertex 13.5523 39.7473 5
      vertex 13.6545 39.7255 5
    endloop
  endfacet
  facet normal 0.20791 0.978148 0
    outer loop
      vertex 13.5523 39.7473 5
      vertex 13.6545 39.7255 -5
      vertex 13.5523 39.7473 -5
    endloop
  endfacet
  facet normal 0 1 -0
    outer loop
      vertex 13.5523 39.7473 -5
      vertex 13.5 39.7473 5
      vertex 13.5523 39.7473 5
    endloop
  endfacet
  facet normal 0 1 0
    outer loop
      vertex 13.5 39.7473 5
      vertex 13.5523 39.7473 -5
      vertex 13.5 39.7473 -5
    endloop
  endfacet
  facet normal 0.406728 0.91355 -0
    outer loop
      vertex 13.75 39.683 -5
      vertex 13.6545 39.7255 5
      vertex 13.75 39.683 5
    endloop
  endfacet
  facet normal 0.406728 0.91355 0
    outer loop
      vertex 13.6545 39.7255 5
      vertex 13.75 39.683 -5
      vertex 13.6545 39.7255 -5
    endloop
  endfacet
  facet normal 0.994522 -0.10453 0
    outer loop
      vertex 13.9891 -39.354 5
      vertex 14 -39.25 -5
      vertex 14 -39.25 5
    endloop
  endfacet
  facet normal 0.994522 -0.10453 0
    outer loop
      vertex 14 -39.25 -5
      vertex 13.9891 -39.354 5
      vertex 13.9891 -39.354 -5
    endloop
  endfacet
  facet normal 0.743144 -0.669132 0
    outer loop
      vertex 13.8346 -39.6216 5
      vertex 13.9045 -39.5439 -5
      vertex 13.9045 -39.5439 5
    endloop
  endfacet
  facet normal 0.743144 -0.669132 0
    outer loop
      vertex 13.9045 -39.5439 -5
      vertex 13.8346 -39.6216 5
      vertex 13.8346 -39.6216 -5
    endloop
  endfacet
  facet normal 0 -1 0
    outer loop
      vertex 13.5 -39.7473 -5
      vertex 13.5523 -39.7473 5
      vertex 13.5 -39.7473 5
    endloop
  endfacet
  facet normal 0 -1 -0
    outer loop
      vertex 13.5523 -39.7473 5
      vertex 13.5 -39.7473 -5
      vertex 13.5523 -39.7473 -5
    endloop
  endfacet
  facet normal 0.951056 -0.309018 0
    outer loop
      vertex 13.9568 -39.4534 5
      vertex 13.9891 -39.354 -5
      vertex 13.9891 -39.354 5
    endloop
  endfacet
  facet normal 0.951056 -0.309018 0
    outer loop
      vertex 13.9891 -39.354 -5
      vertex 13.9568 -39.4534 5
      vertex 13.9568 -39.4534 -5
    endloop
  endfacet
  facet normal 0.406728 -0.91355 0
    outer loop
      vertex 13.6545 -39.7255 -5
      vertex 13.75 -39.683 5
      vertex 13.6545 -39.7255 5
    endloop
  endfacet
  facet normal 0.406728 -0.91355 0
    outer loop
      vertex 13.75 -39.683 5
      vertex 13.6545 -39.7255 -5
      vertex 13.75 -39.683 -5
    endloop
  endfacet
  facet normal 0.587805 -0.809003 0
    outer loop
      vertex 13.75 -39.683 -5
      vertex 13.8346 -39.6216 5
      vertex 13.75 -39.683 5
    endloop
  endfacet
  facet normal 0.587805 -0.809003 0
    outer loop
      vertex 13.8346 -39.6216 5
      vertex 13.75 -39.683 -5
      vertex 13.8346 -39.6216 -5
    endloop
  endfacet
  facet normal 0.20791 -0.978148 0
    outer loop
      vertex 13.5523 -39.7473 -5
      vertex 13.6545 -39.7255 5
      vertex 13.5523 -39.7473 5
    endloop
  endfacet
  facet normal 0.20791 -0.978148 0
    outer loop
      vertex 13.6545 -39.7255 5
      vertex 13.5523 -39.7473 -5
      vertex 13.6545 -39.7255 -5
    endloop
  endfacet
  facet normal 0.866022 -0.500006 0
    outer loop
      vertex 13.9045 -39.5439 5
      vertex 13.9568 -39.4534 -5
      vertex 13.9568 -39.4534 5
    endloop
  endfacet
  facet normal 0.866022 -0.500006 0
    outer loop
      vertex 13.9568 -39.4534 -5
      vertex 13.9045 -39.5439 5
      vertex 13.9045 -39.5439 -5
    endloop
  endfacet
  facet normal -1 0 0
    outer loop
      vertex 13 34.25 -5
      vertex 13 38.75 5
      vertex 13 38.75 -5
    endloop
  endfacet
  facet normal -1 -0 0
    outer loop
      vertex 13 38.75 5
      vertex 13 34.25 -5
      vertex 13 34.25 5
    endloop
  endfacet
  facet normal 1 -0 0
    outer loop
      vertex 14 34.25 5
      vertex 14 39.25 -5
      vertex 14 39.25 5
    endloop
  endfacet
  facet normal 1 0 0
    outer loop
      vertex 14 39.25 -5
      vertex 14 34.25 5
      vertex 14 34.25 -5
    endloop
  endfacet
  facet normal -1 0 0
    outer loop
      vertex 13 -38.75 -5
      vertex 13 -34.25 5
      vertex 13 -34.25 -5
    endloop
  endfacet
  facet normal -1 -0 0
    outer loop
      vertex 13 -34.25 5
      vertex 13 -38.75 -5
      vertex 13 -38.75 5
    endloop
  endfacet
  facet normal 1 -0 0
    outer loop
      vertex 14 -39.25 5
      vertex 14 -34.25 -5
      vertex 14 -34.25 5
    endloop
  endfacet
  facet normal 1 0 0
    outer loop
      vertex 14 -34.25 -5
      vertex 14 -39.25 5
      vertex 14 -39.25 -5
    endloop
  endfacet
  facet normal 0.994522 -0.104527 0
    outer loop
      vertex 13.9891 34.146 5
      vertex 14 34.25 -5
      vertex 14 34.25 5
    endloop
  endfacet
  facet normal 0.994522 -0.104527 0
    outer loop
      vertex 14 34.25 -5
      vertex 13.9891 34.146 5
      vertex 13.9891 34.146 -5
    endloop
  endfacet
  facet normal -0.994523 -0.104518 0
    outer loop
      vertex 13.0109 34.146 -5
      vertex 13 34.25 5
      vertex 13 34.25 -5
    endloop
  endfacet
  facet normal -0.994523 -0.104518 0
    outer loop
      vertex 13 34.25 5
      vertex 13.0109 34.146 -5
      vertex 13.0109 34.146 5
    endloop
  endfacet
  facet normal -0.951053 -0.309028 0
    outer loop
      vertex 13.0432 34.0466 -5
      vertex 13.0109 34.146 5
      vertex 13.0109 34.146 -5
    endloop
  endfacet
  facet normal -0.951053 -0.309028 0
    outer loop
      vertex 13.0109 34.146 5
      vertex 13.0432 34.0466 -5
      vertex 13.0432 34.0466 5
    endloop
  endfacet
  facet normal 0.74316 -0.669114 0
    outer loop
      vertex 13.8346 33.8784 5
      vertex 13.9045 33.9561 -5
      vertex 13.9045 33.9561 5
    endloop
  endfacet
  facet normal 0.74316 -0.669114 0
    outer loop
      vertex 13.9045 33.9561 -5
      vertex 13.8346 33.8784 5
      vertex 13.8346 33.8784 -5
    endloop
  endfacet
  facet normal 0.951053 -0.309028 0
    outer loop
      vertex 13.9568 34.0466 5
      vertex 13.9891 34.146 -5
      vertex 13.9891 34.146 5
    endloop
  endfacet
  facet normal 0.951053 -0.309028 0
    outer loop
      vertex 13.9891 34.146 -5
      vertex 13.9568 34.0466 5
      vertex 13.9568 34.0466 -5
    endloop
  endfacet
  facet normal 0.20791 -0.978148 0
    outer loop
      vertex 13.5523 33.7527 -5
      vertex 13.6545 33.7745 5
      vertex 13.5523 33.7527 5
    endloop
  endfacet
  facet normal 0.20791 -0.978148 0
    outer loop
      vertex 13.6545 33.7745 5
      vertex 13.5523 33.7527 -5
      vertex 13.6545 33.7745 -5
    endloop
  endfacet
  facet normal 0.406728 -0.91355 0
    outer loop
      vertex 13.6545 33.7745 -5
      vertex 13.75 33.817 5
      vertex 13.6545 33.7745 5
    endloop
  endfacet
  facet normal 0.406728 -0.91355 0
    outer loop
      vertex 13.75 33.817 5
      vertex 13.6545 33.7745 -5
      vertex 13.75 33.817 -5
    endloop
  endfacet
  facet normal 0.587781 -0.80902 0
    outer loop
      vertex 13.75 33.817 -5
      vertex 13.8346 33.8784 5
      vertex 13.75 33.817 5
    endloop
  endfacet
  facet normal 0.587781 -0.80902 0
    outer loop
      vertex 13.8346 33.8784 5
      vertex 13.75 33.817 -5
      vertex 13.8346 33.8784 -5
    endloop
  endfacet
  facet normal -0.74316 -0.669114 0
    outer loop
      vertex 13.1654 33.8784 -5
      vertex 13.0955 33.9561 5
      vertex 13.0955 33.9561 -5
    endloop
  endfacet
  facet normal -0.74316 -0.669114 0
    outer loop
      vertex 13.0955 33.9561 5
      vertex 13.1654 33.8784 -5
      vertex 13.1654 33.8784 5
    endloop
  endfacet
  facet normal -0.866022 -0.500006 0
    outer loop
      vertex 13.0955 33.9561 -5
      vertex 13.0432 34.0466 5
      vertex 13.0432 34.0466 -5
    endloop
  endfacet
  facet normal -0.866022 -0.500006 0
    outer loop
      vertex 13.0432 34.0466 5
      vertex 13.0955 33.9561 -5
      vertex 13.0955 33.9561 5
    endloop
  endfacet
  facet normal -0.587777 -0.809023 0
    outer loop
      vertex 13.1654 33.8784 -5
      vertex 13.25 33.817 5
      vertex 13.1654 33.8784 5
    endloop
  endfacet
  facet normal -0.587777 -0.809023 -0
    outer loop
      vertex 13.25 33.817 5
      vertex 13.1654 33.8784 -5
      vertex 13.25 33.817 -5
    endloop
  endfacet
  facet normal 0.866022 -0.500006 0
    outer loop
      vertex 13.9045 33.9561 5
      vertex 13.9568 34.0466 -5
      vertex 13.9568 34.0466 5
    endloop
  endfacet
  facet normal 0.866022 -0.500006 0
    outer loop
      vertex 13.9568 34.0466 -5
      vertex 13.9045 33.9561 5
      vertex 13.9045 33.9561 -5
    endloop
  endfacet
  facet normal -0.406731 -0.913548 0
    outer loop
      vertex 13.25 33.817 -5
      vertex 13.3455 33.7745 5
      vertex 13.25 33.817 5
    endloop
  endfacet
  facet normal -0.406731 -0.913548 -0
    outer loop
      vertex 13.3455 33.7745 5
      vertex 13.25 33.817 -5
      vertex 13.3455 33.7745 -5
    endloop
  endfacet
  facet normal -0.20791 -0.978148 0
    outer loop
      vertex 13.3455 33.7745 -5
      vertex 13.4477 33.7527 5
      vertex 13.3455 33.7745 5
    endloop
  endfacet
  facet normal -0.20791 -0.978148 -0
    outer loop
      vertex 13.4477 33.7527 5
      vertex 13.3455 33.7745 -5
      vertex 13.4477 33.7527 -5
    endloop
  endfacet
  facet normal 0 -1 0
    outer loop
      vertex 13.4477 33.7527 -5
      vertex 13.5523 33.7527 5
      vertex 13.4477 33.7527 5
    endloop
  endfacet
  facet normal 0 -1 -0
    outer loop
      vertex 13.5523 33.7527 5
      vertex 13.4477 33.7527 -5
      vertex 13.5523 33.7527 -5
    endloop
  endfacet
  facet normal 0.994522 0.104527 0
    outer loop
      vertex 14 -34.25 5
      vertex 13.9891 -34.146 -5
      vertex 13.9891 -34.146 5
    endloop
  endfacet
  facet normal 0.994522 0.104527 0
    outer loop
      vertex 13.9891 -34.146 -5
      vertex 14 -34.25 5
      vertex 14 -34.25 -5
    endloop
  endfacet
  facet normal -0.20791 0.978148 0
    outer loop
      vertex 13.4477 -33.7527 -5
      vertex 13.3455 -33.7745 5
      vertex 13.4477 -33.7527 5
    endloop
  endfacet
  facet normal -0.20791 0.978148 0
    outer loop
      vertex 13.3455 -33.7745 5
      vertex 13.4477 -33.7527 -5
      vertex 13.3455 -33.7745 -5
    endloop
  endfacet
  facet normal 0.587781 0.80902 -0
    outer loop
      vertex 13.8346 -33.8784 -5
      vertex 13.75 -33.817 5
      vertex 13.8346 -33.8784 5
    endloop
  endfacet
  facet normal 0.587781 0.80902 0
    outer loop
      vertex 13.75 -33.817 5
      vertex 13.8346 -33.8784 -5
      vertex 13.75 -33.817 -5
    endloop
  endfacet
  facet normal -0.866022 0.500006 0
    outer loop
      vertex 13.0432 -34.0466 -5
      vertex 13.0955 -33.9561 5
      vertex 13.0955 -33.9561 -5
    endloop
  endfacet
  facet normal -0.866022 0.500006 0
    outer loop
      vertex 13.0955 -33.9561 5
      vertex 13.0432 -34.0466 -5
      vertex 13.0432 -34.0466 5
    endloop
  endfacet
  facet normal -0.951053 0.309028 0
    outer loop
      vertex 13.0109 -34.146 -5
      vertex 13.0432 -34.0466 5
      vertex 13.0432 -34.0466 -5
    endloop
  endfacet
  facet normal -0.951053 0.309028 0
    outer loop
      vertex 13.0432 -34.0466 5
      vertex 13.0109 -34.146 -5
      vertex 13.0109 -34.146 5
    endloop
  endfacet
  facet normal -0.587777 0.809023 0
    outer loop
      vertex 13.25 -33.817 -5
      vertex 13.1654 -33.8784 5
      vertex 13.25 -33.817 5
    endloop
  endfacet
  facet normal -0.587777 0.809023 0
    outer loop
      vertex 13.1654 -33.8784 5
      vertex 13.25 -33.817 -5
      vertex 13.1654 -33.8784 -5
    endloop
  endfacet
  facet normal 0.866022 0.500006 0
    outer loop
      vertex 13.9568 -34.0466 5
      vertex 13.9045 -33.9561 -5
      vertex 13.9045 -33.9561 5
    endloop
  endfacet
  facet normal 0.866022 0.500006 0
    outer loop
      vertex 13.9045 -33.9561 -5
      vertex 13.9568 -34.0466 5
      vertex 13.9568 -34.0466 -5
    endloop
  endfacet
  facet normal 0.951053 0.309028 0
    outer loop
      vertex 13.9891 -34.146 5
      vertex 13.9568 -34.0466 -5
      vertex 13.9568 -34.0466 5
    endloop
  endfacet
  facet normal 0.951053 0.309028 0
    outer loop
      vertex 13.9568 -34.0466 -5
      vertex 13.9891 -34.146 5
      vertex 13.9891 -34.146 -5
    endloop
  endfacet
  facet normal 0.74316 0.669114 0
    outer loop
      vertex 13.9045 -33.9561 5
      vertex 13.8346 -33.8784 -5
      vertex 13.8346 -33.8784 5
    endloop
  endfacet
  facet normal 0.74316 0.669114 0
    outer loop
      vertex 13.8346 -33.8784 -5
      vertex 13.9045 -33.9561 5
      vertex 13.9045 -33.9561 -5
    endloop
  endfacet
  facet normal 0.20791 0.978148 -0
    outer loop
      vertex 13.6545 -33.7745 -5
      vertex 13.5523 -33.7527 5
      vertex 13.6545 -33.7745 5
    endloop
  endfacet
  facet normal 0.20791 0.978148 0
    outer loop
      vertex 13.5523 -33.7527 5
      vertex 13.6545 -33.7745 -5
      vertex 13.5523 -33.7527 -5
    endloop
  endfacet
  facet normal 0 1 -0
    outer loop
      vertex 13.5523 -33.7527 -5
      vertex 13.4477 -33.7527 5
      vertex 13.5523 -33.7527 5
    endloop
  endfacet
  facet normal 0 1 0
    outer loop
      vertex 13.4477 -33.7527 5
      vertex 13.5523 -33.7527 -5
      vertex 13.4477 -33.7527 -5
    endloop
  endfacet
  facet normal 0.406728 0.91355 -0
    outer loop
      vertex 13.75 -33.817 -5
      vertex 13.6545 -33.7745 5
      vertex 13.75 -33.817 5
    endloop
  endfacet
  facet normal 0.406728 0.91355 0
    outer loop
      vertex 13.6545 -33.7745 5
      vertex 13.75 -33.817 -5
      vertex 13.6545 -33.7745 -5
    endloop
  endfacet
  facet normal -0.994523 0.104518 0
    outer loop
      vertex 13 -34.25 -5
      vertex 13.0109 -34.146 5
      vertex 13.0109 -34.146 -5
    endloop
  endfacet
  facet normal -0.994523 0.104518 0
    outer loop
      vertex 13.0109 -34.146 5
      vertex 13 -34.25 -5
      vertex 13 -34.25 5
    endloop
  endfacet
  facet normal -0.74316 0.669114 0
    outer loop
      vertex 13.0955 -33.9561 -5
      vertex 13.1654 -33.8784 5
      vertex 13.1654 -33.8784 -5
    endloop
  endfacet
  facet normal -0.74316 0.669114 0
    outer loop
      vertex 13.1654 -33.8784 5
      vertex 13.0955 -33.9561 -5
      vertex 13.0955 -33.9561 5
    endloop
  endfacet
  facet normal -0.406731 0.913548 0
    outer loop
      vertex 13.3455 -33.7745 -5
      vertex 13.25 -33.817 5
      vertex 13.3455 -33.7745 5
    endloop
  endfacet
  facet normal -0.406731 0.913548 0
    outer loop
      vertex 13.25 -33.817 5
      vertex 13.3455 -33.7745 -5
      vertex 13.25 -33.817 -5
    endloop
  endfacet
  facet normal -0.207915 -0.978147 0
    outer loop
      vertex -23.1289 0.269023 -5
      vertex -23.0523 0.252739 5
      vertex -23.1289 0.269023 5
    endloop
  endfacet
  facet normal -0.207915 -0.978147 -0
    outer loop
      vertex -23.0523 0.252739 5
      vertex -23.1289 0.269023 -5
      vertex -23.0523 0.252739 -5
    endloop
  endfacet
  facet normal 0.207913 -0.978147 0
    outer loop
      vertex -22.9477 0.252739 -5
      vertex -22.9136 0.259995 5
      vertex -22.9477 0.252739 5
    endloop
  endfacet
  facet normal 0.207913 -0.978147 0
    outer loop
      vertex -22.9136 0.259995 5
      vertex -22.9477 0.252739 -5
      vertex -22.9136 0.259995 -5
    endloop
  endfacet
  facet normal 0 -1 0
    outer loop
      vertex -23.0523 0.252739 -5
      vertex -22.9477 0.252739 5
      vertex -23.0523 0.252739 5
    endloop
  endfacet
  facet normal 0 -1 -0
    outer loop
      vertex -22.9477 0.252739 5
      vertex -23.0523 0.252739 -5
      vertex -22.9477 0.252739 -5
    endloop
  endfacet
  facet normal 0.98387 0.178885 0
    outer loop
      vertex 0 5.31323 5
      vertex -9.53674e-07 5.31323 -5
      vertex -9.53674e-07 5.31323 5
    endloop
  endfacet
  facet normal 0.98387 0.178885 0
    outer loop
      vertex -9.53674e-07 5.31323 -5
      vertex 0 5.31323 5
      vertex 0 5.31323 -5
    endloop
  endfacet
  facet normal -0.173648 0.984808 0
    outer loop
      vertex -9.53674e-07 5.31323 -5
      vertex -22.9777 1.26165 5
      vertex -9.53674e-07 5.31323 5
    endloop
  endfacet
  facet normal -0.173648 0.984808 0
    outer loop
      vertex -22.9777 1.26165 5
      vertex -9.53674e-07 5.31323 -5
      vertex -22.9777 1.26165 -5
    endloop
  endfacet
  facet normal -0.984909 -0.173074 0
    outer loop
      vertex -22.9132 0.257596 -5
      vertex -22.9136 0.259995 5
      vertex -22.9136 0.259995 -5
    endloop
  endfacet
  facet normal -0.984909 -0.173074 0
    outer loop
      vertex -22.9136 0.259995 5
      vertex -22.9132 0.257596 -5
      vertex -22.9132 0.257596 5
    endloop
  endfacet
  facet normal 0.173648 -0.984808 0
    outer loop
      vertex -22.9132 0.257596 -5
      vertex 0 4.29781 5
      vertex -22.9132 0.257596 5
    endloop
  endfacet
  facet normal 0.173648 -0.984808 0
    outer loop
      vertex 0 4.29781 5
      vertex -22.9132 0.257596 -5
      vertex 0 4.29781 -5
    endloop
  endfacet
  facet normal -0.965946 0.258745 0
    outer loop
      vertex -27.959 1.56113 -5
      vertex -27.9585 1.56312 5
      vertex -27.9585 1.56312 -5
    endloop
  endfacet
  facet normal -0.965946 0.258745 0
    outer loop
      vertex -27.9585 1.56312 5
      vertex -27.959 1.56113 -5
      vertex -27.959 1.56113 5
    endloop
  endfacet
  facet normal -0.965718 0.259595 0
    outer loop
      vertex -27.7008 2.52507 -5
      vertex -27.7002 2.52706 5
      vertex -27.7002 2.52706 -5
    endloop
  endfacet
  facet normal -0.965718 0.259595 0
    outer loop
      vertex -27.7002 2.52706 5
      vertex -27.7008 2.52507 -5
      vertex -27.7008 2.52507 5
    endloop
  endfacet
  facet normal 0.96572 -0.259584 0
    outer loop
      vertex -23.1294 0.267036 5
      vertex -23.1289 0.269023 -5
      vertex -23.1289 0.269023 5
    endloop
  endfacet
  facet normal 0.96572 -0.259584 0
    outer loop
      vertex -23.1289 0.269023 -5
      vertex -23.1294 0.267036 5
      vertex -23.1294 0.267036 -5
    endloop
  endfacet
  facet normal -0.258819 -0.965926 0
    outer loop
      vertex -27.959 1.56113 -5
      vertex -23.1294 0.267036 5
      vertex -27.959 1.56113 5
    endloop
  endfacet
  facet normal -0.258819 -0.965926 -0
    outer loop
      vertex -23.1294 0.267036 5
      vertex -27.959 1.56113 -5
      vertex -23.1294 0.267036 -5
    endloop
  endfacet
  facet normal 0.258819 0.965926 -0
    outer loop
      vertex -22.9777 1.26165 -5
      vertex -27.7002 2.52706 5
      vertex -22.9777 1.26165 5
    endloop
  endfacet
  facet normal 0.258819 0.965926 0
    outer loop
      vertex -27.7002 2.52706 5
      vertex -22.9777 1.26165 -5
      vertex -27.7002 2.52706 -5
    endloop
  endfacet
  facet normal -0.994523 0.10452 0
    outer loop
      vertex -28.3296 2.0441 -5
      vertex -28.3187 2.14805 5
      vertex -28.3187 2.14805 -5
    endloop
  endfacet
  facet normal -0.994523 0.10452 0
    outer loop
      vertex -28.3187 2.14805 5
      vertex -28.3296 2.0441 -5
      vertex -28.3296 2.0441 5
    endloop
  endfacet
  facet normal -0.406745 0.913542 0
    outer loop
      vertex -27.9841 2.51962 -5
      vertex -28.0796 2.47711 5
      vertex -27.9841 2.51962 5
    endloop
  endfacet
  facet normal -0.406745 0.913542 0
    outer loop
      vertex -28.0796 2.47711 5
      vertex -27.9841 2.51962 -5
      vertex -28.0796 2.47711 -5
    endloop
  endfacet
  facet normal -0.951057 0.309015 0
    outer loop
      vertex -28.3187 2.14805 -5
      vertex -28.2864 2.24746 5
      vertex -28.2864 2.24746 -5
    endloop
  endfacet
  facet normal -0.951057 0.309015 0
    outer loop
      vertex -28.2864 2.24746 5
      vertex -28.3187 2.14805 -5
      vertex -28.3187 2.14805 5
    endloop
  endfacet
  facet normal 0 1 -0
    outer loop
      vertex -27.7774 2.54136 -5
      vertex -27.8819 2.54136 5
      vertex -27.7774 2.54136 5
    endloop
  endfacet
  facet normal 0 1 0
    outer loop
      vertex -27.8819 2.54136 5
      vertex -27.7774 2.54136 -5
      vertex -27.8819 2.54136 -5
    endloop
  endfacet
  facet normal -0.994523 -0.10452 0
    outer loop
      vertex -28.3187 1.94014 -5
      vertex -28.3296 2.0441 5
      vertex -28.3296 2.0441 -5
    endloop
  endfacet
  facet normal -0.994523 -0.10452 0
    outer loop
      vertex -28.3296 2.0441 5
      vertex -28.3187 1.94014 -5
      vertex -28.3187 1.94014 5
    endloop
  endfacet
  facet normal -0.866028 0.499995 0
    outer loop
      vertex -28.2864 2.24746 -5
      vertex -28.2341 2.33799 5
      vertex -28.2341 2.33799 -5
    endloop
  endfacet
  facet normal -0.866028 0.499995 0
    outer loop
      vertex -28.2341 2.33799 5
      vertex -28.2864 2.24746 -5
      vertex -28.2864 2.24746 5
    endloop
  endfacet
  facet normal -0.587777 0.809023 0
    outer loop
      vertex -28.0796 2.47711 -5
      vertex -28.1642 2.41567 5
      vertex -28.0796 2.47711 5
    endloop
  endfacet
  facet normal -0.587777 0.809023 0
    outer loop
      vertex -28.1642 2.41567 5
      vertex -28.0796 2.47711 -5
      vertex -28.1642 2.41567 -5
    endloop
  endfacet
  facet normal -0.207915 0.978147 0
    outer loop
      vertex -27.8819 2.54136 -5
      vertex -27.9841 2.51962 5
      vertex -27.8819 2.54136 5
    endloop
  endfacet
  facet normal -0.207915 0.978147 0
    outer loop
      vertex -27.9841 2.51962 5
      vertex -27.8819 2.54136 -5
      vertex -27.9841 2.51962 -5
    endloop
  endfacet
  facet normal -0.743143 0.669133 0
    outer loop
      vertex -28.2341 2.33799 -5
      vertex -28.1642 2.41567 5
      vertex -28.1642 2.41567 -5
    endloop
  endfacet
  facet normal -0.743143 0.669133 0
    outer loop
      vertex -28.1642 2.41567 5
      vertex -28.2341 2.33799 -5
      vertex -28.2341 2.33799 5
    endloop
  endfacet
  facet normal -0.406745 -0.913542 0
    outer loop
      vertex -28.0796 1.61108 -5
      vertex -27.9841 1.56857 5
      vertex -28.0796 1.61108 5
    endloop
  endfacet
  facet normal -0.406745 -0.913542 -0
    outer loop
      vertex -27.9841 1.56857 5
      vertex -28.0796 1.61108 -5
      vertex -27.9841 1.56857 -5
    endloop
  endfacet
  facet normal -0.743139 -0.669138 0
    outer loop
      vertex -28.1642 1.67252 -5
      vertex -28.2341 1.7502 5
      vertex -28.2341 1.7502 -5
    endloop
  endfacet
  facet normal -0.743139 -0.669138 0
    outer loop
      vertex -28.2341 1.7502 5
      vertex -28.1642 1.67252 -5
      vertex -28.1642 1.67252 5
    endloop
  endfacet
  facet normal 0.20792 0.978146 -0
    outer loop
      vertex -27.7008 2.52507 -5
      vertex -27.7774 2.54136 5
      vertex -27.7008 2.52507 5
    endloop
  endfacet
  facet normal 0.20792 0.978146 0
    outer loop
      vertex -27.7774 2.54136 5
      vertex -27.7008 2.52507 -5
      vertex -27.7774 2.54136 -5
    endloop
  endfacet
  facet normal -0.951056 -0.309017 0
    outer loop
      vertex -28.2864 1.84073 -5
      vertex -28.3187 1.94014 5
      vertex -28.3187 1.94014 -5
    endloop
  endfacet
  facet normal -0.951056 -0.309017 0
    outer loop
      vertex -28.3187 1.94014 5
      vertex -28.2864 1.84073 -5
      vertex -28.2864 1.84073 5
    endloop
  endfacet
  facet normal -0.587783 -0.809019 0
    outer loop
      vertex -28.1642 1.67252 -5
      vertex -28.0796 1.61108 5
      vertex -28.1642 1.67252 5
    endloop
  endfacet
  facet normal -0.587783 -0.809019 -0
    outer loop
      vertex -28.0796 1.61108 5
      vertex -28.1642 1.67252 -5
      vertex -28.0796 1.61108 -5
    endloop
  endfacet
  facet normal -0.207904 -0.978149 0
    outer loop
      vertex -27.9841 1.56857 -5
      vertex -27.9585 1.56312 5
      vertex -27.9841 1.56857 5
    endloop
  endfacet
  facet normal -0.207904 -0.978149 -0
    outer loop
      vertex -27.9585 1.56312 5
      vertex -27.9841 1.56857 -5
      vertex -27.9585 1.56312 -5
    endloop
  endfacet
  facet normal -0.86603 -0.499991 0
    outer loop
      vertex -28.2341 1.7502 -5
      vertex -28.2864 1.84073 5
      vertex -28.2864 1.84073 -5
    endloop
  endfacet
  facet normal -0.86603 -0.499991 0
    outer loop
      vertex -28.2864 1.84073 5
      vertex -28.2341 1.7502 -5
      vertex -28.2341 1.7502 5
    endloop
  endfacet
  facet normal -0.207915 0.978147 0
    outer loop
      vertex -23.0523 -0.252739 -5
      vertex -23.1289 -0.269023 5
      vertex -23.0523 -0.252739 5
    endloop
  endfacet
  facet normal -0.207915 0.978147 0
    outer loop
      vertex -23.1289 -0.269023 5
      vertex -23.0523 -0.252739 -5
      vertex -23.1289 -0.269023 -5
    endloop
  endfacet
  facet normal 0.207913 0.978147 -0
    outer loop
      vertex -22.9136 -0.259995 -5
      vertex -22.9477 -0.252739 5
      vertex -22.9136 -0.259995 5
    endloop
  endfacet
  facet normal 0.207913 0.978147 0
    outer loop
      vertex -22.9477 -0.252739 5
      vertex -22.9136 -0.259995 -5
      vertex -22.9477 -0.252739 -5
    endloop
  endfacet
  facet normal 0 1 -0
    outer loop
      vertex -22.9477 -0.252739 -5
      vertex -23.0523 -0.252739 5
      vertex -22.9477 -0.252739 5
    endloop
  endfacet
  facet normal 0 1 0
    outer loop
      vertex -23.0523 -0.252739 5
      vertex -22.9477 -0.252739 -5
      vertex -23.0523 -0.252739 -5
    endloop
  endfacet
  facet normal 0.98387 -0.178885 0
    outer loop
      vertex -9.53674e-07 -5.31323 5
      vertex 0 -5.31323 -5
      vertex 0 -5.31323 5
    endloop
  endfacet
  facet normal 0.98387 -0.178885 0
    outer loop
      vertex 0 -5.31323 -5
      vertex -9.53674e-07 -5.31323 5
      vertex -9.53674e-07 -5.31323 -5
    endloop
  endfacet
  facet normal -0.173648 -0.984808 0
    outer loop
      vertex -22.9777 -1.26165 -5
      vertex -9.53674e-07 -5.31323 5
      vertex -22.9777 -1.26165 5
    endloop
  endfacet
  facet normal -0.173648 -0.984808 -0
    outer loop
      vertex -9.53674e-07 -5.31323 5
      vertex -22.9777 -1.26165 -5
      vertex -9.53674e-07 -5.31323 -5
    endloop
  endfacet
  facet normal -0.984909 0.173074 0
    outer loop
      vertex -22.9136 -0.259995 -5
      vertex -22.9132 -0.257596 5
      vertex -22.9132 -0.257596 -5
    endloop
  endfacet
  facet normal -0.984909 0.173074 0
    outer loop
      vertex -22.9132 -0.257596 5
      vertex -22.9136 -0.259995 -5
      vertex -22.9136 -0.259995 5
    endloop
  endfacet
  facet normal 0.173648 0.984808 -0
    outer loop
      vertex 0 -4.29781 -5
      vertex -22.9132 -0.257596 5
      vertex 0 -4.29781 5
    endloop
  endfacet
  facet normal 0.173648 0.984808 0
    outer loop
      vertex -22.9132 -0.257596 5
      vertex 0 -4.29781 -5
      vertex -22.9132 -0.257596 -5
    endloop
  endfacet
  facet normal -0.965946 -0.258745 0
    outer loop
      vertex -27.9585 -1.56312 -5
      vertex -27.959 -1.56113 5
      vertex -27.959 -1.56113 -5
    endloop
  endfacet
  facet normal -0.965946 -0.258745 0
    outer loop
      vertex -27.959 -1.56113 5
      vertex -27.9585 -1.56312 -5
      vertex -27.9585 -1.56312 5
    endloop
  endfacet
  facet normal -0.965718 -0.259595 0
    outer loop
      vertex -27.7002 -2.52706 -5
      vertex -27.7008 -2.52507 5
      vertex -27.7008 -2.52507 -5
    endloop
  endfacet
  facet normal -0.965718 -0.259595 0
    outer loop
      vertex -27.7008 -2.52507 5
      vertex -27.7002 -2.52706 -5
      vertex -27.7002 -2.52706 5
    endloop
  endfacet
  facet normal 0.96572 0.259584 0
    outer loop
      vertex -23.1289 -0.269023 5
      vertex -23.1294 -0.267036 -5
      vertex -23.1294 -0.267036 5
    endloop
  endfacet
  facet normal 0.96572 0.259584 0
    outer loop
      vertex -23.1294 -0.267036 -5
      vertex -23.1289 -0.269023 5
      vertex -23.1289 -0.269023 -5
    endloop
  endfacet
  facet normal -0.258819 0.965926 0
    outer loop
      vertex -23.1294 -0.267036 -5
      vertex -27.959 -1.56113 5
      vertex -23.1294 -0.267036 5
    endloop
  endfacet
  facet normal -0.258819 0.965926 0
    outer loop
      vertex -27.959 -1.56113 5
      vertex -23.1294 -0.267036 -5
      vertex -27.959 -1.56113 -5
    endloop
  endfacet
  facet normal 0.258819 -0.965926 0
    outer loop
      vertex -27.7002 -2.52706 -5
      vertex -22.9777 -1.26165 5
      vertex -27.7002 -2.52706 5
    endloop
  endfacet
  facet normal 0.258819 -0.965926 0
    outer loop
      vertex -22.9777 -1.26165 5
      vertex -27.7002 -2.52706 -5
      vertex -22.9777 -1.26165 -5
    endloop
  endfacet
  facet normal -0.994523 -0.10452 0
    outer loop
      vertex -28.3187 -2.14805 -5
      vertex -28.3296 -2.0441 5
      vertex -28.3296 -2.0441 -5
    endloop
  endfacet
  facet normal -0.994523 -0.10452 0
    outer loop
      vertex -28.3296 -2.0441 5
      vertex -28.3187 -2.14805 -5
      vertex -28.3187 -2.14805 5
    endloop
  endfacet
  facet normal -0.406745 -0.913542 0
    outer loop
      vertex -28.0796 -2.47711 -5
      vertex -27.9841 -2.51962 5
      vertex -28.0796 -2.47711 5
    endloop
  endfacet
  facet normal -0.406745 -0.913542 -0
    outer loop
      vertex -27.9841 -2.51962 5
      vertex -28.0796 -2.47711 -5
      vertex -27.9841 -2.51962 -5
    endloop
  endfacet
  facet normal -0.951057 -0.309015 0
    outer loop
      vertex -28.2864 -2.24746 -5
      vertex -28.3187 -2.14805 5
      vertex -28.3187 -2.14805 -5
    endloop
  endfacet
  facet normal -0.951057 -0.309015 0
    outer loop
      vertex -28.3187 -2.14805 5
      vertex -28.2864 -2.24746 -5
      vertex -28.2864 -2.24746 5
    endloop
  endfacet
  facet normal 0 -1 0
    outer loop
      vertex -27.8819 -2.54136 -5
      vertex -27.7774 -2.54136 5
      vertex -27.8819 -2.54136 5
    endloop
  endfacet
  facet normal 0 -1 -0
    outer loop
      vertex -27.7774 -2.54136 5
      vertex -27.8819 -2.54136 -5
      vertex -27.7774 -2.54136 -5
    endloop
  endfacet
  facet normal -0.994523 0.10452 0
    outer loop
      vertex -28.3296 -2.0441 -5
      vertex -28.3187 -1.94014 5
      vertex -28.3187 -1.94014 -5
    endloop
  endfacet
  facet normal -0.994523 0.10452 0
    outer loop
      vertex -28.3187 -1.94014 5
      vertex -28.3296 -2.0441 -5
      vertex -28.3296 -2.0441 5
    endloop
  endfacet
  facet normal -0.866028 -0.499995 0
    outer loop
      vertex -28.2341 -2.33799 -5
      vertex -28.2864 -2.24746 5
      vertex -28.2864 -2.24746 -5
    endloop
  endfacet
  facet normal -0.866028 -0.499995 0
    outer loop
      vertex -28.2864 -2.24746 5
      vertex -28.2341 -2.33799 -5
      vertex -28.2341 -2.33799 5
    endloop
  endfacet
  facet normal -0.587777 -0.809023 0
    outer loop
      vertex -28.1642 -2.41567 -5
      vertex -28.0796 -2.47711 5
      vertex -28.1642 -2.41567 5
    endloop
  endfacet
  facet normal -0.587777 -0.809023 -0
    outer loop
      vertex -28.0796 -2.47711 5
      vertex -28.1642 -2.41567 -5
      vertex -28.0796 -2.47711 -5
    endloop
  endfacet
  facet normal -0.207915 -0.978147 0
    outer loop
      vertex -27.9841 -2.51962 -5
      vertex -27.8819 -2.54136 5
      vertex -27.9841 -2.51962 5
    endloop
  endfacet
  facet normal -0.207915 -0.978147 -0
    outer loop
      vertex -27.8819 -2.54136 5
      vertex -27.9841 -2.51962 -5
      vertex -27.8819 -2.54136 -5
    endloop
  endfacet
  facet normal -0.743143 -0.669133 0
    outer loop
      vertex -28.1642 -2.41567 -5
      vertex -28.2341 -2.33799 5
      vertex -28.2341 -2.33799 -5
    endloop
  endfacet
  facet normal -0.743143 -0.669133 0
    outer loop
      vertex -28.2341 -2.33799 5
      vertex -28.1642 -2.41567 -5
      vertex -28.1642 -2.41567 5
    endloop
  endfacet
  facet normal -0.406745 0.913542 0
    outer loop
      vertex -27.9841 -1.56857 -5
      vertex -28.0796 -1.61108 5
      vertex -27.9841 -1.56857 5
    endloop
  endfacet
  facet normal -0.406745 0.913542 0
    outer loop
      vertex -28.0796 -1.61108 5
      vertex -27.9841 -1.56857 -5
      vertex -28.0796 -1.61108 -5
    endloop
  endfacet
  facet normal -0.743139 0.669138 0
    outer loop
      vertex -28.2341 -1.7502 -5
      vertex -28.1642 -1.67252 5
      vertex -28.1642 -1.67252 -5
    endloop
  endfacet
  facet normal -0.743139 0.669138 0
    outer loop
      vertex -28.1642 -1.67252 5
      vertex -28.2341 -1.7502 -5
      vertex -28.2341 -1.7502 5
    endloop
  endfacet
  facet normal 0.20792 -0.978146 0
    outer loop
      vertex -27.7774 -2.54136 -5
      vertex -27.7008 -2.52507 5
      vertex -27.7774 -2.54136 5
    endloop
  endfacet
  facet normal 0.20792 -0.978146 0
    outer loop
      vertex -27.7008 -2.52507 5
      vertex -27.7774 -2.54136 -5
      vertex -27.7008 -2.52507 -5
    endloop
  endfacet
  facet normal -0.951056 0.309017 0
    outer loop
      vertex -28.3187 -1.94014 -5
      vertex -28.2864 -1.84073 5
      vertex -28.2864 -1.84073 -5
    endloop
  endfacet
  facet normal -0.951056 0.309017 0
    outer loop
      vertex -28.2864 -1.84073 5
      vertex -28.3187 -1.94014 -5
      vertex -28.3187 -1.94014 5
    endloop
  endfacet
  facet normal -0.587783 0.809019 0
    outer loop
      vertex -28.0796 -1.61108 -5
      vertex -28.1642 -1.67252 5
      vertex -28.0796 -1.61108 5
    endloop
  endfacet
  facet normal -0.587783 0.809019 0
    outer loop
      vertex -28.1642 -1.67252 5
      vertex -28.0796 -1.61108 -5
      vertex -28.1642 -1.67252 -5
    endloop
  endfacet
  facet normal -0.207904 0.978149 0
    outer loop
      vertex -27.9585 -1.56312 -5
      vertex -27.9841 -1.56857 5
      vertex -27.9585 -1.56312 5
    endloop
  endfacet
  facet normal -0.207904 0.978149 0
    outer loop
      vertex -27.9841 -1.56857 5
      vertex -27.9585 -1.56312 -5
      vertex -27.9841 -1.56857 -5
    endloop
  endfacet
  facet normal -0.86603 0.499991 0
    outer loop
      vertex -28.2864 -1.84073 -5
      vertex -28.2341 -1.7502 5
      vertex -28.2341 -1.7502 -5
    endloop
  endfacet
  facet normal -0.86603 0.499991 0
    outer loop
      vertex -28.2341 -1.7502 5
      vertex -28.2864 -1.84073 -5
      vertex -28.2864 -1.84073 5
    endloop
  endfacet
endsolid OpenSCAD_Model
